<svg xmlns="http://www.w3.org/2000/svg" viewBox="0 0 420.79 77.75"><defs><style>.cls-1{fill:#7e7f82;}.cls-2{fill:#7d7f81;}.cls-3{fill:#7d7f82;}.cls-4{fill:#7e8082;}</style></defs><title>Ресурс 2</title><g id="Слой_2" data-name="Слой 2"><g id="Слой_1-2" data-name="Слой 1"><path class="cls-1" d="M6.3,60.27A38.09,38.09,0,0,1,.15,42.42,39.18,39.18,0,0,1,23,3.32a17.28,17.28,0,0,1,23.22,8.83c3.92,9.57-.5,19.87-10.19,23.18-5.11,1.75-10.39,3-15.57,4.5a32.19,32.19,0,0,0-4.38,1.66C7.27,45.57,4.87,49.9,6.3,60.27Z"/><path class="cls-1" d="M72.32,18.43C83,33.35,79.35,56.76,64.6,69,58.93,73.65,52.87,77.45,45,76A17.18,17.18,0,0,1,31,61.35c-.9-7.91,3.15-15.29,10.24-18.1a75.41,75.41,0,0,1,9.66-2.86A67.34,67.34,0,0,0,63.2,36.24C71.25,32.5,73.85,27.55,72.32,18.43Z"/><path class="cls-2" d="M407.26,24.68C402.17,35.83,397.11,47,392,58.1c-.56,1.21-.65,3.23-2.49,3.12s-1.82-2.05-2.38-3.29c-4.34-9.65-8.6-19.33-12.89-29a6.68,6.68,0,0,0-2.1-2.91c-.26,9.66-.55,19.32-.75,29-.06,2.93,1.39,4.74,4.49,5,.87.08,2.31-.07,2.15,1.27s-1.55.8-2.42.81c-4.09,0-8.18,0-12.27,0-.72,0-1.63,0-1.75-.85s.75-1.14,1.47-1.19c3.39-.24,4.22-2.45,4.56-5.4,1.15-9.92,1.27-19.9,1.93-29.85.25-3.77-.66-6.78-5.27-6.92-.6,0-1.34-.21-1.35-.92,0-1,.86-1,1.56-1,2.89,0,5.77,0,8.66,0,2,0,2.18,1.66,2.76,2.88q7.35,15.47,14.62,31c.25.53.53,1,1.11,2.17l9.81-21.14c2-4.25,4-8.5,5.88-12.78.59-1.32,1.27-2.2,2.91-2.15,2.64.09,5.29,0,7.94,0,.68,0,1.66-.19,1.79.73.17,1.22-.94,1.24-1.73,1.25-4.09.09-4.52,2.89-4.45,6,.22,9.85.51,19.71.7,29.56.07,3.52.45,6.64,5.07,6.64.61,0,1.29.33,1.28,1,0,1-.93.93-1.61.93q-7.58,0-15.15,0c-.7,0-1.61.08-1.71-.86s.78-1.11,1.49-1.12c3.78-.07,4.43-2.46,4.41-5.6-.06-9.94,0-19.87,0-29.81Z"/><path class="cls-1" d="M43.77,0c7.41,1.08,14,3.16,18.74,9.09,5.62,7.1,4.12,17-3.36,22.63-4.58,3.45-10.08,5-15.26,7.24-4.42,1.88-8.94,3.52-12.82,6.49-6,4.61-9.86,10.38-8.56,18.24,1.25,7.5,6.07,12,13.53,13.9C26.16,79,14.46,71.07,12.9,62.1c-1.18-6.73,1.7-12.92,8-16.75s13.64-5.94,20.39-9.1A28.47,28.47,0,0,0,53,27c6.31-9,3.22-20.48-6.73-25.17C45.47,1.4,44.4,1.37,43.77,0Z"/><path class="cls-3" d="M359.09,16c-.45,1-.52,1.36-.64,1.37-5.69.69-5.9,4.79-6,9.23-.22,7,.56,13.94-.64,20.87-2.29,13.21-15,19.68-27.12,13.75-5.05-2.47-7.11-6.9-7.7-12.22-.84-7.55-.23-15.13-.43-22.69-.1-3.9.74-8.41-5.39-8.56-.3,0-.59-.62-.88-.95.35-.28.7-.79,1.05-.79,5.53,0,11.05,0,16.58,0a.88.88,0,0,1,.92.89c0,.72-.65,1-1.29,1-4.16.09-4.78,2.88-4.75,6.18.07,8-.72,16.11.59,24.11,1.18,7.21,5.17,11,11.44,11.29,7,.29,11.59-3,13.26-10.1,2.17-9.24,1.45-18.64.59-28-.26-2.81-2.86-3.21-5.21-3.46-.61-.07-1.25-.2-1.36-.93a.81.81,0,0,1,.83-.95C348.18,16,353.47,16,359.09,16Z"/><path class="cls-1" d="M226.86,62.14c-4.81,0-9.63,0-14.44,0-.77,0-1.93.37-2.09-.78s1-1.18,1.8-1.21c3.57-.15,4.58-2.22,4.7-5.49q.59-15.51,0-31c-.12-3.12-.7-5.53-4.44-5.66-.73,0-1.59-.23-1.46-1.17S212,16,212.69,16q13.54,0,27.08,0c1,0,2,0,2.16,1.33q.36,3.77.61,7.55c0,.73-.06,1.54-1,1.57-.74,0-.88-.68-1.07-1.25-.79-2.39-1.25-5.23-4.06-6a34.39,34.39,0,0,0-11.82-.75c-1.15.09-1.5,1-1.5,2.11,0,4.81,0,9.63,0,14.44,0,1.69.89,2,2.27,2,2.17,0,4.33-.07,6.5,0,2.78.08,4.7-.83,5-3.9.09-.82.22-1.85,1.42-1.6.92.19.74,1.12.74,1.8q0,4.87,0,9.75c0,.8.27,1.89-.89,2.06s-1.22-.84-1.32-1.7c-.33-2.86-2.14-3.66-4.79-3.73-9-.21-9-.26-9,8.6a6.84,6.84,0,0,0,0,.72c.36,3.35-1.44,7.87,2.19,9.63,4.2,2,9.22,1.46,13.75,0,2.75-.89,3.63-3.66,4.56-6.17.29-.77.51-1.86,1.58-1.63,1.51.32.71,1.47.57,2.34-1.51,9-1.51,9-10.54,9Z"/><path class="cls-3" d="M191.56,37.71c0,5.41,0,10.83,0,16.24.05,4.51.86,5.38,5.25,6.17.79.14,2-.09,2,1s-1.13,1-1.93,1c-5.53,0-11.07,0-16.6,0-.75,0-2,.29-1.9-1s1.21-1,2-1c3.73-.09,5-2.32,5-5.66q0-16.78,0-33.56c0-1.07.1-2.11-1.36-2.55a11,11,0,0,0-12.88,6.22c-.35.85-.39,2.19-1.65,2s-.78-1.55-.77-2.42c.12-8.14.14-8.14,8.4-8.14,9.14,0,18.28.05,27.42,0,2.24,0,3.34.54,3.27,3a58.84,58.84,0,0,0,.44,6.11c0,.61,0,1.29-.63,1.53-.93.34-1.39-.38-1.49-1.08-1-6.79-6.1-7-11.35-7.21-2.43-.09-3.47.55-3.38,3.19C191.68,26.88,191.56,32.3,191.56,37.71Z"/><path class="cls-1" d="M258.79,16c2.43.14,5.31-.12,8.19.37,5.1.88,8.82,3.33,9.92,8.59s-.57,10-5.26,12.79c-3.43,2-3.32,3.59-1.3,6.45,3,4.32,5.67,8.94,9.17,12.94a39.37,39.37,0,0,0,3.44,3.15c.71.64,2.55.54,1.94,2-.46,1.09-1.95.52-3,.45A13.5,13.5,0,0,1,270.6,56c-2.06-3.39-4.23-6.72-6.14-10.19-1.56-2.84-3.62-4.31-7-3.93a31.39,31.39,0,0,1-5.41,0c-1-.06-2.79.67-2.68-1.32.1-1.78,1.77-1.25,2.86-1.27,2.89-.07,5.78,0,8.66,0,5.73-.16,9.34-3.92,9.67-9.93.32-5.84-2.81-9.69-8.48-10.63-3.35-.56-6.72-.28-10.08-.4-1,0-2.52.47-2.61-1.09S250.89,16,251.85,16C254,15.93,256.18,16,258.79,16Z"/><path class="cls-3" d="M145.16,15.84a85.68,85.68,0,0,1,8.63.52c5.68.9,9.17,4,10.06,8.46,1.08,5.46-.81,10.61-5.75,13.29-3,1.66-2.84,2.93-1.2,5.37,3.14,4.7,6,9.61,9.78,13.83a11.86,11.86,0,0,0,3.8,3.26c.69.31,1.92.39,1.5,1.57-.36,1-1.46.64-2.24.6-4.93-.25-9.17-1.85-11.88-6.31-2.19-3.6-4.52-7.11-6.56-10.79-1.52-2.72-3.48-4.14-6.68-3.75a19.13,19.13,0,0,1-4.68,0c-1.2-.15-3.44,1-3.33-1.31.1-2,2.25-1.18,3.53-1.25,2-.11,4.09,0,6.13.1,9.94.44,12.29-7.66,10.93-13.87-.88-4.05-3.91-6.15-8-6.83-3.47-.58-7-.35-10.44-.42-.9,0-2.18.28-2.25-1.11s1.22-1.2,2.12-1.22c2.17,0,4.33,0,6.5,0Z"/><path class="cls-4" d="M296.12,62.14c-2.4,0-4.8,0-7.21,0-.71,0-1.62.09-1.79-.79s.67-1.16,1.39-1.18c3.81-.11,4.78-2.42,4.76-5.77-.05-10.21,0-20.42,0-30.63,0-3.27-.8-5.74-4.7-5.81-.72,0-1.55-.2-1.42-1.17.09-.7.81-.79,1.43-.79h15.5c.72,0,1.62,0,1.61,1s-.91,1-1.63,1c-3.49.07-4.46,2.22-4.45,5.26,0,10.45,0,20.9,0,31.35,0,3.2.94,5.43,4.57,5.55.75,0,1.63.2,1.59,1.08s-1,.92-1.7.92Z"/><path class="cls-3" d="M137.26,60c-2.27-.45-3.5-2-4.33-4s-1.51-3.8-2.21-5.72c-4-10.84-7.9-21.7-11.9-32.53-.35-.94-.36-2.41-1.69-2.51-1.57-.12-1.66,1.48-2.16,2.5-.32.64-.52,1.35-.78,2q-6.88,17.65-13.75,35.31c-1,2.49-2.23,4.54-5.16,4.94-.7.09-1.66.22-1.58,1.12.11,1.15,1.21.93,2,.93q5.6,0,11.19,0c.68,0,1.64.19,1.8-.73.2-1.22-.89-1.27-1.69-1.3-3.47-.11-3.56-2.16-2.75-4.71s1.86-5.22,2.57-7.89c.6-2.3,1.9-2.86,4.17-2.86,11.6,0,11.55-.06,15.2,10.92.88,2.63,1.08,4.52-2.5,4.57-.72,0-1.51.31-1.34,1.27.13.75.87.72,1.46.73,2.29,0,4.57,0,6.86,0,2,0,4.09,0,6.14,0,.89,0,2.25.48,2.49-.75C139.58,59.93,138.09,60.19,137.26,60ZM118.57,41.81c-2.39-.06-4.79-.07-7.19,0-1.75.06-2.45-.37-1.75-2.25,1.69-4.58,3.27-9.21,5.29-14.94,2,5.62,3.7,10.22,5.4,14.8C121,41.19,120.4,41.86,118.57,41.81Z"/></g></g></svg>