<?xml version="1.0" encoding="utf-8"?>
<!-- Generator: Adobe Illustrator 21.0.2, SVG Export Plug-In . SVG Version: 6.00 Build 0)  -->
<svg version="1.1" id="Слой_1" xmlns="http://www.w3.org/2000/svg" xmlns:xlink="http://www.w3.org/1999/xlink" x="0px" y="0px"
	 viewBox="0 0 116 27" style="enable-background:new 0 0 116 27;" xml:space="preserve">
<style type="text/css">
	.st0{fill:#43B02A;}
</style>
<title>logo-witout-ua</title>
<desc>Created with Sketch.</desc>
<g>
	<path class="st0" d="M31.1,9.6c-2,0.3-3.6,2.3-3.5,4.3c0.1,2.1,2,4,4.2,3.9c2.3,0.1,4.4-2.2,4.1-4.5C35.7,11,33.3,9.1,31.1,9.6z"/>
	<path class="st0" d="M110.9,3c-2.4-1.9-5.4-3-8.5-3C73,0,43.6,0,14.1,0c-1,0-2,0-2.9,0.2C7,0.9,3.2,3.7,1.4,7.6
		c-1.4,3-1.8,6.4-0.8,9.6c1.2,4.4,4.8,8,9.2,9.2c2.3,0.7,4.8,0.5,7.2,0.6c28.5,0,57.1,0,85.6,0c3.8,0,7.6-1.7,10.1-4.6
		c2.2-2.5,3.4-5.7,3.4-9C116,9.4,114.1,5.4,110.9,3z M11.1,14.9c0.5,1.7,2.3,3,4.2,2.9c1.5,0.1,2.6-1,3.5-2c1.2-1.2,3.5-0.2,3.6,1.5
		c0.2,1.5-1.1,2.5-2.1,3.3C17,23.1,11.9,22.8,9,19.8c-3-2.8-3.5-7.7-1.1-11c1.3-1.9,3.4-3.3,5.8-3.6c3.3-0.6,6.8,1,8.6,3.9
		c0.8,1.4-0.4,3.4-2,3.2c-0.9,0.1-1.6-0.6-2.1-1.3C16.9,9.4,14.7,9.1,13,10C11.3,10.9,10.4,13.1,11.1,14.9z M33.2,22.1
		c-4.3,0.9-8.9-2.2-9.9-6.5c-1.3-4.6,2.2-9.7,6.9-10.5c4.4-0.9,9.1,2.3,9.9,6.7C41.3,16.5,37.8,21.5,33.2,22.1z M59.4,20.1
		c0,1.3-1.3,2.4-2.5,2.2c-1.1-0.1-2-1.1-1.9-2.2c0-2.5,0-4.9,0-7.4c-1,0.9-1.9,1.9-2.9,2.8c-0.7,0.7-2,0.8-2.8,0.2
		c-1.1-0.9-2-2-3.1-3c0,2.5,0,5,0,7.5c0,1.3-1.4,2.4-2.6,2.1c-1-0.2-1.9-1.2-1.8-2.2c0-4.3,0-8.6,0-12.8c-0.1-1.7,2.2-2.8,3.5-1.7
		c1.8,1.7,3.5,3.5,5.3,5.2c1.7-1.7,3.4-3.4,5.1-5.1C56.2,5,57.2,4.8,58,5.2c0.8,0.4,1.4,1.3,1.3,2.3C59.4,11.7,59.4,15.9,59.4,20.1z
		 M72.7,9.4c-2.4,0.1-4.7,0-7.1,0c0,0.9,0,1.8,0,2.7c2,0,4,0,6,0c1.4-0.1,2.7,1.4,2.3,2.8c-0.2,1-1.2,1.8-2.3,1.7c-2,0-4,0-6,0
		c0,1.2,0,2.4,0,3.5c-0.1,1.4-1.6,2.4-2.9,1.9c-0.6-0.1-1-0.7-1.4-1.2c-0.3-1.2-0.1-2.5-0.2-3.8c0-3.3,0-6.6,0-10
		c0-1.3,1.1-2.3,2.4-2.3c3,0,6,0,8.9,0c0.8,0,1.6,0.5,2,1.2C75.2,7.5,74.2,9.4,72.7,9.4z M91.5,8.8c-1.8,1.8-3.6,3.6-5.4,5.4
		c0,1.9,0,3.9,0,5.8c0.1,1-0.8,2-1.8,2.2c-1.3,0.3-2.7-0.8-2.6-2.2c0-1.9,0-3.9,0-5.8c-1.4-1.5-3-2.9-4.4-4.5
		c-0.7-0.7-1.6-1.3-1.6-2.3C75.4,6,77,4.7,78.4,5.1c1,0.3,1.5,1.2,2.3,1.8c1.1,1,2.1,2.2,3.2,3.2c1.6-1.5,3-3.1,4.6-4.6
		c0.9-0.8,2.3-0.7,3.1,0.2C92.3,6.6,92.3,8,91.5,8.8z M108.5,17.5c-1.4,2.3-4.1,3.8-6.8,3.6c-3.5-0.1-6.7-3-7.1-6.5
		c-0.6-3.6,1.9-7.4,5.5-8.3c3.4-1,7.4,0.9,8.8,4.1C109.9,12.7,109.8,15.4,108.5,17.5z"/>
</g>
</svg>
