<svg xmlns="http://www.w3.org/2000/svg" viewBox="0 0 222.98 165.41"><title>jti_logo</title><g id="Слой_2" data-name="Слой 2"><g id="Слой_1-2" data-name="Слой 1"><path d="M35.07,96.6q0-23.62,0-47.24c0-8.37-1.45-9.89-9.79-9.73-3.39.06-5.58-1.06-6-4.64-.39-3.36,1-5.21,4.42-5.59a57.85,57.85,0,0,1,6.37-.12c15.5,0,31-.06,46.49,0,4.23,0,7.47-1,9.39-5.23,1.28-2.85,4.24-3.11,7.12-3.1q25.12,0,50.24,0c10,0,20,0,30,0,4.43,0,4.81.45,4.82,5.05,0,4.86-.33,5.26-5,5.29-5.37,0-10.75,0-16.12,0-6.33.09-8.9,2.66-8.9,8.92q0,38.05.06,76.11c0,3.05-.92,5.2-3.54,6.86-8.12,5.13-16.09,10.5-24.28,15.52-1.59,1-4.35,1.63-5.74.89s-2.22-3.44-2.23-5.28c-.13-30.74-.09-61.49-.1-92.23,0-8.68-2.15-10.8-10.91-10.81-2.25,0-4.5,0-6.75,0-3.42,0-6.07,1.15-7.58,4.42-1.23,2.67-3.39,3.74-6.31,3.85-7,.25-8.38,1.79-8.39,8.9,0,24.37-.05,48.74,0,73.11,0,8.68-3.11,15.29-10.75,20-9.88,6.08-19.38,12.78-29.13,19.09-7.82,5.07-16.09,6.35-24.84,2.41-8.12-3.65-10.27-13-4.23-18.62,5.71-5.28,15.52-3.05,18.45,4.15a26.34,26.34,0,0,0,2.29,4.68c2.94,4.42,6.84,4.34,9.16-.42A18.12,18.12,0,0,0,35,145.34C35.15,129.09,35.08,112.84,35.07,96.6Z"/><path d="M185.76,69.34q0-21.73,0-43.46c0-4.69.2-4.89,4.84-4.9,8.74,0,17.48.08,26.22,0,3.09,0,4.16,1.13,4.15,4.18q-.12,34.65,0,69.3a7.79,7.79,0,0,1-4.15,7.33c-7.77,4.75-15.31,9.89-23.07,14.65-1.74,1.07-4.65,2.25-5.93,1.51s-1.94-3.81-2-5.86C185.69,97.81,185.76,83.58,185.76,69.34Z"/><path d="M203.18,0c4.48,0,9,0,13.45,0,3.83,0,6.37,2.21,6.35,5.3,0,2.76-2.34,4.89-5.94,4.94q-14.2.21-28.4.12c-3,0-4.3-2.23-4.43-6.17C184.11,1,185.88,0,188.61,0,193.46,0,198.32,0,203.18,0Z"/></g></g></svg>