<svg xmlns="http://www.w3.org/2000/svg" viewBox="0 0 92.43 95.43"><defs><style>.cls-1,.cls-2{fill:#1d1d1b;}.cls-2{fill-rule:evenodd;}</style></defs><title>kiecstar_logo</title><g id="Слой_2" data-name="Слой 2"><g id="Слой_1-2" data-name="Слой 1"><polygon class="cls-1" points="0 95.06 0 82.2 0.18 82.2 3.79 82.2 3.79 86.23 6.59 82.2 6.78 82.2 11.01 82.2 6.55 87.97 12.02 95.06 11.84 95.06 7.33 95.06 3.79 89.81 3.79 95.06 3.6 95.06 0 95.06 0 95.06"/><polygon class="cls-1" points="12.93 82.2 16.4 82.2 16.4 89.64 21.2 82.2 21.39 82.2 24.91 82.2 24.91 95.06 24.73 95.06 21.26 95.06 21.26 87.64 16.53 95.06 16.35 95.06 12.75 95.06 12.75 82.2 12.93 82.2 12.93 82.2"/><polygon class="cls-1" points="27.89 95.06 27.89 82.2 28.07 82.2 31.68 82.2 31.68 95.06 31.49 95.06 27.89 95.06 27.89 95.06"/><path class="cls-1" d="M34.66,82.2h6.23a4.19,4.19,0,0,1,2.55.62,3,3,0,0,1,1.07,1.38,3.33,3.33,0,0,1,.17.67,4.24,4.24,0,0,1,0,.6,2.51,2.51,0,0,1-.6,1.69,3.33,3.33,0,0,1-1.41,1v0l.53.17a3.41,3.41,0,0,1,.64.31,3.8,3.8,0,0,1,1.06,1,3,3,0,0,1,.49,1.8q0,.11,0,.21c0,.07,0,.14,0,.21a3.64,3.64,0,0,1-1.1,2.17,4.17,4.17,0,0,1-3.09,1H34.47V82.2Zm3.6,10.29h1.86a2.59,2.59,0,0,0,.48-.06,1.69,1.69,0,0,0,.74-.38,1.14,1.14,0,0,0,.33-.91,1,1,0,0,0-.34-.87,1.88,1.88,0,0,0-.73-.36l-.43,0h-1.9v2.65Zm0-5.22h1.32A2,2,0,0,0,40.72,87a1.19,1.19,0,0,0,.46-.56.94.94,0,0,0,0-.21q0-.1,0-.19a1.29,1.29,0,0,0-.36-.89,1.71,1.71,0,0,0-1.3-.4H38.26v2.5Z"/><polygon class="cls-1" points="62.15 95.06 62.15 85.73 58.57 85.73 58.57 82.2 58.76 82.2 69.52 82.2 69.52 85.73 65.94 85.73 65.94 95.06 65.75 95.06 62.33 95.06 62.15 95.06 62.15 95.06"/><path class="cls-1" d="M67.78,95.06,72.35,82.2h4.56l4.56,12.87h-4l-.7-2.22H72.54l-.72,2.22h-4Zm6.86-9.59L73.25,90H76l-1.38-4.54Z"/><path class="cls-1" d="M82.13,95.06V82.2h5.61a4.6,4.6,0,0,1,3.08.88A4.4,4.4,0,0,1,92.19,85a4.45,4.45,0,0,1,.18.76,9.76,9.76,0,0,1,.06,1,4.72,4.72,0,0,1-.24,1.47,4.33,4.33,0,0,1-1.36,2,4.61,4.61,0,0,1-3.09.89H85.92v3.94H82.13Zm3.79-10v3.26h.85A2,2,0,0,0,87.92,88a1.33,1.33,0,0,0,.5-.55,1.39,1.39,0,0,0,.09-.39q0-.18,0-.29c0-.07,0-.45,0-.52s0-.15,0-.22a1.37,1.37,0,0,0-.46-.71A1.94,1.94,0,0,0,86.76,85Z"/><path class="cls-1" d="M53.12,95.43H52.8a6.3,6.3,0,0,1-4.83-2,7,7,0,0,1-1.71-3.84h0v-.08h0v-.08h0V89.3c0-.08,0-.16,0-.25h0V89h0v-.08h0V88.8h0v-.08h0v-.17h0v-.08h0v-.08h0v-.08h0v-.08h0c0-.08,0-.17,0-.25v-.08h0V87.8h0v-.08h0A7,7,0,0,1,48,83.87a6.3,6.3,0,0,1,4.83-2h.32l.18,0a10,10,0,0,1,1.44.11A5.67,5.67,0,0,1,58.17,84l.18.23-2.6,2.09-.16-.21A3.28,3.28,0,0,0,54,85.05h0a2,2,0,0,0-.4-.1l-.23,0h-.19a2.44,2.44,0,0,0-.38,0l-.3.07h-.11a3.32,3.32,0,0,0-1.55,1.09,4.67,4.67,0,0,0,0,4.94,3.32,3.32,0,0,0,1.55,1.09h.11l.3.07.36,0h.22l.22,0a2,2,0,0,0,.4-.1h0a3.28,3.28,0,0,0,1.58-1.07l.16-.21L58.36,93l-.18.23a5.67,5.67,0,0,1-3.42,2.06,9.94,9.94,0,0,1-1.45.11l-.18,0Z"/><path class="cls-2" d="M25.57,73.94A3.37,3.37,0,1,1,22.2,77.3a3.37,3.37,0,0,1,3.37-3.37Zm8.43,0a3.37,3.37,0,1,1-3.37,3.37A3.37,3.37,0,0,1,34,73.94Z"/><path class="cls-2" d="M46.46,0h0a4.67,4.67,0,0,1,4.65,4.65V21.95a4.67,4.67,0,0,1-4.65,4.65h0a4.67,4.67,0,0,1-4.65-4.65V4.65A4.67,4.67,0,0,1,46.46,0Z"/><path class="cls-2" d="M11.33,25.52h0a4.67,4.67,0,0,1,5.86-3l16.45,5.34a4.67,4.67,0,0,1,3,5.86h0a4.67,4.67,0,0,1-5.86,3L14.32,31.38a4.67,4.67,0,0,1-3-5.86Z"/><path class="cls-2" d="M24.75,66.82h0a4.67,4.67,0,0,1-1-6.5l10.16-14a4.67,4.67,0,0,1,6.5-1h0a4.67,4.67,0,0,1,1,6.5l-10.16,14a4.67,4.67,0,0,1-6.5,1Z"/><path class="cls-2" d="M68.17,66.82h0a4.67,4.67,0,0,1-6.5-1l-10.16-14a4.67,4.67,0,0,1,1-6.5h0a4.67,4.67,0,0,1,6.5,1l10.16,14a4.67,4.67,0,0,1-1,6.5Z"/><path class="cls-2" d="M81.59,25.52h0a4.67,4.67,0,0,1-3,5.86L62.15,36.73a4.67,4.67,0,0,1-5.86-3h0a4.67,4.67,0,0,1,3-5.86l16.45-5.34a4.67,4.67,0,0,1,5.86,3Z"/></g></g></svg>