<?xml version="1.0" encoding="utf-8"?>
<!-- Generator: Adobe Illustrator 21.0.2, SVG Export Plug-In . SVG Version: 6.00 Build 0)  -->
<svg version="1.1" id="Слой_1" xmlns="http://www.w3.org/2000/svg" xmlns:xlink="http://www.w3.org/1999/xlink" x="0px" y="0px"
	 viewBox="0 0 763.6 235.1" style="enable-background:new 0 0 763.6 235.1;" xml:space="preserve">
<style type="text/css">
	.st0{fill:#CCCCCC;}
</style>
<title>kievstar_1</title>
<g id="Слой_2">
	<g id="Слой_1-2">
		<path class="st0" d="M388.1,158c-7.6,10.4-15.1,20.3-22.3,30.6c-2.6,3.8-5.5,5.5-10.3,5.4c-13.1-0.4-12.3,1.6-12.3-12.5
			c0-16,0.1-32-0.1-48c-0.1-4.8,1.7-6.5,6.5-6.4c14,0.3,12.3-1.3,12.4,12.2c0,7.5,0,15,0,22.5c0,0.2,0,0.3,0.1,0.5
			c1.7,0.7,1.9-0.9,2.5-1.7c7-9.5,14.2-18.9,21-28.6c2.5-3.5,5.1-5,9.5-4.9c13.7,0.4,12.6-1.7,12.6,12.6c0,16-0.1,32,0.1,48
			c0,4.4-1.4,6.3-6,6.2c-14.3-0.3-12.8,1.7-12.8-12.8c0-7.3,0-14.7-0.1-22C388.8,158.9,388.6,158.8,388.1,158z"/>
		<path class="st0" d="M295.8,147.6c4.9-6.2,9-11.2,12.9-16.4c2.2-2.9,4.8-4.4,8.5-4.1c3.5,0.2,7,0,10.5,0.1c1.6,0,3.5-0.4,4.5,1.4
			c1.1,2-0.6,3.1-1.6,4.3c-5.8,7.1-11.5,14.3-17.5,21.2c-1.9,2.2-1.9,3.6-0.1,5.9c7.7,9.2,15.1,18.6,22.6,27.9
			c1,1.2,2.7,2.4,1.9,4.3c-0.9,2.2-3,1.6-4.8,1.7C317,194,317,194,307.1,181.6c-3.5-4.4-7-8.7-11.4-14.1c0,7.7-0.1,14.1,0,20.5
			c0.1,4.3-1.5,6-5.8,5.9c-14.7-0.3-12.8,1.5-12.9-12.7c0-15.8,0.1-31.7-0.1-47.5c-0.1-4.6,1.2-6.7,6.2-6.6
			c14.1,0.3,12.5-1.3,12.6,12.7C295.8,141.9,295.8,144,295.8,147.6z"/>
		<path class="st0" d="M137.7,45.3c0,9.3,0,18.7,0,28c0,9-6.8,16.2-15.3,16.4c-8.8,0.1-15.9-6.9-16-15.7c0,0,0-0.1,0-0.1
			c-0.2-19.3-0.2-38.7,0-58c0.1-9.1,7.5-16.2,15.9-16c8.8,0.2,15.5,7.5,15.5,16.9S137.7,35.8,137.7,45.3z"/>
		<path class="st0" d="M157.9,111.7c-0.1-6.8,3.6-12.7,10.3-14.9c18.4-6.2,36.9-12.3,55.5-18.1c8.1-2.6,16.7,1.8,19.4,9.8
			c0,0.1,0.1,0.2,0.1,0.4c2.7,8.4-1.6,17-10.3,19.9c-18.1,6-36.3,12-54.5,17.8c-8.1,2.7-16.9-1.6-19.6-9.7
			C158.2,115.1,157.9,113.4,157.9,111.7z"/>
		<path class="st0" d="M154.1,156.7c4.9-0.1,9.6,2.3,12.4,6.4c11.3,15.6,22.7,31.2,33.8,46.9c5.2,6.9,3.8,16.6-3.1,21.8
			c-0.1,0.1-0.3,0.2-0.4,0.3c-7.1,5.1-16.6,3.6-22-3.9c-11.3-15.4-22.5-30.9-33.5-46.5c-3.8-5.3-4.3-11.1-1-16.9
			C142.9,159.7,148.3,156.5,154.1,156.7z"/>
		<path class="st0" d="M15.7,77.9c2.9-0.2,5.6,0.9,8.3,1.8C40.5,85,57.1,90.5,73.7,95.9c9.8,3.2,14.5,11.5,11.7,20.4
			S74,129.1,64,125.9c-17.7-5.7-35.4-11.5-53.1-17.4C2.6,105.9-1.9,97.1,0.7,88.8C2.8,82.3,8.8,77.9,15.7,77.9L15.7,77.9z"/>
		<path class="st0" d="M105.8,172.3c0.2,3.8-1.3,7.1-3.5,10.2c-10.8,14.9-21.6,29.9-32.4,44.9c-6,8.2-15,10.1-22.6,4.8
			c-7.4-5.2-8.8-14.8-3.1-22.9c10.9-15.3,21.9-30.6,32.9-45.7c4.5-6.2,11.4-8.4,18-6C101.5,159.7,105.8,165.6,105.8,172.3z"/>
		<path class="st0" d="M551.7,195.8c-14.6,0-28.4-10.6-32.6-26.2c-4.1-15.3,2.5-31.5,16.2-39.6c13.9-8,31.3-6,43,5
			c0.6,0.6,1.5,1.2,1.6,1.9c0.1,5.5-5.2,7.2-7.8,10.8c-1.6,2.2-3.4,1.3-5.2,0c-3.4-2.8-7.5-4.5-11.8-4.8c-7.9-0.5-14.6,3-17.7,9.6
			s-2.5,13.3,2.2,19.3c4.5,5.7,12,7.9,19.4,5.7c2.9-0.8,5.6-2.2,7.9-4.1c2.3-1.9,4.2-1.6,6,0.6c0.7,0.9,1.6,1.7,2.4,2.5
			c6.7,7,6.6,7.4-1.2,12.9C567.8,193.8,561,196,551.7,195.8z"/>
		<path class="st0" d="M611,127.2c7.5,0,15,0.1,22.5,0c3.8-0.1,5.4,1.5,5.3,5.3c-0.3,15.9,1.8,13.3-13,13.3c-4.4,0-5.7,1-5.5,5.5
			c0.3,12.3,0,24.6,0.2,36.9c0.1,4.4-1.5,5.8-5.8,5.7c-14.4-0.3-12.4,1.7-12.5-12.5c-0.1-10.6-0.1-21.3,0-32c0-2.8-0.8-3.9-3.6-3.7
			c-3.3,0.2-6.7-0.1-10,0.1s-4.9-1-4.9-4.6c0.3-16.4-2.1-14,13.4-14.2C601.6,127.1,606.3,127.2,611,127.2z"/>
		<path class="st0" d="M442,161c0,9.2-0.1,18.3,0,27.5c0.1,3.8-1.3,5.6-5.3,5.4c-3.5-0.2-7-0.1-10.5,0s-4.7-1.5-4.7-4.9
			c0.1-19,0.1-38,0-57c0-3.4,1.3-4.9,4.7-4.9s7,0.2,10.5,0c4-0.2,5.3,1.6,5.3,5.4C442,142,442,151.5,442,161z"/>
		<path class="st0" d="M470.1,99.8c0.1,9.2-7.3,16.8-16.5,17.1c-9.1,0.1-16.5-7.1-16.8-16.2c-0.3-9.3,6.9-17.1,16.1-17.5
			C461.8,82.9,470,90.8,470.1,99.8z"/>
		<path class="st0" d="M426.9,99.9c0.3,9.2-6.9,16.8-16,17.1s-16.8-6.9-17.1-16c0-0.2,0-0.5,0-0.7c-0.1-9.3,7.5-17.1,16.6-17.1
			C419.4,83.4,426.7,90.8,426.9,99.9z"/>
		<path class="st0" d="M510.6,162.4c-4-3.9-4.9-6-2.2-11.4c5.6-11.4-4.1-23.4-18.4-23.7c-9.5-0.2-19,0-28.5-0.1c-3.6,0-5,1.3-5,5
			c0.2,9.3,0.1,18.6,0,27.9c0,9.5,0.1,19-0.1,28.4c-0.1,3.9,1.4,5.4,5.2,5.3c10.5-0.1,21,0,31.4-0.1c4.2,0,8.3-1,12-3
			C515.9,184.8,518.9,170.6,510.6,162.4z M474.8,143.4c0.2-0.4,0.6-1.1,0.9-1.1c4.8-0.1,9.7-1.3,14.2,0.9c1.7,0.9,2.5,2.9,2,4.7
			c-0.2,2.1-1.8,3.8-3.9,4c-2,0.1-4,0.2-6,0.1v0.1h-2C475.2,152.2,472.7,148,474.8,143.4L474.8,143.4z M491.9,178.6
			c-2.6,0.2-5.3,0.2-7.9,0.1v0.2c-1.2-0.1-2.3-0.1-3.5,0c-4.8,0.8-6-1.1-6-5.9c-0.1-5.2,1.4-7.1,6.6-6.4c3.4,0.4,7,0,10.4,0.2
			s6,2.3,6.1,6C497.6,176.3,495.2,178.2,491.9,178.6L491.9,178.6z"/>
		<path class="st0" d="M701.6,188c-6.3-16.8-12.5-33.7-18.9-50.5c-4.6-12-2.1-10.3-15.1-10.4c-2.5,0-5,0-7.5,0
			c-2.2-0.2-4.3,1.1-5,3.3c-7.3,19.6-14.7,39.3-22,58.9c-1.1,3,0,4.5,3.2,4.4c2.7-0.2,5.3-0.2,8,0.1c5.5,0.8,8.5-1.4,9.5-6.8
			c0.4-2.3,1-4.4,4.3-4.3c6.3,0.2,12.7,0.1,19,0c2.2,0,3.3,0.8,3.9,2.9c2.7,9.9,3.1,8,11.9,8.1c1.7,0,3.3,0,5,0
			C702.8,193.6,703.4,192.8,701.6,188z M672.7,167.6c-0.3,0-0.7,0-1,0c-11.7,1-11.7,1-8-10.2c1.1-3.4,2.3-6.9,3.8-11.4
			c2.4,7.1,4.5,13.2,6.6,19.3C674.6,166.7,674.4,167.5,672.7,167.6L672.7,167.6z"/>
		<path class="st0" d="M742.9,127.8c-9.6-1.5-19.3-0.2-28.9-0.7c-4.4-0.2-5.8,1.8-5.8,6c0.2,9,0.1,18,0,27c0,7.7,0,15.3,0,23
			c-0.1,11.7-0.5,10.8,10.9,10.7c7.8,0,7.7,0,7.8-7.7c0-4.1-1.3-9.4,0.7-12.1c2.2-2.9,7.8-0.7,11.8-1.1c0.3,0,0.7,0,1,0
			c13.4-0.9,22.4-9.1,23.1-21.1C764.3,139.6,756.1,129.9,742.9,127.8z M738.3,157.7c-1.2,0.1-2.3,0.1-3.5,0c-7.9,0-7.9,0-7.9-7.7
			c0.1-1.2,0.1-2.3,0-3.5c-0.5-3.2,1-4.1,3.9-3.8c2.5,0.2,5,0,7.4,0.2c4.8,0.4,7,2.9,7,7.3S742.7,157.2,738.3,157.7L738.3,157.7z"/>
	</g>
</g>
</svg>
