<svg xmlns="http://www.w3.org/2000/svg" viewBox="0 0 1024 897.85"><title>konti</title><g id="Слой_2" data-name="Слой 2"><g id="Слой_1-2" data-name="Слой 1"><path d="M0,862.53c1.34-8.49,2.71-17,4-25.46C10.52,795,16.2,752.72,23.68,710.8,34.47,650.38,45.8,590,58.28,529.95c19.73-95,43.41-189,75.08-280.82a58,58,0,0,1,9.41-17.34c5.92-7.3,10.71-6.86,16.77.29,9.54,11.25,14.47,24.6,16.8,38.94,2.81,17.25,3.55,34.68-2,51.44-3.82,11.65-9.75,22.59-14.41,34C132,424.61,110.23,494.79,93.1,566.35,83.39,606.92,75.91,648,67.44,688.9a2.72,2.72,0,0,0,.5,2.24c1.37-2.74,2.79-5.46,4.1-8.24,22-46.6,46.22-91.9,75.88-134.12,5.93-8.44,12.7-16.28,18.79-24.62a214.71,214.71,0,0,0,12.4-18.67c15.9-27.35,31.15-55.13,51.22-79.77a215.3,215.3,0,0,1,19.29-20.19c6.77-6.4,14.95-8.64,24.43-7.19,11.36,1.73,22.1,4.86,31.75,11.14,7.63,5,8.36,10.64,2.23,17.38a49.47,49.47,0,0,1-9.29,8.3c-24.47,15.94-43.72,37.38-62.62,59.18-8.4,9.69-16.76,19.44-24.67,29.53-15.34,19.55-23.32,42.41-28.59,66.33-4.34,19.73-5.82,39.54.11,59.26,3.55,11.82,8.86,22.69,18.8,30.57,12.45,9.87,26.08,12,40.66,5.23,13.69-6.35,23.95-16.87,32.62-28.82,7-9.68,13.35-19.9,19.48-30.18,7-11.82,15.73-16,28.87-12,23.71,7.15,45.67,5.05,65.42-11,11.72-9.53,20.41-21.44,27.15-34.8,11.08-22,18.4-45,17.06-70A44.31,44.31,0,0,0,429.69,484c-3.89-9.29-12-12.15-20.31-6.6A69.33,69.33,0,0,0,393,492.53c-13.74,17.85-21.61,38.44-26.13,60.4a60.12,60.12,0,0,0-.61,23.75c1.35,7-1.49,11.85-7.86,15-20.75,10.23-45.06-2-51.27-25.81a55.2,55.2,0,0,1,1.19-33c13.87-38.49,38.18-68.16,76.21-84.72,20.08-8.74,40.64-9.2,59.38,4.39,14.89,10.8,22.29,26.42,24.87,44.08,6.1,41.81-6,78.77-32.09,111.27-19.85,24.73-43.87,44.37-74.7,53.74-12.49,3.8-25.66,5.58-38.62,7.57a36.12,36.12,0,0,0-21.7,11.16c-17.61,18.66-37.91,33.45-62.06,42.58-18.25,6.9-37,10-56.35,6-28.64-5.85-48.63-27-53.07-56-1.46-9.59-1.53-19.39-2.24-29.25-.79,1.25-1.77,2.69-2.63,4.2C102.08,688.48,85.09,731.82,70,775.95,59.22,807.41,48.82,839,37.83,870.38A102.26,102.26,0,0,1,27.38,891.3C22,899.69,14.5,900,8.22,892.24c-3.13-3.89-4.71-9-7-13.6-.49-1-.84-2.07-1.25-3.11Q0,869,0,862.53Z"/><path d="M1024,244.53c-1.8,3.88-3.62,7.75-5.41,11.63-12,26-31.48,46-51.91,65.27C954.4,333,941.36,343.63,926,350.89c-9,4.22-18.27,7.45-28.41,5.91-9.79-1.49-13.84-5.52-12.23-15.17A354.28,354.28,0,0,1,895.26,299a124.17,124.17,0,0,1,20.52-40.82c7.63-9.89,17.86-16.37,29-21.45,2.3-1,6.36-1.65,7.72-.41s1.55,5.33.88,7.79c-2.36,8.65-5.34,17.13-8,25.71-2.4,7.78-4.77,15.58-6.94,23.43-.48,1.73,0,3.71,0,5.58,2.06-.07,4.52.57,6.1-.33,6.47-3.68,13.27-7.14,18.87-11.93,14-12,27.43-24.79,41.23-37.09a83.82,83.82,0,0,1,12.4-9.19c1.81-1.09,4.59-.56,6.93-.77Z"/><path d="M791.52,366c-9.87,14.2-19.4,28.65-29.69,42.54-14.73,19.87-30.76,38.64-52.06,51.93-9.86,6.15-19.86,12.28-31.66,14.23-10.26,1.69-16.32-2.24-18.81-12.29-3.19-12.85-2.33-25.77-.77-38.73.31-2.56,0-5.2,0-9.76-4.11,2.72-7.73,4.17-10,6.78-14.35,16.42-29.15,32.52-42.34,49.84-14.1,18.52-26.67,38.22-39.73,57.52-9.3,13.75-20.76,25.15-35.11,33.5a51.7,51.7,0,0,1-10.45,4.66c-11.21,3.51-20.81-1.55-23.05-13.2-1.38-7.2-1.15-14.91-.43-22.28,4.48-45.46,13.17-90.16,24.7-134.33.8-3.05,1.91-6,2.8-9,5.56-18.93,19.37-28.35,37.65-32.38,9.74-2.15,15.44,1.69,15.11,11.58-.33,9.7-2.65,19.35-4.34,29-3.71,21.13-7.58,42.24-11.34,63.36-.37,2.06-.37,4.18-.54,6.28l1.17.81c6.59-6.43,13.46-12.6,19.71-19.35,23.33-25.16,46.4-50.55,69.67-75.76,8.51-9.22,17.73-17.67,29.44-22.75a50.69,50.69,0,0,1,11.85-3.62c11-1.8,18.66,4,18.32,15.27-.27,8.86-2.75,17.65-4.23,26.47-.94,5.56-2.41,11.1-2.65,16.7-.35,8.1,1.9,9.31,9.07,5.75,9.26-4.6,16.7-11.46,23.45-19.15,19.35-22.07,34.11-47.17,48-72.81A6.67,6.67,0,0,0,785,311c-3.83-5.63-8.13-10.95-12.29-16.35-6.22-8.09-6.56-11.92-.53-20.11,5.32-7.23,10.46-14.86,17-20.85a75.42,75.42,0,0,1,21.9-14.33c13.8-5.59,20.73-14.77,24.42-29.27,15.22-59.9,39-116.29,72.6-168.37C913.86,32.81,920,24.28,929,18.43c3.75-2.43,7.94-5.52,12.42-2.86,4.65,2.77,3.91,7.92,2.58,12.23-5.45,17.6-10.51,35.37-17,52.6a1134.34,1134.34,0,0,1-49.6,113.86c-2.1,4.14-3.76,8.51-5.58,12.8a17.29,17.29,0,0,0-.51,2.74c2.39-1.13,4.13-1.91,5.83-2.75,11.31-5.65,22.6-11.35,33.94-17,6.5-3.21,10.2-1.08,8.76,6a73.47,73.47,0,0,1-7.44,19.85c-4.88,9.06-12.39,16-20.93,21.78-10.88,7.39-21.75,14.81-32.47,22.44a12.88,12.88,0,0,0-4.35,5.68c-11.09,29.87-19.87,60.37-23.32,92.15-1.33,12.23-1.51,24.57-2.25,36.86a17.39,17.39,0,0,1-9,14.69,121.44,121.44,0,0,1-15,7.76c-8.82,3.59-14.61,0-14.76-9.64s.85-19.27,1.37-28.9c.23-4.24.51-8.48.76-12.72Z"/><path d="M427.12,89.37c5,0,10-.13,15,0,12.18.37,22.05,5.58,28.47,15.82a1007.32,1007.32,0,0,1,64.15,118.4,15.56,15.56,0,0,1,1.26,4.28c.75,5.56-1.35,8.36-6.87,7.41a184.48,184.48,0,0,1-23.64-6C469,217.9,432.69,206,396.14,194.81c-17.69-5.41-26.39-17.61-27.78-35a463.23,463.23,0,0,1-1-47.28c.25-10.78,7.41-18.14,18.52-19.7,13.65-1.93,27.42-2.95,41.14-4.36Z"/><path d="M474.49,248.81c15.31,0,30.62-.14,45.93.1,3.94.06,9.74-.63,10.4,4.41.38,2.89-2.92,7.32-5.77,9.43-24.09,17.82-48.25,35.57-72.82,52.71-16.37,11.42-33.51,21.74-50.22,32.68-25.09,16.43-47,14.58-77.23-2.84-9.79-5.63-12.74-15.6-7.09-24.5,15.06-23.71,32.19-45.81,56.26-61.32,10.16-6.55,21.68-9.27,33.67-9.75,22.29-.89,44.58-1.59,66.87-2.36Z"/><path d="M554.09,224.73c-1-2.65-2.37-5.22-2.82-7.95-5.3-31.66-10.7-63.3-15.57-95-2.65-17.26-4.51-34.65-6.42-52C528,58.45,531,48,538.52,39.53,548.58,28.23,559.4,17.59,570,6.8a25.52,25.52,0,0,1,6.88-4.9c5.32-2.59,11.11-3,15.27,1.6C604.36,16.87,615.64,31.06,618,49.76a40.14,40.14,0,0,1-2,18.08c-16.92,46.56-34.29,93-51.55,139.39-1.39,3.74-2.82,7.47-4.53,11.07a59.39,59.39,0,0,1-4.09,6.46Z"/><path d="M574.82,228.82a33,33,0,0,1,2-5.35q36.61-64.16,73.35-128.25c1.9-3.32,4.36-6.32,6.18-9.68,8.23-15.11,21.94-20.62,38-21.74,7-.49,14-.49,21-.38,8.27.13,11.85,3.89,11.86,12a125.33,125.33,0,0,1-5.88,38.31,38.27,38.27,0,0,1-14,19.5Q644.86,180,582.37,226.52a55.59,55.59,0,0,1-6.24,3.54Z"/><path d="M581.54,245.71c3.25-2.3,5.06-4,7.19-5Q648.22,211.28,707.79,182c5.63-2.76,11.51-2.68,16.59,1.11,8.23,6.15,16.66,12.18,24,19.3,6.22,6,5.69,11.84.45,18.77a128.08,128.08,0,0,1-39,34.59,36.26,36.26,0,0,1-19,4.38c-34.22-2-68.41-4.81-102-12A73.77,73.77,0,0,1,581.54,245.71Z"/><path d="M958.2,197.05c-7.61-.35-12.9-3-16.51-8.64a8.25,8.25,0,0,1,.42-10.22,15.48,15.48,0,0,1,4.3-4.09A117.55,117.55,0,0,1,986,159.74c6.89-1.1,8.1.72,4.93,6.79a70.17,70.17,0,0,1-25.83,27.79C962.74,195.76,959.9,196.4,958.2,197.05Z"/></g></g></svg>