<?xml version="1.0" encoding="utf-8"?>
<!-- Generator: Adobe Illustrator 21.0.2, SVG Export Plug-In . SVG Version: 6.00 Build 0)  -->
<svg version="1.1" id="Nissan_Logo" xmlns="http://www.w3.org/2000/svg" xmlns:xlink="http://www.w3.org/1999/xlink" x="0px"
	 y="0px" viewBox="0 0 210 181" style="enable-background:new 0 0 210 181;" xml:space="preserve">
<style type="text/css">
	.st0{fill:url(#SVGID_1_);}
	.st1{fill:url(#SVGID_2_);}
	.st2{fill:url(#SVGID_3_);}
	.st3{fill:#FFFFFF;}
	.st4{fill:url(#SVGID_4_);}
	.st5{fill:#8C8C8C;}
	.st6{fill:#4D4D4D;}
	.st7{fill:#252525;}
	.st8{fill:url(#SVGID_5_);}
	.st9{fill:url(#SVGID_6_);}
</style>
<title>Nissan Logo</title>
<desc>Für mehr Informationen siehe: http://de.wikipedia.org/wiki/Datei:Nissan_Logo.svg</desc>
<radialGradient id="SVGID_1_" cx="246.4561" cy="-273.4331" r="139.4622" gradientTransform="matrix(1 0 0 -1 -197.6 -302.99)" gradientUnits="userSpaceOnUse">
	<stop  offset="0.2022" style="stop-color:#FFFFFF"/>
	<stop  offset="0.3822" style="stop-color:#FDFDFD"/>
	<stop  offset="0.4874" style="stop-color:#F4F4F4"/>
	<stop  offset="0.5732" style="stop-color:#E6E6E6"/>
	<stop  offset="0.6483" style="stop-color:#D2D2D2"/>
	<stop  offset="0.6889" style="stop-color:#C4C4C4"/>
	<stop  offset="1" style="stop-color:#333333"/>
</radialGradient>
<path class="st0" d="M33,70.9c8.8-30.7,37.8-53.2,72.3-53.2c34.3,0,63.3,22.4,72.2,53c0,0.1,0,0.2,0.1,0.3c5.1-0.6,9.7-1.5,12.9-2.3
	c-0.1-0.2-0.1-0.2-0.1-0.4C180.3,31.7,146,4.9,105.3,4.9c-40.8,0-75.2,27-85.2,63.6C24.6,69.7,27.9,70.2,33,70.9z"/>
<radialGradient id="SVGID_2_" cx="583.9678" cy="-496.8145" r="290.4512" gradientTransform="matrix(1 0 0 -1 -197.6 -302.99)" gradientUnits="userSpaceOnUse">
	<stop  offset="0.2022" style="stop-color:#FFFFFF"/>
	<stop  offset="0.368" style="stop-color:#E4E4E4"/>
	<stop  offset="0.5944" style="stop-color:#C4C4C4"/>
	<stop  offset="1" style="stop-color:#333333"/>
</radialGradient>
<path class="st1" d="M177.3,111.1c-0.1,0.3-0.2,0.6-0.2,0.7c-9.4,29.9-38,51.6-71.8,51.6c-34.1,0-62.8-22-72-52.3
	c-5.6,1-7.5,1.4-13,2.1c10.3,36.3,44.4,62.9,85,62.9s74.8-26.7,85-63C185.4,112.6,182.6,112.1,177.3,111.1z"/>
<radialGradient id="SVGID_3_" cx="279.9551" cy="-432.7188" r="89.1694" gradientTransform="matrix(1 0 0 -1 -197.6 -302.99)" gradientUnits="userSpaceOnUse">
	<stop  offset="0.2022" style="stop-color:#FFFFFF"/>
	<stop  offset="0.368" style="stop-color:#E4E4E4"/>
	<stop  offset="0.5944" style="stop-color:#C4C4C4"/>
	<stop  offset="1" style="stop-color:#333333"/>
</radialGradient>
<path class="st2" d="M34.9,70.8c2.1-0.9,4.2-2.3,7.4-3.2c9.6-24.8,34.2-42.5,63.1-42.5c28.8,0,53.4,17.6,63,42.3
	c0,0.1,0.1,0.2,0.1,0.2c1.7,0.6,6.5,2.5,8,3.2c0.2,0,0.7,0,1.1,0c0-0.1-0.1-0.2-0.1-0.3c-8.9-30.6-37.9-53-72.2-53
	C70.9,17.5,41.9,40,33,70.7C33.6,70.9,34.5,70.8,34.9,70.8z"/>
<path class="st3" d="M104.8,19.7c32.2,0,60.8,19.2,71.6,50.9c0,0.1,0.1,0.2,0.1,0.3c0.2,0,0.8,0,1.1,0c0-0.1-0.1-0.2-0.1-0.3
	c-8.9-30.6-37.9-53-72.2-53c-34.4,0-63.4,22.5-72.3,53.2c0.7,0,1,0,1.8-0.1C44.5,40.7,72.8,19.7,104.8,19.7z"/>
<radialGradient id="SVGID_4_" cx="351.9121" cy="-523.8975" r="169.193" gradientTransform="matrix(1 0 0 -1 -197.6 -302.99)" gradientUnits="userSpaceOnUse">
	<stop  offset="0.2022" style="stop-color:#FFFFFF"/>
	<stop  offset="0.368" style="stop-color:#E4E4E4"/>
	<stop  offset="0.5944" style="stop-color:#C4C4C4"/>
	<stop  offset="1" style="stop-color:#333333"/>
</radialGradient>
<path class="st4" d="M175.5,111.2c-2.3,1.3-5.2,2.5-7.5,3.3c0,0.1-0.2,0.4-0.2,0.5c-10,24-34.2,41-62.5,41
	c-28.5,0-52.8-17.2-62.7-41.4c-2.7-0.7-6.6-2.5-8.1-3.3c-0.6,0-0.9,0-1.2-0.1c9.2,30.2,37.9,52.3,72,52.3
	c33.9,0,62.6-21.8,71.8-51.8c0-0.1,0.1-0.4,0.1-0.4C176.8,111.1,175.9,111.2,175.5,111.2z"/>
<path class="st3" d="M175.5,111.2c-10,29.5-38,50.1-69.6,50.1c-32,0-60.3-18.9-71.3-50.1c-0.4,0-0.8,0-1.2-0.1
	c9.2,30.2,37.9,52.3,72,52.3s62.8-22.1,72-52.3C176.7,111.1,176.1,111.2,175.5,111.2z"/>
<path class="st5" d="M175.5,111.2L175.5,111.2c-2.4,1.3-5.3,2.5-7.6,3.3c0,0.1-0.2,0.4-0.2,0.5c-3.2,7.6-7.7,14.5-13.4,20.4
	C163.3,128.8,170.5,120.6,175.5,111.2z"/>
<path class="st6" d="M58.2,137.2c-6.7-6.4-12-14.1-15.5-22.7c-2.7-0.7-6.6-2.5-8.1-3.3c1.6,3.4,3.5,6.5,5.6,9.5
	c4.4,5.7,9.8,10.9,15.8,15.2C56.7,136.3,57.5,136.8,58.2,137.2z"/>
<path class="st7" d="M33.3,111.1L33.3,111.1L33.3,111.1c-5.6,1-7.5,1.4-13,2.1c0.4,1.6,0.9,3.1,1.5,4.7L33.3,111.1z"/>
<g>
	<linearGradient id="SVGID_5_" gradientUnits="userSpaceOnUse" x1="138.85" y1="102.3345" x2="138.85" y2="79.6542">
		<stop  offset="0.1944" style="stop-color:#FFFFFF"/>
		<stop  offset="0.2085" style="stop-color:#F8F8F8"/>
		<stop  offset="0.3657" style="stop-color:#AEAEAE"/>
		<stop  offset="0.5133" style="stop-color:#707070"/>
		<stop  offset="0.6468" style="stop-color:#404040"/>
		<stop  offset="0.7637" style="stop-color:#1D1D1D"/>
		<stop  offset="0.8595" style="stop-color:#080808"/>
		<stop  offset="0.9222" style="stop-color:#000000"/>
	</linearGradient>
	<path class="st8" d="M139.6,84.7c-0.1-0.1-0.4-0.1-0.6-0.1c-0.3,0-0.6,0-0.7,0.1c-0.3,0-0.5,0.1-0.6,0.3c0,0.1-1.6,3.9-3.3,7.8h8.9
		c-1.3-3.3-2.8-6.6-3.2-7.7C140,84.8,139.8,84.7,139.6,84.7z"/>
	<linearGradient id="SVGID_6_" gradientUnits="userSpaceOnUse" x1="105.0001" y1="175.0022" x2="104.9999" y2="35.6015">
		<stop  offset="0.1944" style="stop-color:#FFFFFF"/>
		<stop  offset="0.2085" style="stop-color:#F8F8F8"/>
		<stop  offset="0.3657" style="stop-color:#AEAEAE"/>
		<stop  offset="0.5133" style="stop-color:#707070"/>
		<stop  offset="0.6468" style="stop-color:#404040"/>
		<stop  offset="0.7637" style="stop-color:#1D1D1D"/>
		<stop  offset="0.8595" style="stop-color:#080808"/>
		<stop  offset="0.9222" style="stop-color:#000000"/>
	</linearGradient>
	<path class="st9" d="M198.1,69.8c-1.8-0.5-3.9-0.8-8.2-1.3c-18-0.8-62.3-2.5-84.9-2.5s-66.9,1.7-84.9,2.5c-4.3,0.5-6.4,0.8-8.2,1.3
		C6.2,71.1,5,73.1,5,77.2v27.7c0,4,4.3,6.8,7.3,7.3c3,0.6,4.9,0.8,8,1.1c16,1,53.3,3.1,84.7,3.1s68.6-2.1,84.7-3.1
		c3.1-0.3,5-0.5,8-1.1c3-0.5,7.3-3.3,7.3-7.3V77.2C205,73.1,203.8,71.1,198.1,69.8z M53.5,101.2c0,0.6-0.1,0.7-0.7,0.7h-6
		c-3.5,0-3.8,0-5-2C39.4,96.1,32,84.8,32,84.8v16.4c0,0.6-0.1,0.7-0.7,0.7h-4.4c-0.6,0-0.7-0.1-0.7-0.7V80.3c0-0.5,0.1-0.7,0.7-0.7
		c0,0,1.2,0,5.1,0c3.8,0,4.3-0.1,5.7,1.9c1.1,1.8,10,15.5,10,15.5V80.3c0-0.5,0.1-0.7,0.7-0.7h4.4c0.6,0,0.7,0.2,0.7,0.7V101.2z
		 M64.3,101c0,0.5-0.1,0.7-0.7,0.7h-5.1c-0.6,0-0.7-0.1-0.7-0.7V80c0-0.4,0.1-0.6,0.5-0.6h5.4c0.5,0,0.6,0.2,0.6,0.6V101z
		 M93.7,97.7c-0.7,3.5-3.3,4.2-7.5,4.2H69.7c-0.6,0-0.7-0.1-0.7-0.7v-3.5c0-0.6,0.1-0.7,0.7-0.7c0,0,16.4,0,16.7,0
		c0.7,0,0.9-0.2,1-0.7c0-0.4,0-0.6,0-0.9c0-0.3,0-0.5,0-0.6c-0.1-0.4-0.2-1-1.1-1.1c-1.9-0.1-7.4-0.6-11.1-1c-4.8-0.5-6-2.5-6.2-4.3
		c-0.1-0.6-0.1-1.4-0.1-2.1c0-0.6,0-1.5,0.1-2.2c0.7-3.1,3-4.6,7.2-4.6h16c0.6,0,0.8,0.1,0.8,0.6v3.6c0,0.5-0.2,0.7-0.8,0.6
		c0,0-15.3,0-15.7,0c-0.7,0-1,0.3-1.1,1c0,0.1,0,0.2,0,0.4s0,0.3,0,0.5c0,0.5,0.3,0.9,1,1c1.8,0.3,7.6,0.7,9.8,0.9
		c3.9,0.4,6.8,1.1,7.6,4.8c0,0.3,0.1,1.3,0.1,2.4C93.9,96,93.9,96.9,93.7,97.7z M122,97.7c-0.7,3.5-3.3,4.2-7.5,4.2H98.1
		c-0.6,0-0.7-0.1-0.7-0.7v-3.5c0-0.6,0.1-0.7,0.7-0.7c0,0,16.4,0,16.7,0c0.7,0,0.9-0.2,1-0.7c0-0.4,0-0.6,0-0.9c0-0.3,0-0.5,0-0.6
		c-0.1-0.4-0.3-1-1.1-1.1c-1.9-0.1-7.4-0.6-11.1-1c-4.8-0.5-5.9-2.5-6.2-4.3c-0.1-0.6-0.1-1.4-0.1-2.1c0-0.6,0-1.5,0.1-2.2
		c0.7-3.1,3-4.6,7.2-4.6h16c0.6,0,0.8,0.1,0.8,0.6v3.6c0,0.5-0.2,0.7-0.8,0.6c0,0-15.3,0-15.7,0c-0.7,0-1,0.3-1.1,1
		c0,0.1,0,0.2,0,0.4s0,0.3,0,0.5c0,0.5,0.2,0.9,1,1c1.8,0.3,7.6,0.7,9.7,0.9c3.9,0.4,6.8,1.1,7.6,4.8c0,0.3,0.1,1.3,0.1,2.4
		C122.2,96,122.2,96.9,122,97.7z M153.2,101.9h-5.5c-0.3,0-0.6-0.1-0.7-0.4c0-0.1-0.7-1.7-1.7-4h-12.9c-1,2.3-1.8,4-1.8,4
		c-0.1,0.2-0.3,0.4-0.7,0.4h-5.3c-0.8,0-1.1,0-0.6-1l0.1-0.2c2.5-5.5,8.4-18.7,8.4-18.7c1.2-2.5,0.6-2.3,4-2.3
		c0.9-0.1,1.1-0.1,2.2-0.1s1.9,0,2.2,0.1c3.6,0.1,3-0.3,4.7,3.4c0.9,2.1,7.3,15.8,8.3,18.2C154.2,102,154,101.9,153.2,101.9z
		 M184.5,101.2c0,0.6-0.1,0.7-0.7,0.7h-6c-3.5,0-3.8,0-5-2c-2.5-3.8-9.8-15.1-9.8-15.1v16.4c0,0.6-0.1,0.7-0.7,0.7h-4.4
		c-0.6,0-0.7-0.1-0.7-0.7V80.3c0-0.5,0.1-0.7,0.7-0.7c0,0,1.2,0,5.1,0c3.8,0,4.3-0.1,5.7,1.9c1.2,1.8,10,15.5,10,15.5V80.3
		c0-0.5,0.1-0.7,0.7-0.7h4.4c0.6,0,0.7,0.2,0.7,0.7V101.2z"/>
</g>
</svg>
