<svg xmlns="http://www.w3.org/2000/svg" viewBox="0 0 55.88 55.37"><title>pumb_logo</title><g id="Слой_2" data-name="Слой 2"><g id="Nissan_Logo" data-name="Nissan Logo"><path d="M54.66,19.6A28,28,0,0,0,.11,30.11a26.87,26.87,0,0,0,2.43,9.1A28,28,0,0,0,55.88,27.68,26.51,26.51,0,0,0,54.66,19.6ZM15.24,31.92c0,.8.1.91.89,1,.15.52.11.58-.41.58-1,0-2,0-3.07,0-.46,0-.55-.18-.42-.57.87-.14,1-.26,1-1.14,0-2.5,0-5,0-7.51,0-.44-.1-.61-.57-.59-1.13,0-2.27,0-3.4,0l-.48,0c0,.17,0,.31,0,.45q0,3.9,0,7.79c0,.65.12.78.75.92a.39.39,0,0,1,.24.29c0,.11-.16.29-.25.29-1.16,0-2.33,0-3.49,0-.41,0-.28-.31-.24-.55.89-.15,1-.24,1-1.14q0-3.78,0-7.56c0-.67-.11-.79-.77-.95A.4.4,0,0,1,5.7,23a.51.51,0,0,1,.22-.33c.07-.05.21,0,.32,0h9.4c.6,0,.61,0,.52.61-.9.21-.93.24-.93,1.19Q15.24,28.19,15.24,31.92Zm22.49,0c0,.82.11.95.91,1.06.13.52.1.57-.38.57-1,0-2,0-3.07,0-.45,0-.56-.17-.44-.56.89-.17,1-.25,1-1.14,0-2.08,0-4.16,0-6.36-.11.21-.18.32-.23.43-1.1,2.42-2.18,4.84-3.29,7.26a2.1,2.1,0,0,1-.4.45,2.13,2.13,0,0,1-.39-.46c-1.05-2.4-2.09-4.81-3.14-7.22-.06-.14-.13-.27-.19-.4l-.09,0v.83q0,2.76,0,5.53c0,.86.08.95.9,1.05.13.53.1.57-.42.58-.69,0-1.39,0-2.08,0-.45,0-.57-.16-.43-.56.91-.17,1-.24,1-1.18q0-3.75,0-7.51c0-.33,0-.69-.36-.85a.82.82,0,0,0-1,.29,3.62,3.62,0,0,0-.53.82c-1.19,2.58-2.37,5.17-3.56,7.76A2,2,0,0,1,19,33.51a.4.4,0,0,1-.17-.07,2.1,2.1,0,0,1-.1-1.37c.25.15.5.31.76.45.41.22.63.14.85-.25a1.65,1.65,0,0,0,.05-1.78c-1-1.93-1.92-3.92-2.88-5.89-.26-.53-.5-1.09-1.16-1.3-.09,0-.16-.26-.15-.39a.37.37,0,0,1,.26-.25c1.05,0,2.11,0,3.16,0,.44,0,.26.36.25.62l-.53.09a2.11,2.11,0,0,0,.09.55c.76,1.64,1.53,3.27,2.3,4.91,0,0,0,0,.1.07s.12-.21.17-.32q1-2.16,2-4.33c.16-.34.36-.7-.18-.94-.09,0-.11-.31-.09-.46s.2-.19.31-.19c1.51,0,3,0,4.53,0,.15,0,.37.22.44.38,1,2.18,2,4.37,3,6.56l.28.6c.11-.21.18-.35.25-.5,1-2.2,2-4.41,3-6.62a.64.64,0,0,1,.71-.46c.63,0,1.26,0,1.89,0s.61,0,.5.62c-.86.17-.93.25-.93,1.14Q37.73,28.15,37.73,31.88Zm11.43-.76a4.78,4.78,0,0,1-8.62-.57,10.83,10.83,0,0,1-.62-2.88,13.67,13.67,0,0,1,.44-5.28,5,5,0,0,1,3.17-3.66A5.67,5.67,0,0,1,45,18.48c.91,0,1.83,0,2.74,0a1.42,1.42,0,0,0,1.33-.54c.07-.1.29-.1.53-.17a2.13,2.13,0,0,1-1.19,2.11,8.47,8.47,0,0,1-2,.51,10.23,10.23,0,0,1-1.56,0,3.19,3.19,0,0,0-3.19,2.12,7.4,7.4,0,0,0-.43,3.76A9.46,9.46,0,0,0,43,31.08a4,4,0,0,0,1.08,1,2,2,0,0,0,3-.89,6.6,6.6,0,0,0,.56-3.59,6.11,6.11,0,0,0-.83-2.73,2.29,2.29,0,0,0-2.57-1.14,2,2,0,0,0-1.5,1.48,8.94,8.94,0,0,0-.22,1.53c0,.25,0,.42-.36.41s-.47,0-.44-.38A10.58,10.58,0,0,1,41.9,25a3.4,3.4,0,0,1,4.17-2.39,4.55,4.55,0,0,1,3.6,3.23A6.39,6.39,0,0,1,49.17,31.13Z"/></g></g></svg>