<?xml version="1.0" encoding="utf-8"?>
<!-- Generator: Adobe Illustrator 21.0.2, SVG Export Plug-In . SVG Version: 6.00 Build 0)  -->
<svg version="1.1" id="Слой_1" xmlns="http://www.w3.org/2000/svg" xmlns:xlink="http://www.w3.org/1999/xlink" x="0px" y="0px"
	 viewBox="0 0 1920 620.9" style="enable-background:new 0 0 1920 620.9;" xml:space="preserve">
<g>
	<g>
		<path d="M728.5,11.8c-9.7,22.1-18.5,44.1-27.3,65.3c-72.3,172.9-144.7,345.8-217,519.6c-3.5,7.9-7.1,10.6-15.9,9.7
			c-47.6,0-94.4,0-142,0c-7.9,0-10.6-2.6-12.4-9.7c-40.6-157-81.2-313.2-121.7-470.2c-6.2-22.9-18.5-39.7-40.6-49.4
			C107.4,55.9,59.8,42.7,12.2,31.2c-2.6-0.9-4.4-1.8-7.1-1.8c1.8-16.8,1.8-16.8,16.8-16.8c80.3,0,160.6,0,241.7,0
			c44.1,0,69.7,21.2,77.6,64.4c20.3,108.5,40.6,217,61.8,326.4c0.9,3.5,1.8,7.1,2.6,12.4c2.6-5.3,4.4-9.7,6.2-13.2
			c50.3-127,100.6-253.2,150-380.2c3.5-7.9,7.1-10.6,15-10.6c45.9,0.9,92.6,0,138.5,0C719.7,10.9,723.2,10.9,728.5,11.8z"/>
		<path d="M927,584.3c9.7-44.1,18.5-86.5,28.2-130.6c10.6,4.4,21.2,9.7,30.9,13.2c51.2,21.2,104.1,30,157.9,19.4
			c15-2.6,30.9-10.6,43.2-19.4c22.9-16.8,24.7-47.6,3.5-66.2c-15.9-14.1-35.3-24.7-53.8-36.2c-28.2-17.6-58.2-31.8-84.7-51.2
			c-86.5-64.4-71.5-162.3-26.5-221.4c34.4-45,82.9-69.7,136.7-82c75.9-17.6,150.9-11.5,225,14.1c1.8,0.9,3.5,1.8,7.1,2.6
			c-8.8,41.5-17.6,82-26.5,125.3c-4.4-1.8-8.8-3.5-12.4-5.3c-47.6-18.5-96.2-28.2-146.4-19.4c-14.1,2.6-28.2,8.8-39.7,16.8
			c-24.7,16.8-24.7,45-1.8,63.5c18.5,14.1,39.7,24.7,60,37.1c26.5,16.8,54.7,30.9,79.4,49.4c53.8,41.5,69.7,97,53.8,162.3
			c-16.8,69.7-64.4,111.2-128.8,136.7c-57.3,22.1-116.4,25.6-177.3,20.3c-37.9-3.5-75-9.7-110.3-22.1C939.3,588.7,934,587,927,584.3
			z"/>
		<path d="M667.6,605.5c4.4-22.1,8.8-42.3,13.2-62.6c37.1-173.8,75-348.5,112-522.2c0.9-5.3,1.8-9.7,9.7-9.7c46.8,0,93.5,0,139.4,0
			c1.8,0,3.5,0.9,6.2,0.9c-4.4,19.4-7.9,37.9-11.5,57.3c-37.1,174.7-75,349.3-112,524c-2.6,10.6-6.2,14.1-16.8,14.1
			c-42.3-0.9-84.7,0-127,0C676.4,605.5,672.9,605.5,667.6,605.5z"/>
		<path d="M1908.8,591.4c-40.6-190.5-80.3-381.1-120-572.5c-1.8-7.1-3.5-9.7-11.5-9.7c-38.8,0-78.5,0-117.3,0
			c-36.2,0-58.2,15.9-72.3,48.5c-68.8,164.1-137.6,329.1-206.4,493.1c-7.9,17.6-15,35.3-22.1,52.9c1.8,0.9,1.8,0.9,2.6,0.9
			c51.2,0,101.4,0,151.7,0c2.6,0,7.9-3.5,8.8-7.1c8.8-23.8,17.6-47.6,25.6-71.5c2.6-7.1,6.2-9.7,14.1-9.7c58.2,0,116.4,0.9,174.7,0
			c9.7,0,13.2,2.6,15,12.4c4.4,25.6,10.6,51.2,15.9,76.7c47.6,0,94.4,0,142,0C1908.8,601.1,1908.8,597.6,1908.8,591.4z
			 M1596.5,394.7c-0.3,0-0.6,0-0.9,0c26.5-74.1,52.9-146.4,79.4-218.8c0.3,0,0.6,0,0.9,0c0.6,0,1.2,0,1.8,0c0.3,0,0.6,0,0.9,0
			c15,72.3,30,144.7,45,218.8C1680.6,394.7,1640.3,394.7,1596.5,394.7z"/>
	</g>
</g>
</svg>
