<?xml version="1.0" standalone="no"?>
<!DOCTYPE svg PUBLIC "-//W3C//DTD SVG 1.1//EN" "http://www.w3.org/Graphics/SVG/1.1/DTD/svg11.dtd" >
<svg xmlns="http://www.w3.org/2000/svg" xmlns:xlink="http://www.w3.org/1999/xlink" version="1.1">
<metadata>
Created by FontForge 20170910 at Fri Nov 25 21:44:46 2011
 By Jimmy Wärting
Copyright (c) 2011 by AndrijType. All rights reserved.
</metadata>
<defs>
<font id="BanderaPro" horiz-adv-x="467" >
  <font-face 
    font-family="Bandera Pro"
    font-weight="400"
    font-stretch="normal"
    units-per-em="1000"
    panose-1="2 6 5 4 4 2 0 2 0 4"
    ascent="750"
    descent="-250"
    x-height="500"
    cap-height="650"
    bbox="-70 -297 1804 944"
    underline-thickness="30"
    underline-position="-120"
    stemh="54"
    stemv="84"
    unicode-range="U+0020-FB06"
  />
<missing-glyph horiz-adv-x="619" 
d="M344 102h-65v188h-185v61h185v187h65v-187h182v-61h-182v-188zM136 440l-54 54l56 56l54 -54zM483 91l-54 54l56 56l54 -54zM485 440l-56 56l54 53l56 -55zM138 91l-56 56l54 53l56 -55z" />
    <glyph glyph-name="arrowleft" unicode="&#x3c;&#x2d;&#x2d;" horiz-adv-x="731" 
d="M415 466l-213 -161l477 2v-58l-476 1l212 -160l-35 -44l-300 232l300 232z" />
    <glyph glyph-name="arrowright" unicode="&#x2d;&#x2d;&#x3e;" horiz-adv-x="709" 
d="M653 278l-300 -232l-35 44l210 160l-474 -1v58l475 -2l-211 161l35 44z" />
    <glyph glyph-name="ff" unicode="ff" horiz-adv-x="678" 
d="M720 614h-57l-5 58c-10 12 -32 31 -67 31c-62 0 -85 -30 -85 -130v-73h171v-63h-171v-379l60 -2l-4 -56h-192l-4 60l60 2v375h-237v-378l60 -3v-56h-196l-4 60l60 3v374h-61v60l61 3v71c0 125 42 192 179 192c48 0 133 -25 176 -39c24 26 59 39 109 39
c42 0 74 -19 92 -33l8 24h47v-140zM189 563v-63h237v81c0 37 3 67 11 93c-40 12 -98 28 -132 28c-91 0 -116 -39 -116 -139z" />
    <glyph glyph-name="fi" unicode="fi" horiz-adv-x="629" 
d="M249 0h-196l-4 60l60 3v374h-61v60l61 3v71c0 125 42 192 179 192c41 0 110 -19 156 -33l5 24h63v-148h-64l-5 66c-40 12 -103 30 -138 30c-91 0 -116 -39 -116 -139v-63h171v-63h-171v-378l60 -3v-56zM592 0h-192l-4 60l60 3v374l-59 3l3 60h136v-441l60 -3z" />
    <glyph glyph-name="fl" unicode="fl" horiz-adv-x="632" 
d="M249 0h-196l-4 60l60 3v374h-61v60l61 3v71c0 125 42 192 179 192c45 0 126 -23 171 -37v24h81v-691l60 -3l-4 -56h-193l-4 60l60 2v605c-36 11 -114 35 -154 35c-91 0 -116 -39 -116 -139v-63h171v-63h-171v-378l60 -3v-56z" />
    <glyph glyph-name="ffi" unicode="ffi" horiz-adv-x="946" 
d="M249 0h-196l-4 60l60 3v374h-61v60l61 3v71c0 125 42 192 179 192c51 0 144 -28 184 -41c28 27 70 41 133 41c41 0 110 -19 156 -33l5 24h64v-148h-65l-5 66c-39 12 -102 30 -137 30c-91 0 -116 -39 -116 -139v-63h171v-63h-171v-378l60 -3v-56h-197l-3 60l59 3v374h-237
v-378l60 -3v-56zM189 563v-63h237v71c0 40 4 74 14 102c-40 12 -100 29 -135 29c-91 0 -116 -39 -116 -139zM909 0h-192l-4 60l60 3v374l-59 3l3 60h136v-441l60 -3z" />
    <glyph glyph-name="ffl" unicode="ffl" horiz-adv-x="942" 
d="M249 0h-196l-4 60l60 3v374h-61v60l61 3v71c0 125 42 192 179 192c51 0 144 -28 184 -41c28 27 70 41 133 41c43 0 118 -21 164 -35v22h80v-691l60 -3l-4 -56h-192l-4 60l60 2v608c-38 12 -108 32 -146 32c-91 0 -116 -39 -116 -139v-63h171v-63h-171v-378l60 -3v-56
h-197l-3 60l59 3v374h-237v-378l60 -3v-56zM189 563v-63h237v71c0 40 4 74 14 102c-40 12 -100 29 -135 29c-91 0 -116 -39 -116 -139z" />
    <glyph glyph-name="ft" unicode="ft" horiz-adv-x="684" 
d="M650 437h-152v-285c0 -68 19 -99 67 -99c30 0 77 8 77 8v-54s-44 -15 -102 -15c-82 0 -122 39 -122 142v303h-229v-379l60 -2l-4 -56h-192l-4 60l60 2v375h-61v60l61 3v81c0 125 42 182 132 182c35 0 67 -18 87 -33l7 24h47v-133h-58l-2 55c-10 11 -29 27 -59 27
c-52 0 -74 -26 -74 -130v-73h229l9 150h71v-150h152v-63z" />
    <glyph glyph-name="tt" unicode="tt" horiz-adv-x="668" 
d="M634 437h-152v-285c0 -68 19 -99 67 -99c30 0 77 8 77 8v-54s-44 -15 -102 -15c-82 0 -122 39 -122 142v303h-221v-285c0 -68 19 -99 67 -99c30 0 77 8 77 8v-54s-44 -15 -102 -15c-82 0 -122 39 -122 142v303h-61v60l61 2l9 151h71v-150h221l9 150h71v-150h152v-63z" />
    <glyph glyph-name="afii10056_afii10056" unicode="&#x407;&#x407;" horiz-adv-x="665" 
d="M272 750c-9 -7 -19 -10 -30 -10s-21 3 -29 10c-9 8 -13 18 -13 29s4 22 13 30c8 6 18 10 29 10s21 -4 30 -10c8 -8 12 -19 12 -30s-4 -21 -12 -29zM104 750c-8 -7 -19 -10 -29 -10c-11 0 -21 3 -29 10c-9 8 -13 18 -13 29s4 22 13 30c8 6 18 10 29 10c10 0 21 -4 29 -10
c8 -8 13 -19 13 -30s-5 -21 -13 -29zM612 750c-9 -7 -19 -10 -30 -10s-21 3 -29 10c-9 8 -13 18 -13 29s4 22 13 30c8 6 18 10 29 10s21 -4 30 -10c8 -8 12 -19 12 -30s-4 -21 -12 -29zM444 750c-8 -7 -19 -10 -29 -10c-11 0 -21 3 -29 10c-9 8 -13 18 -13 29s4 22 13 30
c8 6 18 10 29 10c10 0 21 -4 29 -10c8 -8 13 -19 13 -30s-5 -21 -13 -29zM282 0h-236l-4 60l80 3v528l-81 3l4 56h239v-60l-78 -3v-528l80 -3zM618 0h-236l-4 60l80 3v528l-81 3l4 56h239v-60l-78 -3v-528l80 -3z" />
    <glyph glyph-name="quoteright_afii10104" unicode="&#x27;&#x457;" horiz-adv-x="344" 
d="M33 492l-29 26c52 39 93 108 97 155c-8 1 -17 4 -23 10c-9 8 -14 18 -14 29s5 22 14 30c8 7 19 10 30 10s22 -3 31 -10c2 -2 4 -4 5 -6c1 -1 2 -2 2 -3c3 -5 5 -9 6 -14c15 -59 -48 -177 -119 -227zM326 614c-9 -7 -19 -10 -30 -10s-22 3 -30 10c-9 8 -13 19 -13 30
s4 23 13 31c8 6 19 10 30 10s21 -4 30 -10c8 -8 13 -20 13 -31s-5 -22 -13 -30zM308 0h-192l-4 60l60 3v374l-59 3l3 60h136v-441l60 -3z" />
    <glyph glyph-name="afii10104_afii10104" unicode="&#x457;&#x457;" horiz-adv-x="554" 
d="M223 614c-9 -7 -19 -10 -30 -10s-22 3 -30 10c-9 8 -13 19 -13 30s4 23 13 31c8 6 19 10 30 10s21 -4 30 -10c8 -8 13 -20 13 -31s-5 -22 -13 -30zM69 614c-8 -7 -19 -10 -30 -10s-21 3 -29 10c-9 8 -13 19 -13 30s4 23 13 31c8 6 18 10 29 10s22 -4 30 -10
c8 -8 13 -20 13 -31s-5 -22 -13 -30zM527 614c-9 -7 -19 -10 -30 -10s-22 3 -30 10c-8 8 -12 19 -12 30s4 23 12 31c8 6 19 10 30 10s21 -4 30 -10c8 -8 13 -20 13 -31s-5 -22 -13 -30zM376 614c-9 -7 -19 -10 -30 -10s-22 3 -30 10c-9 8 -13 19 -13 30s4 23 13 31
c8 6 19 10 30 10s21 -4 30 -10c8 -8 12 -20 12 -31s-4 -22 -12 -30zM233 0h-192l-4 60l60 3v374l-59 3l3 60h136v-441l60 -3zM518 0h-192l-4 60l60 3v374l-59 3l3 60h136v-441l60 -3z" />
    <glyph glyph-name="afii10103_afii10104" unicode="&#x456;&#x457;" horiz-adv-x="554" 
d="M540 614c-8 -7 -19 -10 -30 -10s-21 3 -29 10c-9 8 -13 19 -13 30s4 23 13 31c8 6 18 10 29 10s22 -4 30 -10c8 -8 13 -20 13 -31s-5 -22 -13 -30zM369 614c-8 -7 -19 -10 -30 -10s-21 3 -29 10c-9 8 -13 19 -13 30s4 23 13 31c8 6 18 10 29 10s22 -4 30 -10
c8 -8 13 -20 13 -31s-5 -22 -13 -30zM233 0h-192l-4 60l60 3v374l-59 3l3 60h136v-441l60 -3zM173 609c-9 -7 -22 -10 -35 -10s-27 3 -36 11c-10 8 -14 21 -14 34s4 26 14 35c9 7 22 11 35 11s26 -4 36 -11c9 -9 14 -22 14 -35s-5 -26 -14 -35zM518 0h-192l-4 60l60 3v374
l-59 3l3 60h136v-441l60 -3z" />
    <glyph glyph-name=".notdef" horiz-adv-x="619" 
d="M344 102h-65v188h-185v61h185v187h65v-187h182v-61h-182v-188zM136 440l-54 54l56 56l54 -54zM483 91l-54 54l56 56l54 -54zM485 440l-56 56l54 53l56 -55zM138 91l-56 56l54 53l56 -55z" />
    <glyph glyph-name="space" unicode=" " horiz-adv-x="271" 
 />
    <glyph glyph-name="exclam" unicode="!" horiz-adv-x="316" 
d="M192 212h-65l-10 447v91h84v-91zM195 3c-10 -8 -22 -12 -35 -12s-26 4 -35 12c-11 9 -16 21 -16 34c0 12 5 25 16 34c9 8 22 12 35 12s25 -4 35 -12c10 -9 16 -22 16 -34c0 -13 -6 -25 -16 -34z" />
    <glyph glyph-name="quotedbl" unicode="&#x22;" horiz-adv-x="339" 
d="M97 522h-58l-1 226h74zM259 522h-58l-1 226h74z" />
    <glyph glyph-name="numbersign" unicode="#" horiz-adv-x="556" 
d="M168 89l-47 12l28 117h-93v52h106l26 108h-132v53h145l34 137l48 -12l-31 -125h101l31 129l48 -13l-28 -116h95v-53h-108l-26 -108h134v-52h-147l-33 -138l-47 13l30 125h-102zM239 378l-26 -108h101l26 108h-101z" />
    <glyph glyph-name="dollar" unicode="$" horiz-adv-x="469" 
d="M268 -50h-60l-4 102c-95 2 -148 26 -148 26l-7 127l50 4l6 -83c27 -8 67 -17 114 -17c96 0 135 45 135 92c0 124 -295 63 -295 242c0 76 60 126 144 135l1 122h60l4 -124c38 -7 69 -25 89 -39l11 34h41v-138h-54l-6 49c-15 13 -51 41 -105 41c-62 0 -105 -27 -105 -71
c0 -123 297 -71 297 -242c0 -76 -48 -142 -167 -156z" />
    <glyph glyph-name="percent" unicode="%" horiz-adv-x="931" 
d="M328 2l-62 10l330 629l62 -10zM237 286c-118 0 -182 75 -182 188s68 189 182 189c112 0 183 -76 183 -189s-67 -188 -183 -188zM237 343c75 0 117 53 117 132s-42 131 -117 131s-116 -52 -116 -131s40 -132 116 -132zM693 -14c-118 0 -182 75 -182 188s68 189 182 189
c112 0 183 -76 183 -189s-67 -188 -183 -188zM693 43c75 0 117 53 117 132s-42 131 -117 131s-116 -52 -116 -131s40 -132 116 -132z" />
    <glyph glyph-name="ampersand" unicode="&#x26;" horiz-adv-x="700" 
d="M434 509h-58l-3 61c-15 13 -42 31 -79 31c-76 0 -123 -43 -123 -113c0 -79 62 -126 114 -128h151l28 140h47v-140h152v-57h-152v-165c0 -67 25 -90 72 -90c41 0 77 8 77 8v-56s-29 -14 -98 -14c-55 0 -94 16 -113 60c-29 -30 -76 -60 -160 -60c-170 0 -234 96 -234 198
c0 87 68 134 138 154c-52 28 -101 81 -101 158c0 103 79 167 184 167c40 0 78 -20 104 -37l7 28h47v-145zM434 129v174h-158c-68 -3 -139 -36 -139 -115c0 -70 46 -139 160 -139c107 0 132 64 137 80z" />
    <glyph glyph-name="quotesingle" unicode="'" horiz-adv-x="178" 
d="M97 522h-58l-1 226h74z" />
    <glyph glyph-name="parenleft" unicode="(" horiz-adv-x="352" 
d="M305 -158l-60 -25s-144 146 -144 455s144 460 144 460l60 -25s-124 -158 -124 -435s124 -430 124 -430z" />
    <glyph glyph-name="parenright" unicode=")" horiz-adv-x="352" 
d="M47 707l60 25s144 -146 144 -455s-144 -460 -144 -460l-60 25s123 158 123 435s-123 430 -123 430z" />
    <glyph glyph-name="asterisk" unicode="*" horiz-adv-x="456" 
d="M137 310l-60 44l120 133l-175 40l23 70l163 -74l-18 181h75l-20 -180l166 73l23 -70l-175 -38l119 -135l-60 -44l-90 155z" />
    <glyph glyph-name="plus" unicode="+" horiz-adv-x="471" 
d="M269 80h-65v167h-165v61h165v167h65v-167h163v-61h-163v-167z" />
    <glyph glyph-name="comma" unicode="," horiz-adv-x="258" 
d="M85 -163l-40 26c49 46 70 112 65 156c-6 2 -11 5 -16 9c-9 8 -14 18 -14 29s5 22 14 30c8 7 19 10 30 10s22 -3 31 -10c15 -13 22 -37 22 -64c0 -62 -35 -146 -92 -186z" />
    <glyph glyph-name="hyphen" unicode="-" horiz-adv-x="341" 
d="M303 247h-264v61h264v-61z" />
    <glyph glyph-name="period" unicode="." horiz-adv-x="277" 
d="M172 3c-10 -8 -22 -12 -35 -12s-26 4 -35 12c-11 9 -16 21 -16 34c0 12 5 25 16 34c9 8 22 12 35 12s25 -4 35 -12c10 -9 16 -22 16 -34c0 -13 -6 -25 -16 -34z" />
    <glyph glyph-name="slash" unicode="/" horiz-adv-x="482" 
d="M69 -250h-76l439 1000h75z" />
    <glyph glyph-name="zero" unicode="0" horiz-adv-x="653" 
d="M326 -14c-176 0 -261 140 -261 348s85 329 261 329c177 0 262 -121 262 -329s-85 -348 -262 -348zM326 48c118 0 176 104 176 286s-58 267 -176 267c-117 0 -175 -85 -175 -267s58 -286 175 -286z" />
    <glyph glyph-name="one" unicode="1" horiz-adv-x="426" 
d="M231 650h67v-591l60 -3l-4 -56h-226l-3 60l93 3v515l-133 -57l-21 58z" />
    <glyph glyph-name="two" unicode="2" horiz-adv-x="553" 
d="M123 498h-58l4 156h47l8 -43c28 22 79 52 146 52c140 0 207 -70 207 -177c0 -162 -213 -336 -328 -418h288l9 77l56 -4l-4 -141h-449v67c5 1 340 242 340 412c0 81 -43 118 -142 118c-67 0 -105 -31 -120 -48z" />
    <glyph glyph-name="three" unicode="3" horiz-adv-x="551" 
d="M468 603l-201 -229c7 0 14 1 22 1c122 0 206 -65 206 -175c0 -129 -114 -214 -272 -214c-118 0 -159 30 -159 30l-4 125l54 4l8 -82c22 -7 54 -13 102 -13c119 0 189 65 189 150c0 72 -52 118 -146 118c-42 0 -68 -22 -68 -22l-37 39l208 248h-237l-7 -81h-56l4 152
l65 -4h329v-47z" />
    <glyph glyph-name="four" unicode="4" horiz-adv-x="573" 
d="M505 0h-200l-4 56l68 3v114h-330l-5 50c59 103 134 272 184 436l76 -9c-50 -159 -117 -308 -174 -416h249v231l11 90h69v-321h84v-56l-84 -5v-118l60 -3z" />
    <glyph glyph-name="five" unicode="5" horiz-adv-x="539" 
d="M64 16l-4 125l54 3l8 -80c21 -8 54 -14 105 -14c112 0 180 72 180 162c0 77 -66 130 -167 130c-61 0 -96 -21 -99 -25l-42 5l33 328h270l6 36l56 -4l-4 -103l-68 4h-199l-20 -192c21 5 46 9 74 9c147 0 242 -69 242 -188c0 -137 -112 -226 -264 -226
c-126 0 -161 30 -161 30z" />
    <glyph glyph-name="six" unicode="6" horiz-adv-x="601" 
d="M481 509h-58l-4 51c-15 14 -49 41 -102 41c-103 0 -165 -82 -175 -248c37 30 92 60 174 60c144 0 230 -71 230 -193c0 -120 -76 -234 -234 -234s-247 106 -247 274c0 22 2 52 3 63c16 231 107 340 241 340c49 0 90 -24 115 -43l10 34h47v-145zM307 359
c-99 0 -145 -57 -156 -81c-3 -9 -4 -23 -4 -41c0 -112 52 -193 165 -193c111 0 152 95 152 177c0 75 -48 138 -157 138z" />
    <glyph glyph-name="seven" unicode="7" horiz-adv-x="488" 
d="M467 584c-93 -154 -199 -384 -247 -584h-93c50 200 154 415 247 579h-276l-6 -81h-56l4 156l64 -4h363v-66z" />
    <glyph glyph-name="eight" unicode="8" horiz-adv-x="582" 
d="M513 497c0 -94 -71 -140 -134 -163c64 -17 149 -61 149 -169c0 -125 -94 -179 -237 -179s-236 54 -236 182c0 94 77 142 144 165c-58 20 -129 65 -129 166c0 105 86 164 221 164s222 -59 222 -166zM440 170c0 106 -105 130 -152 135c-41 -5 -145 -30 -145 -134
c0 -89 57 -131 148 -131c92 0 149 43 149 130zM153 495c0 -106 97 -131 141 -137c38 6 135 32 135 136c0 77 -48 115 -138 115s-138 -39 -138 -114z" />
    <glyph glyph-name="nine" unicode="9" horiz-adv-x="601" 
d="M261 48c108 0 188 86 197 245c-25 -27 -76 -69 -173 -69c-144 0 -230 93 -230 215c0 120 84 224 242 224s239 -86 239 -254c0 -22 -2 -72 -3 -82c-10 -228 -121 -341 -272 -341c-104 0 -159 20 -159 20l-4 134l54 4l8 -86c24 -5 57 -10 101 -10zM294 278
c94 0 140 51 154 73c3 15 6 56 6 78c0 112 -45 176 -157 176s-160 -85 -160 -166c0 -76 48 -161 157 -161z" />
    <glyph glyph-name="colon" unicode=":" horiz-adv-x="279" 
d="M172 382c-10 -8 -22 -12 -35 -12s-26 4 -35 12c-11 9 -16 21 -16 34c0 12 5 25 16 34c9 8 22 12 35 12s25 -4 35 -12c10 -9 16 -22 16 -34c0 -13 -6 -25 -16 -34zM172 3c-10 -8 -22 -12 -35 -12s-26 4 -35 12c-11 9 -16 21 -16 34c0 12 5 25 16 34c9 8 22 12 35 12
s25 -4 35 -12c10 -9 16 -22 16 -34c0 -13 -6 -25 -16 -34z" />
    <glyph glyph-name="semicolon" unicode=";" horiz-adv-x="277" 
d="M96 -163l-40 26c49 46 70 112 65 156c-6 2 -11 5 -16 9c-9 8 -14 18 -14 29s5 22 14 30c8 7 19 10 30 10s22 -3 31 -10c15 -13 22 -37 22 -64c0 -62 -35 -146 -92 -186zM172 382c-10 -8 -22 -12 -35 -12s-26 4 -35 12c-11 9 -16 21 -16 34c0 12 5 25 16 34
c9 8 22 12 35 12s25 -4 35 -12c10 -9 16 -22 16 -34c0 -13 -6 -25 -16 -34z" />
    <glyph glyph-name="less" unicode="&#x3c;" horiz-adv-x="427" 
d="M352 118l-281 200l281 199l35 -38l-234 -161l235 -162z" />
    <glyph glyph-name="equal" unicode="=" horiz-adv-x="543" 
d="M504 148h-465v61h465v-61zM504 346h-465v61h465v-61z" />
    <glyph glyph-name="greater" unicode="&#x3e;" horiz-adv-x="427" 
d="M357 318l-282 -200l-36 38l235 162l-235 161l36 38z" />
    <glyph glyph-name="question" unicode="?" horiz-adv-x="476" 
d="M99 602h-57l3 152h47l8 -35c27 19 71 44 131 44c143 0 196 -92 196 -170c0 -210 -258 -156 -238 -383l-46 -4c-6 27 -9 50 -9 71c0 174 205 155 205 306c0 56 -27 116 -130 116c-59 0 -92 -28 -106 -42zM202 3c-10 -8 -22 -12 -35 -12s-26 4 -35 12c-11 9 -16 21 -16 34
c0 12 5 25 16 34c9 8 22 12 35 12s25 -4 35 -12c10 -9 16 -22 16 -34c0 -13 -6 -25 -16 -34z" />
    <glyph glyph-name="at" unicode="@" horiz-adv-x="968" 
d="M769 -77l24 -51s-79 -102 -289 -102c-287 0 -439 162 -439 428c0 277 157 436 454 436c254 0 391 -133 391 -351c0 -219 -95 -296 -200 -296c-54 0 -91 12 -103 53c-20 -24 -58 -54 -129 -54c-112 0 -191 75 -191 214c0 128 78 208 203 208c57 0 95 -19 119 -41l15 27h36
v-307c0 -41 22 -53 54 -53c62 0 132 53 132 245c0 191 -112 298 -327 298c-238 0 -382 -116 -382 -379c0 -237 143 -368 367 -368c182 0 265 93 265 93zM492 34c79 0 105 59 111 74v198c-6 13 -29 55 -107 55c-97 0 -144 -62 -144 -161c0 -103 52 -166 140 -166z" />
    <glyph glyph-name="A" unicode="A" horiz-adv-x="700" 
d="M209 0h-217l-4 60l79 3l228 587h111l228 -591l79 -3l-4 -56h-225v48l66 2l-59 150h-290l-59 -148l71 -2zM346 583l-124 -328h247z" />
    <glyph glyph-name="B" unicode="B" horiz-adv-x="631" 
d="M320 0h-274l-4 60l80 3v528l-81 3l4 56h273c153 0 222 -60 222 -155c0 -71 -43 -118 -87 -147c78 -21 124 -72 124 -151c0 -116 -73 -197 -257 -197zM356 308h-159v-247h118c129 0 181 50 181 136c0 80 -54 111 -140 111zM197 363h155c40 0 110 34 110 124
c0 76 -55 102 -148 102h-117v-226z" />
    <glyph glyph-name="C" unicode="C" horiz-adv-x="665" 
d="M593 429h-66l-6 121c-17 13 -63 45 -133 45c-142 0 -247 -95 -247 -265c0 -167 98 -276 253 -276c141 0 219 103 219 103l32 -54s-78 -117 -258 -117c-215 0 -332 139 -332 344c0 207 138 333 321 333c67 0 121 -28 152 -49l14 40h51v-225z" />
    <glyph glyph-name="D" unicode="D" horiz-adv-x="750" 
d="M46 0l-4 60l80 3v528l-81 3l4 56h309c216 0 341 -104 341 -317c0 -210 -122 -333 -340 -333h-309zM354 582h-148v-514h150c163 0 252 94 252 265c0 172 -90 249 -254 249z" />
    <glyph glyph-name="E" unicode="E" horiz-adv-x="601" 
d="M533 505h-66l-4 80h-257v-226l296 1v-63h-296v-232h284l8 90l62 -4l-4 -151h-510l-4 60l80 3v528l-81 3l4 56h416l72 4v-149z" />
    <glyph glyph-name="F" unicode="F" horiz-adv-x="550" 
d="M543 505h-66l-4 80h-267v-228h284v-63h-284v-235l100 -3l-4 -56h-256l-4 60l80 3v528l-81 3l4 56h426l72 4v-149z" />
    <glyph glyph-name="G" unicode="G" horiz-adv-x="723" 
d="M593 459h-62l-6 92c-17 14 -60 44 -133 44c-169 0 -251 -93 -251 -262c0 -173 93 -279 237 -279c143 0 177 83 183 101v101h-157v55h228v-311h-50l-11 70c-35 -41 -99 -84 -211 -84c-195 0 -305 139 -305 347c0 207 126 330 328 330c61 0 115 -26 148 -48l11 39h51v-195z
" />
    <glyph glyph-name="H" unicode="H" horiz-adv-x="766" 
d="M282 0h-236l-4 60l80 3v528l-81 3l4 56h239v-60l-78 -3v-233h354v233l-81 3l3 60h239v-60l-77 -3v-528l80 -3l-4 -56h-236l-4 60l80 3v228h-354v-229l80 -2z" />
    <glyph glyph-name="I" unicode="I" horiz-adv-x="329" 
d="M282 0h-236l-4 60l80 3v528l-81 3l4 56h239v-60l-78 -3v-528l80 -3z" />
    <glyph glyph-name="J" unicode="J" horiz-adv-x="449" 
d="M407 590l-63 -3v-400c0 -161 -77 -201 -178 -201c-95 0 -139 23 -139 23l-7 139l58 4l7 -92c17 -5 40 -10 72 -10c48 0 103 23 103 137v404l-95 3l4 56h238v-60z" />
    <glyph glyph-name="K" unicode="K" horiz-adv-x="713" 
d="M713 0h-153l-39 34l-221 254l-94 -64v-162l80 -2l-4 -60h-236l-4 60l80 3v528l-81 3l4 56h231v-52l-70 -3v-289l92 62l207 230l-44 2v50h229v-60l-107 -3l-220 -245l245 -281l109 -1z" />
    <glyph glyph-name="L" unicode="L" horiz-adv-x="559" 
d="M46 0l-4 60l80 3v528l-81 3l4 56h239v-60l-78 -3v-522h276l8 94l62 -4l-4 -155h-502z" />
    <glyph glyph-name="M" unicode="M" horiz-adv-x="1002" 
d="M269 0h-223l-4 60l80 3l1 528l-81 3l3 56h186l272 -564l269 564h185v-60l-78 -3l1 -525l80 -2l-4 -60h-225l-4 52l72 3v481h-1l-258 -536h-80l-259 536h-1v-483l73 -3z" />
    <glyph glyph-name="N" unicode="N" horiz-adv-x="788" 
d="M674 -6h-88l-389 537h-1l4 -31v-440l81 -2l-4 -58h-231l-4 60l80 3v528l-81 3l4 56h165l387 -544l-2 23v461l-81 2l3 58h234v-60l-77 -3v-593z" />
    <glyph glyph-name="O" unicode="O" horiz-adv-x="761" 
d="M707 334c0 -207 -122 -348 -327 -348s-325 141 -325 348c0 206 120 329 325 329s327 -123 327 -329zM620 334c0 166 -90 261 -240 261s-239 -95 -239 -261c0 -167 88 -280 239 -280s240 113 240 280z" />
    <glyph glyph-name="P" unicode="P" horiz-adv-x="580" 
d="M291 0h-245l-4 60l80 3v528l-81 3l4 56h254c152 0 243 -58 243 -196c0 -162 -126 -227 -242 -227h-100v-172l94 -3zM285 589h-85v-303h84c90 0 171 43 171 163c0 102 -68 140 -170 140z" />
    <glyph glyph-name="Q" unicode="Q" horiz-adv-x="761" 
d="M652 -71l8 -63c-23 -8 -47 -12 -72 -12c-86 0 -179 48 -233 133c-190 11 -300 148 -300 347c0 206 120 329 325 329s327 -119 327 -325c0 -187 -100 -323 -270 -347c44 -42 99 -72 158 -72c19 0 38 3 57 10zM380 54c151 0 240 113 240 280c0 166 -90 261 -240 261
s-239 -95 -239 -261c0 -167 88 -280 239 -280z" />
    <glyph glyph-name="R" unicode="R" horiz-adv-x="628" 
d="M642 0h-143l-33 33l-144 199h-122v-177l73 -3l-4 -52h-223l-4 60l80 6v525l-81 3l4 56h254c153 0 243 -61 243 -192c0 -103 -61 -176 -138 -208l142 -189l100 -1zM285 589h-85v-294h109c80 0 147 59 147 159c0 94 -60 135 -171 135z" />
    <glyph glyph-name="S" unicode="S" horiz-adv-x="580" 
d="M497 501h-65l-5 55c-17 15 -60 45 -121 45c-91 0 -142 -43 -142 -114c0 -165 365 -91 365 -304c0 -117 -84 -197 -236 -197c-144 0 -220 40 -220 40l-2 143l62 4l7 -101c32 -11 82 -24 145 -24c112 0 162 58 162 126c0 156 -366 79 -366 306c0 108 79 183 211 183
c60 0 111 -27 142 -49l13 40h50v-153z" />
    <glyph glyph-name="T" unicode="T" horiz-adv-x="540" 
d="M60 494h-62l4 160l72 -4h396l72 4v-160h-62l-6 91h-162v-523l80 -2l-4 -60h-236l-4 60l80 3v522h-160z" />
    <glyph glyph-name="U" unicode="U" horiz-adv-x="742" 
d="M266 594l-78 -3v-352c0 -100 60 -180 184 -180c125 0 185 80 185 180v351l-82 2l3 58h237v-56l-77 -3v-369c0 -126 -82 -236 -267 -236c-184 0 -267 110 -267 236v369l-81 3l4 56h239v-56z" />
    <glyph glyph-name="V" unicode="V" horiz-adv-x="672" 
d="M393 0h-110l-226 591l-78 3l4 56h225v-56l-65 -3l197 -528l196 527l-69 2l4 58h221v-56l-74 -3z" />
    <glyph glyph-name="W" unicode="W" horiz-adv-x="1025" 
d="M335 0h-89l-190 591l-77 3l4 56h225v-56l-66 -3l153 -498l179 557h88l183 -555l148 495l-72 2l4 58h221v-56l-71 -3l-186 -591h-89l-184 547z" />
    <glyph glyph-name="X" unicode="X" horiz-adv-x="696" 
d="M244 594l-47 -2l151 -208v-1l1 1l151 207l-48 1v58h235v-60l-98 -2l-191 -261l199 -266l101 -1l-3 -60h-240v56l45 1l-154 210l-154 -208l47 -1v-58h-237l-4 60l102 2l196 263l-195 266l-97 3l3 56h237v-56z" />
    <glyph glyph-name="Y" unicode="Y" horiz-adv-x="637" 
d="M441 0h-236l-4 60l79 3v206l-220 322l-93 3l3 56h237v-56l-52 -2l170 -253l168 252l-51 1v58h228v-60l-92 -2l-213 -318v-208l80 -2z" />
    <glyph glyph-name="Z" unicode="Z" horiz-adv-x="608" 
d="M559 593l-407 -528h345l8 90l62 -4l-4 -151h-518v57l407 528h-331l-6 -80h-65l3 145v4l73 -4h433v-57z" />
    <glyph glyph-name="bracketleft" unicode="[" horiz-adv-x="385" 
d="M373 -76h-272v777h272v-57h-201v-662h201v-58z" />
    <glyph glyph-name="backslash" unicode="\" horiz-adv-x="482" 
d="M489 -250h-75l-439 1000h75z" />
    <glyph glyph-name="bracketright" unicode="]" horiz-adv-x="385" 
d="M283 -76h-272v58h201v661h-201v58h272v-777z" />
    <glyph glyph-name="asciicircum" unicode="^" horiz-adv-x="388" 
d="M70 488l-32 32l155 167l157 -167l-33 -32l-123 134z" />
    <glyph glyph-name="underscore" unicode="_" horiz-adv-x="723" 
d="M684 -153h-645v61h645v-61z" />
    <glyph glyph-name="grave" unicode="`" horiz-adv-x="237" 
d="M157 577l-57 -5l-116 139l77 9z" />
    <glyph glyph-name="a" unicode="a" horiz-adv-x="536" 
d="M146 348h-61l3 157h51l7 -37c26 19 72 46 135 46c112 0 172 -56 172 -182v-273l60 -3l-4 -56h-122l-12 64c-9 -16 -49 -78 -159 -78c-114 0 -176 53 -176 143c0 146 206 154 333 167v35c0 87 -30 124 -113 124c-57 0 -94 -27 -110 -42zM240 42c97 0 130 67 133 74v127
c-121 -9 -251 -15 -251 -106c0 -63 39 -95 118 -95z" />
    <glyph glyph-name="b" unicode="b" horiz-adv-x="593" 
d="M149 0h-64v687l-59 3l4 60h136v-305h1s40 69 158 69c137 0 230 -83 230 -240c0 -164 -85 -288 -241 -288c-96 0 -143 40 -154 52zM302 452c-103 0 -136 -72 -136 -72v-287c4 -5 41 -46 126 -46c126 0 180 94 180 225c0 130 -62 180 -170 180z" />
    <glyph glyph-name="c" unicode="c" horiz-adv-x="487" 
d="M458 335h-62l-5 71c-13 14 -50 49 -108 49c-110 0 -162 -56 -162 -199c0 -144 67 -211 173 -211c93 0 145 60 145 60l36 -40s-52 -79 -188 -79c-161 0 -249 96 -249 269c0 169 82 259 233 259c53 0 98 -28 124 -49l11 40h52v-170z" />
    <glyph glyph-name="d" unicode="d" horiz-adv-x="600" 
d="M563 0h-126l-8 55c-9 -14 -54 -69 -162 -69c-136 0 -229 104 -229 261c0 164 81 267 236 267c107 0 152 -48 152 -48h1v221l-59 3l4 60h135v-691l60 -3zM291 48c88 0 129 58 136 70v288c-6 6 -45 47 -126 47c-127 0 -180 -72 -180 -204c0 -130 62 -201 170 -201z" />
    <glyph glyph-name="e" unicode="e" horiz-adv-x="518" 
d="M474 235h-356c6 -127 72 -188 175 -188c101 0 150 66 150 66l38 -41s-55 -86 -190 -86c-155 0 -253 93 -253 265c0 168 95 263 239 263c134 0 209 -71 209 -217c0 -35 -12 -62 -12 -62zM278 455c-98 0 -150 -61 -159 -165h293s1 13 1 23c0 94 -45 142 -135 142z" />
    <glyph glyph-name="f" unicode="f" horiz-adv-x="361" 
d="M403 614h-57l-5 58c-10 12 -32 31 -67 31c-62 0 -85 -30 -85 -130v-73h171v-63h-171v-379l60 -2l-4 -56h-192l-4 60l60 2v375h-61v60l61 3v81c0 125 42 182 147 182c42 0 74 -19 92 -33l8 24h47v-140z" />
    <glyph glyph-name="g" unicode="g" horiz-adv-x="532" 
d="M513 439l-62 -2c15 -25 23 -57 23 -97c0 -118 -81 -187 -204 -187c0 0 -90 -1 -90 -39c0 -28 18 -51 110 -55c138.998 -6.04297 226 -35 226 -145c0 -104 -75 -178 -238 -178c-166 0 -237 74 -237 175c0 72 47 109 102 127c-18 17 -28 40 -28 72c0 31 20 52 46 65
c-64 30 -103 88 -103 165c0 132 108 174 220 174c40 0 77 -7 108 -20l123 6zM267 -1c-15 1 -29 2 -43 4c-49 -4 -106 -32 -106 -92c0 -69 52 -115 161 -115c105 0 160 44 160 112c0 74 -64 85 -172 91zM273 456c-72 0 -138 -22 -138 -116c0 -82 50 -132 133 -132
c81 0 128 49 128 133c0 89 -49 115 -123 115z" />
    <glyph glyph-name="h" unicode="h" horiz-adv-x="603" 
d="M229 0h-192l-4 60l60 3v624l-59 3l3 60h136v-293h1c1 0 51 57 168 57c110 0 178 -46 178 -155v-300l60 -3l-4 -56h-136v344c0 72 -46 102 -126 102c-96 0 -141 -51 -141 -51v-336l60 -3z" />
    <glyph glyph-name="i" unicode="i" horiz-adv-x="270" 
d="M233 0h-192l-4 60l60 3v374l-59 3l3 60h136v-441l60 -3zM172 609c-9 -7 -22 -10 -35 -10s-27 3 -36 11c-10 8 -14 21 -14 34s4 26 14 35c9 7 22 11 35 11s26 -4 36 -11c9 -9 14 -22 14 -35s-5 -26 -14 -35z" />
    <glyph glyph-name="j" unicode="j" horiz-adv-x="266" 
d="M-65 -246l21 64s23 -10 59 -10c43 0 86 51 86 157v472l-58 3l4 60h134v-535c0 -161 -81 -229 -157 -229c-70 0 -89 18 -89 18zM176 609c-9 -7 -22 -10 -35 -10s-27 3 -36 11c-10 8 -14 21 -14 34s4 26 14 35c9 7 22 11 35 11s26 -4 36 -11c9 -9 14 -22 14 -35
s-5 -26 -14 -35z" />
    <glyph glyph-name="k" unicode="k" horiz-adv-x="545" 
d="M222 0h-185l-4 60l60 3v624l-59 3l3 60h136v-473l67 33l114 134l-34 2l4 54h192v-60l-92 -9l-131 -148l164 -218l92 -1l-4 -64h-123l-40 42l-156 202l-53 -26v-163l52 -3z" />
    <glyph glyph-name="l" unicode="l" horiz-adv-x="266" 
d="M229 0h-192l-4 60l60 3v624l-59 3l3 60h136v-691l60 -3z" />
    <glyph glyph-name="m" unicode="m" horiz-adv-x="852" 
d="M825 0h-137v359c0 71 -29 88 -89 88c-73 0 -117 -41 -127 -51c0 -7 1 -16 1 -24v-313l60 -3l-4 -56h-137v359c0 70 -28 88 -87 88c-80 0 -125 -48 -128 -51v-337l60 -3l-4 -56h-192l-4 60l60 3v374l-59 3l3 60h127l6 -49c9 10 60 63 157 63c64 0 107 -19 127 -62
c10 10 63 62 168 62c95 0 143 -38 143 -143v-312l60 -3z" />
    <glyph glyph-name="n" unicode="n" horiz-adv-x="607" 
d="M233 0h-192l-4 60l60 3v374l-59 3l3 60h127l7 -44c6 7 55 58 171 58c111 0 179 -45 179 -155v-300l59 -3l-3 -56h-137v344c0 73 -45 102 -125 102c-96 0 -142 -51 -142 -51v-336l60 -3z" />
    <glyph glyph-name="o" unicode="o" horiz-adv-x="573" 
d="M286 -14c-163 0 -248 105 -248 268s85 260 248 260c164 0 248 -97 248 -260s-88 -268 -248 -268zM286 45c115 0 165 81 165 208s-50 202 -165 202c-114 0 -165 -76 -165 -202c0 -127 51 -208 165 -208z" />
    <glyph glyph-name="p" unicode="p" horiz-adv-x="600" 
d="M229 -250h-192l-4 60l60 3v624l-59 3l3 60h126l7 -56c10 13 58 70 167 70c136 0 225 -83 225 -240c0 -164 -81 -288 -236 -288c-107 0 -153 48 -153 48v-225l60 -3zM309 452c-88 0 -129 -59 -136 -70v-290c7 -8 48 -45 126 -45c127 0 180 90 180 225
c0 134 -62 180 -170 180z" />
    <glyph glyph-name="q" unicode="q" horiz-adv-x="593" 
d="M563 -250h-192l-4 60l60 3v246h-1s-40 -73 -158 -73c-137 0 -229 104 -229 261c0 164 85 267 240 267c92 0 141 -41 150 -50l15 36h64v-691l59 -3zM292 48c93 0 129 60 135 70v288c-6 6 -45 47 -125 47c-127 0 -181 -69 -181 -204c0 -134 63 -201 171 -201z" />
    <glyph glyph-name="r" unicode="r" horiz-adv-x="424" 
d="M241 0h-200l-4 60l60 3v374l-64 3l4 60h123l7 -77h1s46 91 142 91c50 0 88 -14 88 -14v-148h-58l-5 95c-12 1 -25 2 -41 2c-81 0 -117 -77 -117 -77v-313l68 -3z" />
    <glyph glyph-name="s" unicode="s" horiz-adv-x="469" 
d="M409 367h-54l-6 49c-15 13 -51 41 -105 41c-62 0 -105 -27 -105 -71c0 -123 297 -71 297 -242c0 -85 -60 -158 -215 -158c-105 0 -165 26 -165 26l-7 127l50 4l6 -83c27 -8 67 -17 114 -17c96 0 135 45 135 92c0 124 -295 63 -295 242c0 85 75 137 173 137
c55 0 99 -24 125 -43l11 34h41v-138z" />
    <glyph glyph-name="t" unicode="t" horiz-adv-x="366" 
d="M333 437h-152v-285c0 -68 19 -99 67 -99c30 0 77 8 77 8v-54s-44 -15 -102 -15c-82 0 -122 39 -122 142v303h-61v60l61 2l9 151h71v-150h152v-63z" />
    <glyph glyph-name="u" unicode="u" horiz-adv-x="603" 
d="M430 105v332l-59 3l4 60h136v-441l59 -3l-3 -56h-127l-7 45c-6 -6 -54 -59 -172 -59c-110 0 -178 66 -178 175v276l-59 3l4 60h135v-324c0 -72 46 -121 126 -121c96 0 141 50 141 50z" />
    <glyph glyph-name="v" unicode="v" horiz-adv-x="515" 
d="M301 0h-87l-170 437l-70 3l4 60h131l150 -417h1l131 357l-47 2v58h194v-60l-68 -3z" />
    <glyph glyph-name="w" unicode="w" horiz-adv-x="784" 
d="M610 0h-85l-132 399l-136 -399h-85l-128 437l-66 3l4 60h130l104 -402h1l134 402h79l138 -402h1l93 346l-53 2v54h194v-60l-62 -3z" />
    <glyph glyph-name="x" unicode="x" horiz-adv-x="573" 
d="M186 0h-184v60l86 2l145 193l-137 182l-88 3l4 60h129l146 -204h1l105 146l-30 1l4 57h187v-60l-79 -3l-136 -182l149 -197l86 -2l-3 -56h-122l-40 44l-124 168l-114 -154h19z" />
    <glyph glyph-name="y" unicode="y" horiz-adv-x="527" 
d="M10 -243l8 55s35 -12 69 -12c55 0 103 88 145 200l-187 437l-71 3l4 60h130l166 -412h1l133 352l-53 2v58h193v-60l-66 -3l-175 -448c-56.2168 -143.915 -124 -253 -210 -253c-72 0 -87 21 -87 21z" />
    <glyph glyph-name="z" unicode="z" horiz-adv-x="482" 
d="M436 446l-297 -385h235l7 90l58 -4l-4 -147h-395v54l296 385h-213l-6 -80h-57l3 141v4l65 -4h308v-54z" />
    <glyph glyph-name="braceleft" unicode="{" horiz-adv-x="433" 
d="M394 -107v-57c-159 0 -203 54 -203 141c0 70 30 132 30 193c0 55 -65 90 -108 90v64c43 0 108 35 108 90c0 61 -30 123 -30 193c0 87 44 141 203 141v-57c-102 0 -133 -39 -133 -103c0 -65 30 -125 30 -191c0 -43 -28 -81 -69 -105c41 -25 69 -63 69 -105
c0 -66 -30 -126 -30 -191c0 -64 31 -103 133 -103z" />
    <glyph glyph-name="bar" unicode="|" horiz-adv-x="336" 
d="M205 -250h-74v1000h74v-1000z" />
    <glyph glyph-name="braceright" unicode="}" horiz-adv-x="433" 
d="M39 -164v57c102 0 133 39 133 103c0 65 -30 125 -30 191c0 42 27 80 69 105c-42 24 -69 62 -69 105c0 66 30 126 30 191c0 64 -31 103 -133 103v57c159 0 203 -54 203 -141c0 -70 -30 -132 -30 -193c0 -55 65 -90 108 -90v-64c-43 0 -108 -35 -108 -90
c0 -61 30 -123 30 -193c0 -87 -44 -141 -203 -141z" />
    <glyph glyph-name="asciitilde" unicode="~" horiz-adv-x="665" 
d="M600 380l33 -35s-43 -87 -158 -87c-134 0 -153 86 -286 86c-85 0 -119 -51 -119 -51l-39 38s48 95 178 95c145 0 162 -89 287 -89c74 0 104 43 104 43z" />
    <glyph glyph-name="nbspace" unicode="&#xa0;" horiz-adv-x="343" 
 />
    <glyph glyph-name="exclamdown" unicode="&#xa1;" horiz-adv-x="316" 
d="M199 -250h-85v91l10 447h65l10 -447v-91zM190 428c-10 -8 -22 -12 -35 -12s-26 4 -35 12c-11 9 -16 21 -16 34c0 12 5 25 16 34c9 8 22 12 35 12s25 -4 35 -12c10 -9 16 -22 16 -34c0 -13 -6 -25 -16 -34z" />
    <glyph glyph-name="cent" unicode="&#xa2;" horiz-adv-x="487" 
d="M304 -50h-61l-4 106c-130 17 -201 111 -201 266c0 156 70 245 201 257l1 121h60l4 -123c39 -8 70 -29 91 -45l11 40h52v-170h-62l-5 71c-13 14 -50 49 -108 49c-110 0 -162 -56 -162 -199c0 -144 67 -211 173 -211c93 0 145 60 145 60l36 -40s-48 -72 -170 -79z" />
    <glyph glyph-name="sterling" unicode="&#xa3;" horiz-adv-x="590" 
d="M565 0h-512v67h44c51 33 65 90 65 158c0 16 -1 31 -2 48l-107 2v61h102c-5 47 -10 98 -10 147c0 110 71 180 188 180c50 0 91 -24 115 -42l10 33h47v-145h-58l-5 55c-14 12 -45 33 -90 33c-76 0 -119 -40 -119 -118c0 -47 3 -96 6 -143h259v-63h-256
c2 -81 -4 -155 -38 -206h301l8 78l56 -4z" />
    <glyph glyph-name="currency" unicode="&#xa4;" horiz-adv-x="629" 
d="M89 53l-30 37l115 109c-23 30 -36 69 -36 115c0 45 13 84 36 114l-116 111l31 37l113 -119c30 24 69 38 113 38c42 0 80 -13 110 -36l114 116l31 -37l-116 -108c24 -31 38 -70 38 -116c0 -45 -14 -85 -37 -115l116 -110l-31 -37l-113 119c-30 -25 -69 -38 -112 -38
s-82 13 -112 37zM315 183c74 0 125 49 125 131s-51 131 -125 131s-125 -49 -125 -130c0 -82 51 -132 125 -132z" />
    <glyph glyph-name="yen" unicode="&#xa5;" horiz-adv-x="637" 
d="M441 0h-236l-4 60l79 3v95h-166v47h166v64l-16 23h-150v47h118l-172 252l-93 3l3 56h237v-56l-52 -2l170 -253l168 252l-51 1v58h228v-60l-92 -2l-167 -249h121v-47h-153l-14 -22v-65h167v-47h-167v-96l80 -2z" />
    <glyph glyph-name="brokenbar" unicode="&#xa6;" horiz-adv-x="336" 
d="M205 -250h-74v400h74v-400zM205 350h-74v400h74v-400z" />
    <glyph glyph-name="section" unicode="&#xa7;" horiz-adv-x="564" 
d="M477 513h-61l-5 53c-14 11 -54 38 -104 38c-92 0 -114 -52 -114 -95c0 -131 327 -79 327 -249c0 -66 -42 -105 -74 -125c18 -19 30 -43 30 -75c0 -85 -43 -153 -208 -153c-128 0 -174 24 -174 24l-4 149l57 4l13 -110c25 -4 59 -8 103 -8c108 0 132 46 132 91
c0 128 -317 71 -317 251c0 63 37 100 67 120c-21 20 -34 46 -34 80c0 85 64 155 180 155c54 0 101 -26 126 -44l13 35h47v-141zM146 316c0 -98 157 -101 255 -150c25 14 51 38 51 86c0 90 -159 96 -260 145c-23 -12 -46 -35 -46 -81z" />
    <glyph glyph-name="dieresis" unicode="&#xa8;" horiz-adv-x="431" 
d="M295 614c-9 -7 -19 -10 -30 -10s-22 3 -30 10c-9 8 -13 19 -13 30s4 23 13 31c8 6 19 10 30 10s21 -4 30 -10c8 -8 13 -20 13 -31s-5 -22 -13 -30zM117 614c-8 -7 -19 -10 -30 -10s-21 3 -29 10c-9 8 -13 19 -13 30s4 23 13 31c8 6 18 10 29 10s22 -4 30 -10
c8 -8 13 -20 13 -31s-5 -22 -13 -30z" />
    <glyph glyph-name="copyright" unicode="&#xa9;" horiz-adv-x="850" 
d="M764 323c0 -208 -125 -337 -341 -337c-214 0 -338 129 -338 337s126 340 338 340c214 0 341 -132 341 -340zM709 323c0 184 -109 295 -286 295c-176 0 -283 -111 -283 -295c0 -185 107 -292 283 -292c177 0 286 107 286 292zM548 367h-46l-4 57c-11 11 -34 29 -70 29
c-70 0 -116 -40 -116 -127c0 -84 60 -140 125 -140c82 0 114 47 114 47l18 -34s-38 -62 -137 -62s-176 76 -176 189s75 174 164 174c40 0 69 -17 86 -30l8 22h34v-125z" />
    <glyph glyph-name="ordfeminine" unicode="&#xaa;" horiz-adv-x="450" 
d="M373 320h-58l-12 53c-6 -12 -37 -63 -128 -63s-137 37 -137 101c0 102 167 119 263 125v19c0 53 -26 78 -94 78c-74 0 -113 -38 -113 -38l-20 34s44 51 150 51c99 0 149 -39 149 -128v-232zM301 418v81c-93 -7 -192 -20 -192 -82c0 -42 30 -63 91 -63c78 0 101 64 101 64
z" />
    <glyph glyph-name="guillemotleft" unicode="&#xab;" horiz-adv-x="560" 
d="M302 384l-133 -135l133 -137l-34 -38l-172 176l172 171zM490 384l-133 -135l133 -137l-34 -38l-172 176l172 171z" />
    <glyph glyph-name="logicalnot" unicode="&#xac;" horiz-adv-x="516" 
d="M454 121h-64v166h-330v61h394v-227z" />
    <glyph glyph-name="uni00AD" unicode="&#xad;" horiz-adv-x="356" 
d="M310 247h-264v61h264v-61z" />
    <glyph glyph-name="registered" unicode="&#xae;" horiz-adv-x="715" 
d="M656 453c0 -183 -110 -303 -299 -303c-190 0 -297 120 -297 303c0 184 113 304 297 304s299 -120 299 -304zM601 453c0 163 -89 262 -244 262c-156 0 -242 -102 -242 -262c0 -164 86 -258 242 -258c155 0 244 94 244 258zM306 294h-44v317h96c86 0 132 -26 132 -91
c0 -54 -32 -84 -79 -95l75 -131h-49l-72 125h-59v-125zM359 577h-53v-127h52c46 0 85 18 85 70c0 40 -29 57 -84 57z" />
    <glyph glyph-name="macron" unicode="&#xaf;" horiz-adv-x="458" 
d="M334 633h-214v42h214v-42z" />
    <glyph glyph-name="degree" unicode="&#xb0;" horiz-adv-x="475" 
d="M237 385c-118 0 -182 75 -182 188s68 189 182 189c112 0 183 -76 183 -189s-67 -188 -183 -188zM237 442c75 0 117 53 117 132s-42 131 -117 131s-116 -52 -116 -131s40 -132 116 -132z" />
    <glyph glyph-name="plusminus" unicode="&#xb1;" horiz-adv-x="543" 
d="M306 328h-65v167h-165v61h165v167h65v-167h163v-61h-163v-167zM504 144h-465v61h465v-61z" />
    <glyph glyph-name="twosuperior" unicode="&#xb2;" 
d="M115 624h-53l4 129h43l8 -35c24 19 63 43 115 43c115 0 165 -66 165 -152c0 -120 -158 -250 -252 -316h212l7 60l52 -4l-4 -119h-361v61c4 2 265 188 265 312c0 63 -27 98 -104 98c-50 0 -82 -28 -94 -41z" />
    <glyph glyph-name="threesuperior" unicode="&#xb3;" 
d="M389 707l-154 -176c4 1 8 1 12 1c95 0 163 -60 163 -150c0 -105 -93 -164 -219 -164c-92 0 -128 25 -128 25l-3 104l50 3l7 -64c18 -6 43 -10 78 -10c92 0 143 44 143 107c0 55 -38 96 -108 96c-36 0 -57 -18 -57 -18l-33 36l164 192h-180l-6 -64h-51l3 128l60 -3h259
v-43z" />
    <glyph glyph-name="acute" unicode="&#xb4;" horiz-adv-x="237" 
d="M116 572l-57 4l95 143l77 -8z" />
    <glyph glyph-name="uni00B5" unicode="&#xb5;" horiz-adv-x="613" 
d="M440 105v332l-59 3l4 60h136v-441l59 -3l-3 -56h-127l-7 45c-6 -6 -54 -59 -172 -59c-39 0 -72 8 -99 23c0 -86 1 -173 1 -259h-81l1 533v154l-59 3l4 60h135v-324c0 -72 46 -121 126 -121c96 0 141 50 141 50z" />
    <glyph glyph-name="paragraph" unicode="&#xb6;" horiz-adv-x="719" 
d="M597 0h-82v581h-112v-581h-80v244c-172 0 -268 67 -268 217c0 131 86 189 283 189h326v-69h-67v-581z" />
    <glyph glyph-name="periodcentered" unicode="&#xb7;" horiz-adv-x="277" 
d="M172 303c-10 -8 -22 -12 -35 -12s-26 4 -35 12c-11 9 -16 21 -16 34c0 12 5 25 16 34c9 8 22 12 35 12s25 -4 35 -12c10 -9 16 -22 16 -34c0 -13 -6 -25 -16 -34z" />
    <glyph glyph-name="cedilla" unicode="&#xb8;" horiz-adv-x="269" 
d="M43 -215l12 31s31 -29 79 -29c50 0 72 24 72 61c0 54 -98 56 -98 62l13 87h41l-9 -65c0 -6 108 -8 108 -85c0 -60 -36 -98 -110 -98c-76 0 -108 36 -108 36z" />
    <glyph glyph-name="onesuperior" unicode="&#xb9;" 
d="M236 750h62v-463l95 -2l-3 -55h-270l-4 55l109 5v389l-114 -55l-22 53z" />
    <glyph glyph-name="ordmasculine" unicode="&#xba;" horiz-adv-x="485" 
d="M242 310c-134 0 -200 71 -200 185s66 185 200 185c135 0 201 -71 201 -185s-69 -185 -201 -185zM242 355c88 0 126 51 126 140c0 88 -38 138 -126 138c-87 0 -126 -50 -126 -138s39 -140 126 -140z" />
    <glyph glyph-name="guillemotright" unicode="&#xbb;" horiz-adv-x="560" 
d="M275 244l-172 -170l-34 37l133 133l-132 138l33 39zM463 244l-172 -170l-34 37l133 133l-132 138l33 39z" />
    <glyph glyph-name="onequarter" unicode="&#xbc;" horiz-adv-x="909" 
d="M236 750h62v-463l95 -2l-3 -55h-270l-4 55l109 5v389l-114 -55l-22 53zM362 -4l-50 28l352 561l50 -27zM848 -265h-165l-3 51l52 2v90h-250l-5 45c44 80 102 212 137 340l70 -8c-36 -124 -86 -237 -129 -321h177v161l11 84h63v-245h63v-52l-63 -4v-89l45 -3z" />
    <glyph glyph-name="onehalf" unicode="&#xbd;" horiz-adv-x="968" 
d="M236 750h62v-463l95 -2l-3 -55h-270l-4 55l109 5v389l-114 -55l-22 53zM358 -4l-50 28l352 561l50 -27zM616 129h-53l4 129h43l8 -35c24 19 63 43 115 43c115 0 165 -66 165 -152c0 -120 -158 -249 -252 -316h212l7 60l52 -4l-4 -119h-361v61c4 2 265 188 265 312
c0 63 -27 98 -104 98c-50 0 -82 -28 -94 -41z" />
    <glyph glyph-name="threequarters" unicode="&#xbe;" horiz-adv-x="903" 
d="M389 707l-154 -176c4 1 8 1 12 1c95 0 163 -60 163 -150c0 -105 -93 -164 -219 -164c-92 0 -128 25 -128 25l-3 104l50 3l7 -64c18 -6 43 -10 78 -10c92 0 143 44 143 107c0 55 -38 96 -108 96c-36 0 -57 -18 -57 -18l-33 36l164 192h-180l-6 -64h-51l3 128l60 -3h259
v-43zM356 -4l-50 28l352 561l50 -27zM842 -265h-165l-3 51l52 2v90h-250l-5 45c44 80 102 212 137 340l70 -8c-36 -124 -86 -237 -129 -321h177v161l11 84h63v-245h63v-52l-63 -4v-89l45 -3z" />
    <glyph glyph-name="questiondown" unicode="&#xbf;" horiz-adv-x="476" 
d="M414 -245c0 0 -48 -19 -144 -19c-174 0 -227 88 -227 167c0 209 264 155 244 382l46 4c6 -26 9 -48 9 -68c0 -175 -211 -156 -211 -308c0 -56 31 -113 146 -113c34 0 59 4 76 9l7 102l58 -4zM343 428c-10 -8 -22 -12 -35 -12s-26 4 -35 12c-11 9 -16 21 -16 34
c0 12 5 25 16 34c9 8 22 12 35 12s25 -4 35 -12c10 -9 16 -22 16 -34c0 -13 -6 -25 -16 -34z" />
    <glyph glyph-name="Agrave" unicode="&#xc0;" horiz-adv-x="700" 
d="M209 0h-217l-4 60l79 3l228 587h111l228 -591l79 -3l-4 -56h-225v48l66 2l-59 150h-290l-59 -148l71 -2zM346 583l-124 -328h247zM389 712l-57 -5l-116 139l77 9z" />
    <glyph glyph-name="Aacute" unicode="&#xc1;" horiz-adv-x="700" 
d="M209 0h-217l-4 60l79 3l228 587h111l228 -591l79 -3l-4 -56h-225v48l66 2l-59 150h-290l-59 -148l71 -2zM346 583l-124 -328h247zM365 707l-57 4l95 143l77 -8z" />
    <glyph glyph-name="Acircumflex" unicode="&#xc2;" horiz-adv-x="700" 
d="M209 0h-217l-4 60l79 3l228 587h111l228 -591l79 -3l-4 -56h-225v48l66 2l-59 150h-290l-59 -148l71 -2zM346 583l-124 -328h247zM480 729l-130 95l-129 -95l-27 48l134 101h45l133 -101z" />
    <glyph glyph-name="Atilde" unicode="&#xc3;" horiz-adv-x="700" 
d="M209 0h-217l-4 60l79 3l228 587h111l228 -591l79 -3l-4 -56h-225v48l66 2l-59 150h-290l-59 -148l71 -2zM346 583l-124 -328h247zM520 807l10 -42s-14 -38 -82 -38s-119 49 -182 49c-47 0 -78 -33 -78 -33l-10 47s22 47 94 47c73 0 122 -51 182 -51c44 0 66 21 66 21z
" />
    <glyph glyph-name="Adieresis" unicode="&#xc4;" horiz-adv-x="700" 
d="M209 0h-217l-4 60l79 3l228 587h111l228 -591l79 -3l-4 -56h-225v48l66 2l-59 150h-290l-59 -148l71 -2zM346 583l-124 -328h247zM468 749c-9 -7 -19 -10 -30 -10s-22 3 -30 10c-9 8 -13 19 -13 30s4 23 13 31c8 6 19 10 30 10s21 -4 30 -10c8 -8 13 -20 13 -31
s-5 -22 -13 -30zM290 749c-8 -7 -19 -10 -30 -10s-21 3 -29 10c-9 8 -13 19 -13 30s4 23 13 31c8 6 18 10 29 10s22 -4 30 -10c8 -8 13 -20 13 -31s-5 -22 -13 -30z" />
    <glyph glyph-name="Aring" unicode="&#xc5;" horiz-adv-x="700" 
d="M209 0h-217l-4 60l79 3l228 587h111l228 -591l79 -3l-4 -56h-225v48l66 2l-59 150h-290l-59 -148l71 -2zM346 583l-124 -328h247zM351 722c-61 0 -102 41 -102 103c0 61 44 104 102 104c56 0 101 -43 101 -104c0 -62 -43 -103 -101 -103zM351 758c36 0 63 27 63 67
c0 41 -29 68 -63 68c-36 0 -64 -27 -64 -68c0 -40 28 -67 64 -67z" />
    <glyph glyph-name="AE" unicode="&#xc6;" horiz-adv-x="918" 
d="M855 505h-65l-4 80h-257v-226l296 1v-63h-296v-232h283l8 90l62 -4l-4 -151h-509l-4 45l80 2v153h-245l-98 -152l61 -2l-4 -46h-225l-4 60l96 2l346 528l-81 2l4 58h488l72 4v-149zM437 585l-203 -330h211v330h-8z" />
    <glyph glyph-name="Ccedilla" unicode="&#xc7;" horiz-adv-x="665" 
d="M267 -215l12 31s31 -29 79 -29c50 0 72 24 72 61c0 54 -98 56 -98 62l11 78c-187 18 -288 151 -288 342c0 207 138 333 321 333c67 0 121 -28 152 -49l14 40h51v-225h-66l-6 121c-17 13 -63 45 -133 45c-142 0 -247 -95 -247 -265c0 -167 98 -276 253 -276
c141 0 219 103 219 103l32 -54s-78 -117 -258 -117h-3l-7 -54c0 -6 108 -8 108 -85c0 -60 -36 -98 -110 -98c-76 0 -108 36 -108 36z" />
    <glyph glyph-name="Egrave" unicode="&#xc8;" horiz-adv-x="601" 
d="M533 505h-66l-4 80h-257v-226l296 1v-63h-296v-232h284l8 90l62 -4l-4 -151h-510l-4 60l80 3v528l-81 3l4 56h416l72 4v-149zM365 712l-57 -5l-116 139l77 9z" />
    <glyph glyph-name="Eacute" unicode="&#xc9;" horiz-adv-x="601" 
d="M533 505h-66l-4 80h-257v-226l296 1v-63h-296v-232h284l8 90l62 -4l-4 -151h-510l-4 60l80 3v528l-81 3l4 56h416l72 4v-149zM341 707l-57 4l95 143l77 -8z" />
    <glyph glyph-name="Ecircumflex" unicode="&#xca;" horiz-adv-x="601" 
d="M533 505h-66l-4 80h-257v-226l296 1v-63h-296v-232h284l8 90l62 -4l-4 -151h-510l-4 60l80 3v528l-81 3l4 56h416l72 4v-149zM456 729l-130 95l-129 -95l-27 48l134 101h45l133 -101z" />
    <glyph glyph-name="Edieresis" unicode="&#xcb;" horiz-adv-x="601" 
d="M533 505h-66l-4 80h-257v-226l296 1v-63h-296v-232h284l8 90l62 -4l-4 -151h-510l-4 60l80 3v528l-81 3l4 56h416l72 4v-149zM444 749c-9 -7 -19 -10 -30 -10s-22 3 -30 10c-9 8 -13 19 -13 30s4 23 13 31c8 6 19 10 30 10s21 -4 30 -10c8 -8 13 -20 13 -31
s-5 -22 -13 -30zM266 749c-8 -7 -19 -10 -30 -10s-21 3 -29 10c-9 8 -13 19 -13 30s4 23 13 31c8 6 18 10 29 10s22 -4 30 -10c8 -8 13 -20 13 -31s-5 -22 -13 -30z" />
    <glyph glyph-name="Igrave" unicode="&#xcc;" horiz-adv-x="329" 
d="M282 0h-236l-4 60l80 3v528l-81 3l4 56h239v-60l-78 -3v-528l80 -3zM202 712l-57 -5l-116 139l77 9z" />
    <glyph glyph-name="Iacute" unicode="&#xcd;" horiz-adv-x="329" 
d="M282 0h-236l-4 60l80 3v528l-81 3l4 56h239v-60l-78 -3v-528l80 -3zM178 707l-57 4l95 143l77 -8z" />
    <glyph glyph-name="Icircumflex" unicode="&#xce;" horiz-adv-x="329" 
d="M282 0h-236l-4 60l80 3v528l-81 3l4 56h239v-60l-78 -3v-528l80 -3zM293 729l-130 95l-129 -95l-27 48l134 101h45l133 -101z" />
    <glyph glyph-name="Idieresis" unicode="&#xcf;" horiz-adv-x="329" 
d="M282 0h-236l-4 60l80 3v528l-81 3l4 56h239v-60l-78 -3v-528l80 -3zM281 749c-9 -7 -19 -10 -30 -10s-22 3 -30 10c-9 8 -13 19 -13 30s4 23 13 31c8 6 19 10 30 10s21 -4 30 -10c8 -8 13 -20 13 -31s-5 -22 -13 -30zM103 749c-8 -7 -19 -10 -30 -10s-21 3 -29 10
c-9 8 -13 19 -13 30s4 23 13 31c8 6 18 10 29 10s22 -4 30 -10c8 -8 13 -20 13 -31s-5 -22 -13 -30z" />
    <glyph glyph-name="Eth" unicode="&#xd0;" horiz-adv-x="750" 
d="M46 0l-4 60l80 3v233h-94v54h94v241l-81 3l4 56h309c216 0 341 -104 341 -317c0 -210 -122 -333 -340 -333h-309zM354 582h-148v-232h212v-54h-212v-228h150c163 0 252 94 252 265c0 172 -90 249 -254 249z" />
    <glyph glyph-name="Ntilde" unicode="&#xd1;" horiz-adv-x="788" 
d="M674 -6h-88l-389 537h-1l4 -31v-440l81 -2l-4 -58h-231l-4 60l80 3v528l-81 3l4 56h165l387 -544l-2 23v461l-81 2l3 58h234v-60l-77 -3v-593zM572 807l10 -42s-14 -38 -82 -38s-119 49 -182 49c-47 0 -78 -33 -78 -33l-10 47s22 47 94 47c73 0 122 -51 182 -51
c44 0 66 21 66 21z" />
    <glyph glyph-name="Ograve" unicode="&#xd2;" horiz-adv-x="761" 
d="M707 334c0 -207 -122 -348 -327 -348s-325 141 -325 348c0 206 120 329 325 329s327 -123 327 -329zM620 334c0 166 -90 261 -240 261s-239 -95 -239 -261c0 -167 88 -280 239 -280s240 113 240 280zM418 712l-57 -5l-116 139l77 9z" />
    <glyph glyph-name="Oacute" unicode="&#xd3;" horiz-adv-x="761" 
d="M707 334c0 -207 -122 -348 -327 -348s-325 141 -325 348c0 206 120 329 325 329s327 -123 327 -329zM620 334c0 166 -90 261 -240 261s-239 -95 -239 -261c0 -167 88 -280 239 -280s240 113 240 280zM394 707l-57 4l95 143l77 -8z" />
    <glyph glyph-name="Ocircumflex" unicode="&#xd4;" horiz-adv-x="761" 
d="M707 334c0 -207 -122 -348 -327 -348s-325 141 -325 348c0 206 120 329 325 329s327 -123 327 -329zM620 334c0 166 -90 261 -240 261s-239 -95 -239 -261c0 -167 88 -280 239 -280s240 113 240 280zM509 729l-130 95l-129 -95l-27 48l134 101h45l133 -101z" />
    <glyph glyph-name="Otilde" unicode="&#xd5;" horiz-adv-x="761" 
d="M707 334c0 -207 -122 -348 -327 -348s-325 141 -325 348c0 206 120 329 325 329s327 -123 327 -329zM620 334c0 166 -90 261 -240 261s-239 -95 -239 -261c0 -167 88 -280 239 -280s240 113 240 280zM549 807l10 -42s-14 -38 -82 -38s-119 49 -182 49
c-47 0 -78 -33 -78 -33l-10 47s22 47 94 47c73 0 122 -51 182 -51c44 0 66 21 66 21z" />
    <glyph glyph-name="Odieresis" unicode="&#xd6;" horiz-adv-x="761" 
d="M707 334c0 -207 -122 -348 -327 -348s-325 141 -325 348c0 206 120 329 325 329s327 -123 327 -329zM620 334c0 166 -90 261 -240 261s-239 -95 -239 -261c0 -167 88 -280 239 -280s240 113 240 280zM498 749c-9 -7 -19 -10 -30 -10s-22 3 -30 10c-9 8 -13 19 -13 30
s4 23 13 31c8 6 19 10 30 10s21 -4 30 -10c8 -8 13 -20 13 -31s-5 -22 -13 -30zM320 749c-8 -7 -19 -10 -30 -10s-21 3 -29 10c-9 8 -13 19 -13 30s4 23 13 31c8 6 18 10 29 10s22 -4 30 -10c8 -8 13 -20 13 -31s-5 -22 -13 -30z" />
    <glyph glyph-name="multiply" unicode="&#xd7;" horiz-adv-x="405" 
d="M86 155l-46 49l115 116l-115 117l45 48l117 -118l118 118l45 -48l-116 -117l116 -116l-46 -49l-117 117z" />
    <glyph glyph-name="Oslash" unicode="&#xd8;" horiz-adv-x="761" 
d="M707 334c0 -207 -122 -348 -327 -348c-41 0 -79 6 -113 16l-44 -103l-37 6l47 110c-114 52 -178 168 -178 319c0 206 120 329 325 329c51 0 96 -8 136 -22l42 87l37 -6l-46 -95c101 -51 158 -153 158 -293zM262 82l223 493c-30 13 -66 20 -105 20
c-150 0 -239 -95 -239 -261c0 -117 43 -208 121 -252zM620 334c0 106 -37 183 -103 225l-222 -492c26 -9 54 -13 85 -13c151 0 240 113 240 280z" />
    <glyph glyph-name="Ugrave" unicode="&#xd9;" horiz-adv-x="742" 
d="M266 594l-78 -3v-352c0 -100 60 -180 184 -180c125 0 185 80 185 180v351l-82 2l3 58h237v-56l-77 -3v-369c0 -126 -82 -236 -267 -236c-184 0 -267 110 -267 236v369l-81 3l4 56h239v-56zM426 712l-57 -5l-116 139l77 9z" />
    <glyph glyph-name="Uacute" unicode="&#xda;" horiz-adv-x="742" 
d="M266 594l-78 -3v-352c0 -100 60 -180 184 -180c125 0 185 80 185 180v351l-82 2l3 58h237v-56l-77 -3v-369c0 -126 -82 -236 -267 -236c-184 0 -267 110 -267 236v369l-81 3l4 56h239v-56zM367 707l-57 4l95 143l77 -8z" />
    <glyph glyph-name="Ucircumflex" unicode="&#xdb;" horiz-adv-x="742" 
d="M266 594l-78 -3v-352c0 -100 60 -180 184 -180c125 0 185 80 185 180v351l-82 2l3 58h237v-56l-77 -3v-369c0 -126 -82 -236 -267 -236c-184 0 -267 110 -267 236v369l-81 3l4 56h239v-56zM496 729l-130 95l-129 -95l-27 48l134 101h45l133 -101z" />
    <glyph glyph-name="Udieresis" unicode="&#xdc;" horiz-adv-x="742" 
d="M266 594l-78 -3v-352c0 -100 60 -180 184 -180c125 0 185 80 185 180v351l-82 2l3 58h237v-56l-77 -3v-369c0 -126 -82 -236 -267 -236c-184 0 -267 110 -267 236v369l-81 3l4 56h239v-56zM485 749c-9 -7 -19 -10 -30 -10s-22 3 -30 10c-9 8 -13 19 -13 30s4 23 13 31
c8 6 19 10 30 10s21 -4 30 -10c8 -8 13 -20 13 -31s-5 -22 -13 -30zM307 749c-8 -7 -19 -10 -30 -10s-21 3 -29 10c-9 8 -13 19 -13 30s4 23 13 31c8 6 18 10 29 10s22 -4 30 -10c8 -8 13 -20 13 -31s-5 -22 -13 -30z" />
    <glyph glyph-name="Yacute" unicode="&#xdd;" horiz-adv-x="637" 
d="M441 0h-236l-4 60l79 3v206l-220 322l-93 3l3 56h237v-56l-52 -2l170 -253l168 252l-51 1v58h228v-60l-92 -2l-213 -318v-208l80 -2zM353 707l-57 4l95 143l77 -8z" />
    <glyph glyph-name="Thorn" unicode="&#xde;" horiz-adv-x="589" 
d="M200 0h-154l-4 60l80 3v528l-81 3l4 56h155v-114h99c152 0 243 -58 243 -200c0 -166 -125 -232 -242 -232h-100v-104zM292 471h-92v-304h91c90 0 168 44 168 164c0 103 -64 140 -167 140z" />
    <glyph glyph-name="germandbls" unicode="&#xdf;" horiz-adv-x="617" 
d="M173 0h-136l-4 60l60 3v488c0 144 79 212 211 212c121 0 191 -53 191 -157c0 -66 -47 -105 -95 -127c118 -27 179 -102 179 -234c0 -170 -84 -259 -218 -259c-108 0 -135 32 -135 32l12 50s26 -21 98 -21c98 0 160 66 160 195c0 140 -63 193 -224 193l1 11l-1 50
s144 9 144 102c0 71 -42 104 -115 104c-85 0 -128 -55 -128 -151v-551z" />
    <glyph glyph-name="agrave" unicode="&#xe0;" horiz-adv-x="536" 
d="M146 348h-61l3 157h51l7 -37c26 19 72 46 135 46c112 0 172 -56 172 -182v-273l60 -3l-4 -56h-122l-12 64c-9 -16 -49 -78 -159 -78c-114 0 -176 53 -176 143c0 146 206 154 333 167v35c0 87 -30 124 -113 124c-57 0 -94 -27 -110 -42zM240 42c97 0 130 67 133 74v127
c-121 -9 -251 -15 -251 -106c0 -63 39 -95 118 -95zM316 577l-57 -5l-116 139l77 9z" />
    <glyph glyph-name="aacute" unicode="&#xe1;" horiz-adv-x="536" 
d="M146 348h-61l3 157h51l7 -37c26 19 72 46 135 46c112 0 172 -56 172 -182v-273l60 -3l-4 -56h-122l-12 64c-9 -16 -49 -78 -159 -78c-114 0 -176 53 -176 143c0 146 206 154 333 167v35c0 87 -30 124 -113 124c-57 0 -94 -27 -110 -42zM240 42c97 0 130 67 133 74v127
c-121 -9 -251 -15 -251 -106c0 -63 39 -95 118 -95zM292 572l-57 4l95 143l77 -8z" />
    <glyph glyph-name="acircumflex" unicode="&#xe2;" horiz-adv-x="536" 
d="M146 348h-61l3 157h51l7 -37c26 19 72 46 135 46c112 0 172 -56 172 -182v-273l60 -3l-4 -56h-122l-12 64c-9 -16 -49 -78 -159 -78c-114 0 -176 53 -176 143c0 146 206 154 333 167v35c0 87 -30 124 -113 124c-57 0 -94 -27 -110 -42zM240 42c97 0 130 67 133 74v127
c-121 -9 -251 -15 -251 -106c0 -63 39 -95 118 -95zM406 594l-130 95l-129 -95l-27 48l134 101h45l133 -101z" />
    <glyph glyph-name="atilde" unicode="&#xe3;" horiz-adv-x="536" 
d="M146 348h-61l3 157h51l7 -37c26 19 72 46 135 46c112 0 172 -56 172 -182v-273l60 -3l-4 -56h-122l-12 64c-9 -16 -49 -78 -159 -78c-114 0 -176 53 -176 143c0 146 206 154 333 167v35c0 87 -30 124 -113 124c-57 0 -94 -27 -110 -42zM240 42c97 0 130 67 133 74v127
c-121 -9 -251 -15 -251 -106c0 -63 39 -95 118 -95zM446 672l10 -42s-14 -38 -82 -38s-119 49 -182 49c-47 0 -78 -33 -78 -33l-10 47s22 47 94 47c73 0 122 -51 182 -51c44 0 66 21 66 21z" />
    <glyph glyph-name="adieresis" unicode="&#xe4;" horiz-adv-x="536" 
d="M146 348h-61l3 157h51l7 -37c26 19 72 46 135 46c112 0 172 -56 172 -182v-273l60 -3l-4 -56h-122l-12 64c-9 -16 -49 -78 -159 -78c-114 0 -176 53 -176 143c0 146 206 154 333 167v35c0 87 -30 124 -113 124c-57 0 -94 -27 -110 -42zM240 42c97 0 130 67 133 74v127
c-121 -9 -251 -15 -251 -106c0 -63 39 -95 118 -95zM395 614c-9 -7 -19 -10 -30 -10s-22 3 -30 10c-9 8 -13 19 -13 30s4 23 13 31c8 6 19 10 30 10s21 -4 30 -10c8 -8 13 -20 13 -31s-5 -22 -13 -30zM217 614c-8 -7 -19 -10 -30 -10s-21 3 -29 10c-9 8 -13 19 -13 30
s4 23 13 31c8 6 18 10 29 10s22 -4 30 -10c8 -8 13 -20 13 -31s-5 -22 -13 -30z" />
    <glyph glyph-name="aring" unicode="&#xe5;" horiz-adv-x="536" 
d="M146 348h-61l3 157h51l7 -37c26 19 72 46 135 46c112 0 172 -56 172 -182v-273l60 -3l-4 -56h-122l-12 64c-9 -16 -49 -78 -159 -78c-114 0 -176 53 -176 143c0 146 206 154 333 167v35c0 87 -30 124 -113 124c-57 0 -94 -27 -110 -42zM240 42c97 0 130 67 133 74v127
c-121 -9 -251 -15 -251 -106c0 -63 39 -95 118 -95zM277 587c-61 0 -102 41 -102 103c0 61 44 104 102 104c56 0 101 -43 101 -104c0 -62 -43 -103 -101 -103zM277 623c36 0 63 27 63 67c0 41 -29 68 -63 68c-36 0 -64 -27 -64 -68c0 -40 28 -67 64 -67z" />
    <glyph glyph-name="ae" unicode="&#xe6;" horiz-adv-x="843" 
d="M800 235h-356c6 -127 72 -188 175 -188c101 0 150 66 150 66l38 -41s-55 -86 -190 -86c-105 0 -184 43 -224 124c-24 -59 -74 -124 -183 -124c-114 0 -170 53 -170 143c0 145 200 153 326 166l2 11v25c0 87 -29 123 -112 123c-54 0 -90 -26 -106 -41l-4 -54h-61l3 146h51
l7 -35c26 18 73 44 131 44c72 0 118 -27 139 -84c42 55 107 84 187 84c134 0 209 -71 209 -217c0 -35 -12 -62 -12 -62zM604 455c-98 0 -150 -61 -159 -165h293s1 13 1 23c0 94 -45 142 -135 142zM234 42c105 0 128 112 132 162c-1 12 -2 24 -2 37
c-117 -8 -242 -12 -242 -104c0 -62 33 -95 112 -95z" />
    <glyph glyph-name="ccedilla" unicode="&#xe7;" horiz-adv-x="487" 
d="M175 -215l12 31s31 -29 79 -29c50 0 72 24 72 61c0 54 -98 56 -98 62l11 78c-138 13 -213 107 -213 267c0 169 82 259 233 259c53 0 98 -28 124 -49l11 40h52v-170h-62l-5 71c-13 14 -50 49 -108 49c-110 0 -162 -56 -162 -199c0 -144 67 -211 173 -211
c93 0 145 60 145 60l36 -40s-51 -77 -183 -79l-7 -54c0 -6 108 -8 108 -85c0 -60 -36 -98 -110 -98c-76 0 -108 36 -108 36z" />
    <glyph glyph-name="egrave" unicode="&#xe8;" horiz-adv-x="518" 
d="M474 235h-356c6 -127 72 -188 175 -188c101 0 150 66 150 66l38 -41s-55 -86 -190 -86c-155 0 -253 93 -253 265c0 168 95 263 239 263c134 0 209 -71 209 -217c0 -35 -12 -62 -12 -62zM278 455c-98 0 -150 -61 -159 -165h293s1 13 1 23c0 94 -45 142 -135 142zM317 577
l-57 -5l-116 139l77 9z" />
    <glyph glyph-name="eacute" unicode="&#xe9;" horiz-adv-x="518" 
d="M474 235h-356c6 -127 72 -188 175 -188c101 0 150 66 150 66l38 -41s-55 -86 -190 -86c-155 0 -253 93 -253 265c0 168 95 263 239 263c134 0 209 -71 209 -217c0 -35 -12 -62 -12 -62zM278 455c-98 0 -150 -61 -159 -165h293s1 13 1 23c0 94 -45 142 -135 142zM293 572
l-57 4l95 143l77 -8z" />
    <glyph glyph-name="ecircumflex" unicode="&#xea;" horiz-adv-x="518" 
d="M474 235h-356c6 -127 72 -188 175 -188c101 0 150 66 150 66l38 -41s-55 -86 -190 -86c-155 0 -253 93 -253 265c0 168 95 263 239 263c134 0 209 -71 209 -217c0 -35 -12 -62 -12 -62zM278 455c-98 0 -150 -61 -159 -165h293s1 13 1 23c0 94 -45 142 -135 142zM408 594
l-130 95l-129 -95l-27 48l134 101h45l133 -101z" />
    <glyph glyph-name="edieresis" unicode="&#xeb;" horiz-adv-x="518" 
d="M474 235h-356c6 -127 72 -188 175 -188c101 0 150 66 150 66l38 -41s-55 -86 -190 -86c-155 0 -253 93 -253 265c0 168 95 263 239 263c134 0 209 -71 209 -217c0 -35 -12 -62 -12 -62zM278 455c-98 0 -150 -61 -159 -165h293s1 13 1 23c0 94 -45 142 -135 142zM396 614
c-9 -7 -19 -10 -30 -10s-22 3 -30 10c-9 8 -13 19 -13 30s4 23 13 31c8 6 19 10 30 10s21 -4 30 -10c8 -8 13 -20 13 -31s-5 -22 -13 -30zM218 614c-8 -7 -19 -10 -30 -10s-21 3 -29 10c-9 8 -13 19 -13 30s4 23 13 31c8 6 18 10 29 10s22 -4 30 -10c8 -8 13 -20 13 -31
s-5 -22 -13 -30z" />
    <glyph glyph-name="igrave" unicode="&#xec;" horiz-adv-x="270" 
d="M233 0h-192l-4 60l60 3v374l-59 3l3 60h136v-441l60 -3zM176 577l-57 -5l-116 139l77 9z" />
    <glyph glyph-name="iacute" unicode="&#xed;" horiz-adv-x="270" 
d="M233 0h-192l-4 60l60 3v374l-59 3l3 60h136v-441l60 -3zM152 572l-57 4l95 143l77 -8z" />
    <glyph glyph-name="icircumflex" unicode="&#xee;" horiz-adv-x="270" 
d="M233 0h-192l-4 60l60 3v374l-59 3l3 60h136v-441l60 -3zM266 594l-130 95l-129 -95l-27 48l134 101h45l133 -101z" />
    <glyph glyph-name="idieresis" unicode="&#xef;" horiz-adv-x="270" 
d="M233 0h-192l-4 60l60 3v374l-59 3l3 60h136v-441l60 -3zM255 614c-9 -7 -19 -10 -30 -10s-22 3 -30 10c-9 8 -13 19 -13 30s4 23 13 31c8 6 19 10 30 10s21 -4 30 -10c8 -8 13 -20 13 -31s-5 -22 -13 -30zM77 614c-8 -7 -19 -10 -30 -10s-21 3 -29 10c-9 8 -13 19 -13 30
s4 23 13 31c8 6 18 10 29 10s22 -4 30 -10c8 -8 13 -20 13 -31s-5 -22 -13 -30z" />
    <glyph glyph-name="eth" unicode="&#xf0;" horiz-adv-x="580" 
d="M39 260c0 163 84 254 243 254c66 0 128 -25 172 -68c-18 86 -56 150 -111 200l-128 -62l-15 30l115 56c-19 14 -39 27 -60 39l34 38c28 -14 55 -31 79 -51l96 47l15 -31l-83 -40c84 -82 139 -208 139 -400c0 -175 -85 -286 -248 -286c-160 0 -248 111 -248 274zM287 455
c-115 0 -166 -68 -166 -195s51 -215 166 -215c114 0 165 88 165 216c0 114 -51 194 -165 194z" />
    <glyph glyph-name="ntilde" unicode="&#xf1;" horiz-adv-x="607" 
d="M233 0h-192l-4 60l60 3v374l-59 3l3 60h127l7 -44c6 7 55 58 171 58c111 0 179 -45 179 -155v-300l59 -3l-3 -56h-137v344c0 73 -45 102 -125 102c-96 0 -142 -51 -142 -51v-336l60 -3zM462 672l10 -42s-14 -38 -82 -38s-119 49 -182 49c-47 0 -78 -33 -78 -33l-10 47
s22 47 94 47c73 0 122 -51 182 -51c44 0 66 21 66 21z" />
    <glyph glyph-name="ograve" unicode="&#xf2;" horiz-adv-x="573" 
d="M286 -14c-163 0 -248 105 -248 268s85 260 248 260c164 0 248 -97 248 -260s-88 -268 -248 -268zM286 45c115 0 165 81 165 208s-50 202 -165 202c-114 0 -165 -76 -165 -202c0 -127 51 -208 165 -208zM325 577l-57 -5l-116 139l77 9z" />
    <glyph glyph-name="oacute" unicode="&#xf3;" horiz-adv-x="573" 
d="M286 -14c-163 0 -248 105 -248 268s85 260 248 260c164 0 248 -97 248 -260s-88 -268 -248 -268zM286 45c115 0 165 81 165 208s-50 202 -165 202c-114 0 -165 -76 -165 -202c0 -127 51 -208 165 -208zM301 572l-57 4l95 143l77 -8z" />
    <glyph glyph-name="ocircumflex" unicode="&#xf4;" horiz-adv-x="573" 
d="M286 -14c-163 0 -248 105 -248 268s85 260 248 260c164 0 248 -97 248 -260s-88 -268 -248 -268zM286 45c115 0 165 81 165 208s-50 202 -165 202c-114 0 -165 -76 -165 -202c0 -127 51 -208 165 -208zM415 594l-130 95l-129 -95l-27 48l134 101h45l133 -101z" />
    <glyph glyph-name="otilde" unicode="&#xf5;" horiz-adv-x="573" 
d="M286 -14c-163 0 -248 105 -248 268s85 260 248 260c164 0 248 -97 248 -260s-88 -268 -248 -268zM286 45c115 0 165 81 165 208s-50 202 -165 202c-114 0 -165 -76 -165 -202c0 -127 51 -208 165 -208zM455 672l10 -42s-14 -38 -82 -38s-119 49 -182 49
c-47 0 -78 -33 -78 -33l-10 47s22 47 94 47c73 0 122 -51 182 -51c44 0 66 21 66 21z" />
    <glyph glyph-name="odieresis" unicode="&#xf6;" horiz-adv-x="573" 
d="M286 -14c-163 0 -248 105 -248 268s85 260 248 260c164 0 248 -97 248 -260s-88 -268 -248 -268zM286 45c115 0 165 81 165 208s-50 202 -165 202c-114 0 -165 -76 -165 -202c0 -127 51 -208 165 -208zM404 614c-9 -7 -19 -10 -30 -10s-22 3 -30 10c-9 8 -13 19 -13 30
s4 23 13 31c8 6 19 10 30 10s21 -4 30 -10c8 -8 13 -20 13 -31s-5 -22 -13 -30zM226 614c-8 -7 -19 -10 -30 -10s-21 3 -29 10c-9 8 -13 19 -13 30s4 23 13 31c8 6 18 10 29 10s22 -4 30 -10c8 -8 13 -20 13 -31s-5 -22 -13 -30z" />
    <glyph glyph-name="divide" unicode="&#xf7;" horiz-adv-x="543" 
d="M304 32c-10 -8 -22 -12 -35 -12s-26 4 -35 12c-11 9 -16 21 -16 34c0 12 5 25 16 34c9 8 22 12 35 12s25 -4 35 -12c10 -9 16 -22 16 -34c0 -13 -6 -25 -16 -34zM306 407c-10 -8 -22 -12 -35 -12s-26 4 -35 12c-11 9 -16 21 -16 34c0 12 5 25 16 34c9 8 22 12 35 12
s25 -4 35 -12c10 -9 16 -22 16 -34c0 -13 -6 -25 -16 -34zM504 223h-465v61h465v-61z" />
    <glyph glyph-name="oslash" unicode="&#xf8;" horiz-adv-x="585" 
d="M131 -179l-53 6l84 185c-82 41 -124 127 -124 242c0 163 85 260 248 260c36 0 68 -5 97 -14l68 150l52 -6l-75 -165c70 -41 106 -119 106 -225c0 -163 -88 -268 -248 -268c-28 0 -54 3 -77 9zM121 253c0 -83 21 -146 68 -180l168 370c-20 8 -44 12 -71 12
c-114 0 -165 -76 -165 -202zM286 45c115 0 165 81 165 208c0 72 -17 127 -52 162l-164 -364c15 -4 32 -6 51 -6z" />
    <glyph glyph-name="ugrave" unicode="&#xf9;" horiz-adv-x="603" 
d="M430 105v332l-59 3l4 60h136v-441l59 -3l-3 -56h-127l-7 45c-6 -6 -54 -59 -172 -59c-110 0 -178 66 -178 175v276l-59 3l4 60h135v-324c0 -72 46 -121 126 -121c96 0 141 50 141 50zM336 577l-57 -5l-116 139l77 9z" />
    <glyph glyph-name="uacute" unicode="&#xfa;" horiz-adv-x="603" 
d="M430 105v332l-59 3l4 60h136v-441l59 -3l-3 -56h-127l-7 45c-6 -6 -54 -59 -172 -59c-110 0 -178 66 -178 175v276l-59 3l4 60h135v-324c0 -72 46 -121 126 -121c96 0 141 50 141 50zM312 572l-57 4l95 143l77 -8z" />
    <glyph glyph-name="ucircumflex" unicode="&#xfb;" horiz-adv-x="603" 
d="M430 105v332l-59 3l4 60h136v-441l59 -3l-3 -56h-127l-7 45c-6 -6 -54 -59 -172 -59c-110 0 -178 66 -178 175v276l-59 3l4 60h135v-324c0 -72 46 -121 126 -121c96 0 141 50 141 50zM427 594l-130 95l-129 -95l-27 48l134 101h45l133 -101z" />
    <glyph glyph-name="udieresis" unicode="&#xfc;" horiz-adv-x="603" 
d="M430 105v332l-59 3l4 60h136v-441l59 -3l-3 -56h-127l-7 45c-6 -6 -54 -59 -172 -59c-110 0 -178 66 -178 175v276l-59 3l4 60h135v-324c0 -72 46 -121 126 -121c96 0 141 50 141 50zM415 614c-9 -7 -19 -10 -30 -10s-22 3 -30 10c-9 8 -13 19 -13 30s4 23 13 31
c8 6 19 10 30 10s21 -4 30 -10c8 -8 13 -20 13 -31s-5 -22 -13 -30zM237 614c-8 -7 -19 -10 -30 -10s-21 3 -29 10c-9 8 -13 19 -13 30s4 23 13 31c8 6 18 10 29 10s22 -4 30 -10c8 -8 13 -20 13 -31s-5 -22 -13 -30z" />
    <glyph glyph-name="yacute" unicode="&#xfd;" horiz-adv-x="527" 
d="M10 -243l8 55s35 -12 69 -12c55 0 103 88 145 200l-187 437l-71 3l4 60h130l166 -412h1l133 352l-53 2v58h193v-60l-66 -3l-175 -448c-56.2168 -143.915 -124 -253 -210 -253c-72 0 -87 21 -87 21zM290 572l-57 4l95 143l77 -8z" />
    <glyph glyph-name="thorn" unicode="&#xfe;" horiz-adv-x="592" 
d="M221 -250h-192l-4 60l60 3v874l-59 3l4 60h136v-305h1s40 69 158 69c137 0 230 -83 230 -240c0 -164 -85 -288 -241 -288c-86 0 -132 31 -149 47v-224l60 -3zM302 452c-103 0 -136 -72 -136 -72v-287c4 -5 41 -46 126 -46c126 0 180 94 180 225c0 130 -62 180 -170 180z
" />
    <glyph glyph-name="ydieresis" unicode="&#xff;" horiz-adv-x="527" 
d="M10 -243l8 55s35 -12 69 -12c55 0 103 88 145 200l-187 437l-71 3l4 60h130l166 -412h1l133 352l-53 2v58h193v-60l-66 -3l-175 -448c-56.2168 -143.915 -124 -253 -210 -253c-72 0 -87 21 -87 21zM393 614c-9 -7 -19 -10 -30 -10s-22 3 -30 10c-9 8 -13 19 -13 30
s4 23 13 31c8 6 19 10 30 10s21 -4 30 -10c8 -8 13 -20 13 -31s-5 -22 -13 -30zM215 614c-8 -7 -19 -10 -30 -10s-21 3 -29 10c-9 8 -13 19 -13 30s4 23 13 31c8 6 18 10 29 10s22 -4 30 -10c8 -8 13 -20 13 -31s-5 -22 -13 -30z" />
    <glyph glyph-name="Amacron" unicode="&#x100;" horiz-adv-x="700" 
d="M209 0h-217l-4 60l79 3l228 587h111l228 -591l79 -3l-4 -56h-225v48l66 2l-59 150h-290l-59 -148l71 -2zM346 583l-124 -328h247zM461 768h-214v42h214v-42z" />
    <glyph glyph-name="amacron" unicode="&#x101;" horiz-adv-x="536" 
d="M146 348h-61l3 157h51l7 -37c26 19 72 46 135 46c112 0 172 -56 172 -182v-273l60 -3l-4 -56h-122l-12 64c-9 -16 -49 -78 -159 -78c-114 0 -176 53 -176 143c0 146 206 154 333 167v35c0 87 -30 124 -113 124c-57 0 -94 -27 -110 -42zM240 42c97 0 130 67 133 74v127
c-121 -9 -251 -15 -251 -106c0 -63 39 -95 118 -95zM388 633h-214v42h214v-42z" />
    <glyph glyph-name="Abreve" unicode="&#x102;" horiz-adv-x="700" 
d="M209 0h-217l-4 60l79 3l228 587h111l228 -591l79 -3l-4 -56h-225v48l66 2l-59 150h-290l-59 -148l71 -2zM346 583l-124 -328h247zM351 764c86 0 102 59 102 59l70 -10s-21 -102 -172 -102c-152 0 -172 102 -172 102l69 10s16 -59 103 -59z" />
    <glyph glyph-name="abreve" unicode="&#x103;" horiz-adv-x="536" 
d="M146 348h-61l3 157h51l7 -37c26 19 72 46 135 46c112 0 172 -56 172 -182v-273l60 -3l-4 -56h-122l-12 64c-9 -16 -49 -78 -159 -78c-114 0 -176 53 -176 143c0 146 206 154 333 167v35c0 87 -30 124 -113 124c-57 0 -94 -27 -110 -42zM240 42c97 0 130 67 133 74v127
c-121 -9 -251 -15 -251 -106c0 -63 39 -95 118 -95zM278 629c86 0 102 59 102 59l70 -10s-21 -102 -172 -102c-152 0 -172 102 -172 102l69 10s16 -59 103 -59z" />
    <glyph glyph-name="Aogonek" unicode="&#x104;" horiz-adv-x="700" 
d="M681 -208v-42c-89 0 -184 20 -184 117c0 63 53 108 94 133h-107v48l66 2l-59 150h-290l-59 -148l71 -2l-4 -50h-217l-4 60l79 3l228 587h111l228 -591l79 -3l-4 -56h-51s-103 -44 -103 -132c0 -64 63 -76 126 -76zM346 583l-124 -328h247z" />
    <glyph glyph-name="aogonek" unicode="&#x105;" horiz-adv-x="536" 
d="M476 -208v-42c-89 0 -184 20 -184 117c0 64 54 109 95 133l-12 64c-9 -16 -49 -78 -159 -78c-114 0 -176 53 -176 143c0 146 206 154 333 167v35c0 87 -30 124 -113 124c-57 0 -94 -27 -110 -42l-4 -65h-61l3 157h51l7 -37c26 19 72 46 135 46c112 0 172 -56 172 -182
v-273l60 -3l-4 -56h-56s-103 -44 -103 -132c0 -64 63 -76 126 -76zM240 42c97 0 130 67 133 74v127c-121 -9 -251 -15 -251 -106c0 -63 39 -95 118 -95z" />
    <glyph glyph-name="Cacute" unicode="&#x106;" horiz-adv-x="665" 
d="M593 429h-66l-6 121c-17 13 -63 45 -133 45c-142 0 -247 -95 -247 -265c0 -167 98 -276 253 -276c141 0 219 103 219 103l32 -54s-78 -117 -258 -117c-215 0 -332 139 -332 344c0 207 138 333 321 333c67 0 121 -28 152 -49l14 40h51v-225zM400 707l-57 4l95 143l77 -8z
" />
    <glyph glyph-name="cacute" unicode="&#x107;" horiz-adv-x="487" 
d="M458 335h-62l-5 71c-13 14 -50 49 -108 49c-110 0 -162 -56 -162 -199c0 -144 67 -211 173 -211c93 0 145 60 145 60l36 -40s-52 -79 -188 -79c-161 0 -249 96 -249 269c0 169 82 259 233 259c53 0 98 -28 124 -49l11 40h52v-170zM314 572l-57 4l95 143l77 -8z" />
    <glyph glyph-name="Ccaron" unicode="&#x10c;" horiz-adv-x="665" 
d="M593 429h-66l-6 121c-17 13 -63 45 -133 45c-142 0 -247 -95 -247 -265c0 -167 98 -276 253 -276c141 0 219 103 219 103l32 -54s-78 -117 -258 -117c-215 0 -332 139 -332 344c0 207 138 333 321 333c67 0 121 -28 152 -49l14 40h51v-225zM542 808l-134 -100h-45
l-133 100l26 48l129 -96l131 96z" />
    <glyph glyph-name="ccaron" unicode="&#x10d;" horiz-adv-x="487" 
d="M458 335h-62l-5 71c-13 14 -50 49 -108 49c-110 0 -162 -56 -162 -199c0 -144 67 -211 173 -211c93 0 145 60 145 60l36 -40s-52 -79 -188 -79c-161 0 -249 96 -249 269c0 169 82 259 233 259c53 0 98 -28 124 -49l11 40h52v-170zM456 673l-134 -100h-45l-133 100l26 48
l129 -96l131 96z" />
    <glyph glyph-name="Dcaron" unicode="&#x10e;" horiz-adv-x="750" 
d="M46 0l-4 60l80 3v528l-81 3l4 56h309c216 0 341 -104 341 -317c0 -210 -122 -333 -340 -333h-309zM354 582h-148v-514h150c163 0 252 94 252 265c0 172 -90 249 -254 249zM486 808l-134 -100h-45l-133 100l26 48l129 -96l131 96z" />
    <glyph glyph-name="dcaron" unicode="&#x10f;" horiz-adv-x="600" 
d="M563 0h-126l-8 55c-9 -14 -54 -69 -162 -69c-136 0 -229 104 -229 261c0 164 81 267 236 267c107 0 152 -48 152 -48h1v221l-59 3l4 60h135v-691l60 -3zM291 48c88 0 129 58 136 70v288c-6 6 -45 47 -126 47c-127 0 -180 -72 -180 -204c0 -130 62 -201 170 -201zM621 545
l-48 7c22 45 40 129 36 182l6 35l55 -7c-3 -66 -25 -167 -49 -217z" />
    <glyph glyph-name="Dcroat" unicode="&#x110;" horiz-adv-x="750" 
d="M46 0l-4 60l80 3v233h-94v54h94v241l-81 3l4 56h309c216 0 341 -104 341 -317c0 -210 -122 -333 -340 -333h-309zM354 582h-148v-232h212v-54h-212v-228h150c163 0 252 94 252 265c0 172 -90 249 -254 249z" />
    <glyph glyph-name="dcroat" unicode="&#x111;" horiz-adv-x="600" 
d="M563 0h-127l-7 54c-10 -14 -55 -68 -162 -68c-136 0 -229 93 -229 250c0 164 81 278 236 278c107 0 152 -48 152 -48h1v150h-141v55h141v79h80v-79h73v-48l-70 -7h-3v-550l60 -2zM291 48c88 0 129 58 136 70v288c-6 6 -45 47 -126 47c-127 0 -180 -83 -180 -215
c0 -130 62 -190 170 -190z" />
    <glyph glyph-name="Emacron" unicode="&#x112;" horiz-adv-x="601" 
d="M533 505h-66l-4 80h-257v-226l296 1v-63h-296v-232h284l8 90l62 -4l-4 -151h-510l-4 60l80 3v528l-81 3l4 56h416l72 4v-149zM437 768h-214v42h214v-42z" />
    <glyph glyph-name="emacron" unicode="&#x113;" horiz-adv-x="518" 
d="M474 235h-356c6 -127 72 -188 175 -188c101 0 150 66 150 66l38 -41s-55 -86 -190 -86c-155 0 -253 93 -253 265c0 168 95 263 239 263c134 0 209 -71 209 -217c0 -35 -12 -62 -12 -62zM278 455c-98 0 -150 -61 -159 -165h293s1 13 1 23c0 94 -45 142 -135 142zM388 633
h-214v42h214v-42z" />
    <glyph glyph-name="Edotaccent" unicode="&#x116;" horiz-adv-x="601" 
d="M533 505h-66l-4 80h-257v-226l296 1v-63h-296v-232h284l8 90l62 -4l-4 -151h-510l-4 60l80 3v528l-81 3l4 56h416l72 4v-149zM362 744c-9 -7 -22 -10 -35 -10s-27 3 -36 11c-10 8 -14 21 -14 34s4 26 14 35c9 7 22 11 35 11s26 -4 36 -11c9 -9 14 -22 14 -35
s-5 -26 -14 -35z" />
    <glyph glyph-name="edotaccent" unicode="&#x117;" horiz-adv-x="518" 
d="M474 235h-356c6 -127 72 -188 175 -188c101 0 150 66 150 66l38 -41s-55 -86 -190 -86c-155 0 -253 93 -253 265c0 168 95 263 239 263c134 0 209 -71 209 -217c0 -35 -12 -62 -12 -62zM278 455c-98 0 -150 -61 -159 -165h293s1 13 1 23c0 94 -45 142 -135 142zM313 609
c-9 -7 -22 -10 -35 -10s-27 3 -36 11c-10 8 -14 21 -14 34s4 26 14 35c9 7 22 11 35 11s26 -4 36 -11c9 -9 14 -22 14 -35s-5 -26 -14 -35z" />
    <glyph glyph-name="Eogonek" unicode="&#x118;" horiz-adv-x="601" 
d="M577 -208v-42c-89 0 -184 20 -184 117c0 63 53 108 94 133h-441l-4 60l80 3v528l-81 3l4 56h416l72 4v-149h-66l-4 80h-257v-226l296 1v-63h-296v-232h284l8 90l62 -4l-4 -151h-2s-103 -44 -103 -132c0 -64 63 -76 126 -76z" />
    <glyph glyph-name="eogonek" unicode="&#x119;" horiz-adv-x="518" 
d="M392 -208v-42c-89 0 -184 20 -184 117c0 53 37 93 73 119c-149 4 -243 96 -243 265c0 168 95 263 239 263c134 0 209 -71 209 -217c0 -35 -12 -62 -12 -62h-356c6 -127 72 -188 175 -188c101 0 150 66 150 66l38 -41s-39 -58 -126 -79c-27 -14 -89 -55 -89 -125
c0 -64 63 -76 126 -76zM278 455c-98 0 -150 -61 -159 -165h293s1 13 1 23c0 94 -45 142 -135 142z" />
    <glyph glyph-name="Ecaron" unicode="&#x11a;" horiz-adv-x="601" 
d="M533 505h-66l-4 80h-257v-226l296 1v-63h-296v-232h284l8 90l62 -4l-4 -151h-510l-4 60l80 3v528l-81 3l4 56h416l72 4v-149zM483 808l-134 -100h-45l-133 100l26 48l129 -96l131 96z" />
    <glyph glyph-name="ecaron" unicode="&#x11b;" horiz-adv-x="518" 
d="M474 235h-356c6 -127 72 -188 175 -188c101 0 150 66 150 66l38 -41s-55 -86 -190 -86c-155 0 -253 93 -253 265c0 168 95 263 239 263c134 0 209 -71 209 -217c0 -35 -12 -62 -12 -62zM278 455c-98 0 -150 -61 -159 -165h293s1 13 1 23c0 94 -45 142 -135 142zM435 673
l-134 -100h-45l-133 100l26 48l129 -96l131 96z" />
    <glyph glyph-name="Gbreve" unicode="&#x11e;" horiz-adv-x="723" 
d="M593 459h-62l-6 92c-17 14 -60 44 -133 44c-169 0 -251 -93 -251 -262c0 -173 93 -279 237 -279c143 0 177 83 183 101v101h-157v55h228v-311h-50l-11 70c-35 -41 -99 -84 -211 -84c-195 0 -305 139 -305 347c0 207 126 330 328 330c61 0 115 -26 148 -48l11 39h51v-195z
M402 764c86 0 102 59 102 59l70 -10s-21 -102 -172 -102c-152 0 -172 102 -172 102l69 10s16 -59 103 -59z" />
    <glyph glyph-name="gbreve" unicode="&#x11f;" horiz-adv-x="532" 
d="M513 439l-62 -2c15 -25 23 -57 23 -97c0 -118 -81 -187 -204 -187c0 0 -90 -1 -90 -39c0 -28 18 -51 110 -55c138.998 -6.04297 226 -35 226 -145c0 -104 -75 -178 -238 -178c-166 0 -237 74 -237 175c0 72 47 109 102 127c-18 17 -28 40 -28 72c0 31 20 52 46 65
c-64 30 -103 88 -103 165c0 132 108 174 220 174c40 0 77 -7 108 -20l123 6zM267 -1c-15 1 -29 2 -43 4c-49 -4 -106 -32 -106 -92c0 -69 52 -115 161 -115c105 0 160 44 160 112c0 74 -64 85 -172 91zM273 456c-72 0 -138 -22 -138 -116c0 -82 50 -132 133 -132
c81 0 128 49 128 133c0 89 -49 115 -123 115zM257 629c86 0 102 59 102 59l70 -10s-21 -102 -172 -102c-152 0 -172 102 -172 102l69 10s16 -59 103 -59z" />
    <glyph glyph-name="Gcommaaccent" unicode="&#x122;" horiz-adv-x="723" 
d="M593 459h-62l-6 92c-17 14 -60 44 -133 44c-169 0 -251 -93 -251 -262c0 -173 93 -279 237 -279c143 0 177 83 183 101v101h-157v55h228v-311h-50l-11 70c-35 -41 -99 -84 -211 -84c-195 0 -305 139 -305 347c0 207 126 330 328 330c61 0 115 -26 148 -48l11 39h51v-195z
M330 -289l-25 22c54 42 73 107 65 150c-8 1 -15 3 -21 8c-9 7 -13 17 -13 27s4 20 13 27c7 6 17 9 27 9s20 -3 28 -9c2 -2 4 -4 5 -6c10 -13 15 -31 15 -52c0 -57 -36 -135 -94 -176z" />
    <glyph glyph-name="gcommaaccent" unicode="&#x123;" horiz-adv-x="532" 
d="M513 439l-62 -2c15 -25 23 -57 23 -97c0 -118 -81 -187 -204 -187c0 0 -90 -1 -90 -39c0 -28 18 -51 110 -55c138.998 -6.04297 226 -35 226 -145c0 -104 -75 -178 -238 -178c-166 0 -237 74 -237 175c0 72 47 109 102 127c-18 17 -28 40 -28 72c0 31 20 52 46 65
c-64 30 -103 88 -103 165c0 132 108 174 220 174c40 0 77 -7 108 -20l123 6zM267 -1c-15 1 -29 2 -43 4c-49 -4 -106 -32 -106 -92c0 -69 52 -115 161 -115c105 0 160 44 160 112c0 74 -64 85 -172 91zM273 456c-72 0 -138 -22 -138 -116c0 -82 50 -132 133 -132
c81 0 128 49 128 133c0 89 -49 115 -123 115zM308 819l25 -22c-54 -42 -73 -107 -65 -150c8 -1 15 -3 21 -8c9 -7 13 -17 13 -27s-4 -20 -13 -27c-7 -6 -17 -9 -27 -9s-20 3 -28 9c-2 2 -4 4 -5 6c-10 13 -15 31 -15 52c0 57 36 135 94 176z" />
    <glyph glyph-name="uni012A" unicode="&#x12a;" horiz-adv-x="329" 
d="M282 0h-236l-4 60l80 3v528l-81 3l4 56h239v-60l-78 -3v-528l80 -3zM274 768h-214v42h214v-42z" />
    <glyph glyph-name="imacron" unicode="&#x12b;" horiz-adv-x="270" 
d="M233 0h-192l-4 60l60 3v374l-59 3l3 60h136v-441l60 -3zM247 633h-214v42h214v-42z" />
    <glyph glyph-name="Iogonek" unicode="&#x12e;" horiz-adv-x="329" 
d="M229 -208v-42c-89 0 -184 20 -184 117c0 63 53 108 94 133h-93l-4 60l80 3v528l-81 3l4 56h239v-60l-78 -3v-528l80 -3l-4 -56h-76s-103 -44 -103 -132c0 -64 63 -76 126 -76z" />
    <glyph glyph-name="iogonek" unicode="&#x12f;" horiz-adv-x="270" 
d="M200 -208v-42c-89 0 -184 20 -184 117c0 63 53 108 94 133h-69l-4 60l60 3v374l-59 3l3 60h136v-441l60 -3l-4 -56h-56s-103 -44 -103 -132c0 -64 63 -76 126 -76zM172 609c-9 -7 -22 -10 -35 -10s-27 3 -36 11c-10 8 -14 21 -14 34s4 26 14 35c9 7 22 11 35 11
s26 -4 36 -11c9 -9 14 -22 14 -35s-5 -26 -14 -35z" />
    <glyph glyph-name="Idotaccent" unicode="&#x130;" horiz-adv-x="329" 
d="M282 0h-236l-4 60l80 3v528l-81 3l4 56h239v-60l-78 -3v-528l80 -3zM199 744c-9 -7 -22 -10 -35 -10s-27 3 -36 11c-10 8 -14 21 -14 34s4 26 14 35c9 7 22 11 35 11s26 -4 36 -11c9 -9 14 -22 14 -35s-5 -26 -14 -35z" />
    <glyph glyph-name="dotlessi" unicode="&#x131;" horiz-adv-x="270" 
d="M233 0h-192l-4 60l60 3v374l-59 3l3 60h136v-441l60 -3z" />
    <glyph glyph-name="Kcommaaccent" unicode="&#x136;" horiz-adv-x="713" 
d="M713 0h-153l-39 34l-221 254l-94 -64v-162l80 -2l-4 -60h-236l-4 60l80 3v528l-81 3l4 56h231v-52l-70 -3v-289l92 62l207 230l-44 2v50h229v-60l-107 -3l-220 -245l245 -281l109 -1zM300 -289l-25 22c54 42 73 107 65 150c-8 1 -15 3 -21 8c-9 7 -13 17 -13 27
s4 20 13 27c7 6 17 9 27 9s20 -3 28 -9c2 -2 4 -4 5 -6c10 -13 15 -31 15 -52c0 -57 -36 -135 -94 -176z" />
    <glyph glyph-name="kcommaaccent" unicode="&#x137;" horiz-adv-x="547" 
d="M222 0h-185l-4 60l60 3v624l-59 3l3 60h136v-473l67 33l114 134l-34 2l4 54h192v-60l-92 -9l-131 -148l164 -218l92 -1l-4 -64h-123l-40 42l-156 202l-53 -26v-163l52 -3zM244 -289l-25 22c54 42 73 107 65 150c-8 1 -15 3 -21 8c-9 7 -13 17 -13 27s4 20 13 27
c7 6 17 9 27 9s20 -3 28 -9c2 -2 4 -4 5 -6c10 -13 15 -31 15 -52c0 -57 -36 -135 -94 -176z" />
    <glyph glyph-name="Lacute" unicode="&#x139;" horiz-adv-x="559" 
d="M46 0l-4 60l80 3v528l-81 3l4 56h239v-60l-78 -3v-522h276l8 94l62 -4l-4 -155h-502zM176 707l-57 4l95 143l77 -8z" />
    <glyph glyph-name="lacute" unicode="&#x13a;" horiz-adv-x="266" 
d="M229 0h-192l-4 60l60 3v624l-59 3l3 60h136v-691l60 -3zM163 797l-57 4l95 143l77 -8z" />
    <glyph glyph-name="Lcommaaccent" unicode="&#x13b;" horiz-adv-x="559" 
d="M46 0l-4 60l80 3v528l-81 3l4 56h239v-60l-78 -3v-522h276l8 94l62 -4l-4 -155h-502zM262 -289l-25 22c54 42 73 107 65 150c-8 1 -15 3 -21 8c-9 7 -13 17 -13 27s4 20 13 27c7 6 17 9 27 9s20 -3 28 -9c2 -2 4 -4 5 -6c10 -13 15 -31 15 -52c0 -57 -36 -135 -94 -176z
" />
    <glyph glyph-name="lcommaaccent" unicode="&#x13c;" horiz-adv-x="266" 
d="M229 0h-192l-4 60l60 3v624l-59 3l3 60h136v-691l60 -3zM88 -289l-25 22c54 42 73 107 65 150c-8 1 -15 3 -21 8c-9 7 -13 17 -13 27s4 20 13 27c7 6 17 9 27 9s20 -3 28 -9c2 -2 4 -4 5 -6c10 -13 15 -31 15 -52c0 -57 -36 -135 -94 -176z" />
    <glyph glyph-name="Lcaron" unicode="&#x13d;" horiz-adv-x="559" 
d="M46 0l-4 60l80 3v528l-81 3l4 56h239v-60l-78 -3v-522h276l8 94l62 -4l-4 -155h-502zM324 808l-134 -100h-45l-133 100l26 48l129 -96l131 96z" />
    <glyph glyph-name="lcaron" unicode="&#x13e;" horiz-adv-x="266" 
d="M229 0h-192l-4 60l60 3v624l-59 3l3 60h136v-691l60 -3zM288 545l-48 7c22 45 40 129 36 182l6 35l55 -7c-3 -66 -25 -167 -49 -217z" />
    <glyph glyph-name="Lslash" unicode="&#x141;" horiz-adv-x="579" 
d="M60 0l-4 60l80 3v198l-78 -46l-21 35l99 59v282l-81 3l4 56h239v-60l-78 -3v-228l147 87l21 -34l-168 -101v-246h276l8 94l62 -4l-4 -155h-502z" />
    <glyph glyph-name="lslash" unicode="&#x142;" horiz-adv-x="314" 
d="M255 0h-192l-4 60l60 3v253l-83 -53l-22 34l105 67v323l-59 3l3 60h136v-335l90 58l22 -34l-112 -72v-308l60 -3z" />
    <glyph glyph-name="Nacute" unicode="&#x143;" horiz-adv-x="788" 
d="M674 -6h-88l-389 537h-1l4 -31v-440l81 -2l-4 -58h-231l-4 60l80 3v528l-81 3l4 56h165l387 -544l-2 23v461l-81 2l3 58h234v-60l-77 -3v-593zM418 707l-57 4l95 143l77 -8z" />
    <glyph glyph-name="nacute" unicode="&#x144;" horiz-adv-x="607" 
d="M233 0h-192l-4 60l60 3v374l-59 3l3 60h127l7 -44c6 7 55 58 171 58c111 0 179 -45 179 -155v-300l59 -3l-3 -56h-137v344c0 73 -45 102 -125 102c-96 0 -142 -51 -142 -51v-336l60 -3zM307 572l-57 4l95 143l77 -8z" />
    <glyph glyph-name="Ncommaaccent" unicode="&#x145;" horiz-adv-x="788" 
d="M674 -6h-88l-389 537h-1l4 -31v-440l81 -2l-4 -58h-231l-4 60l80 3v528l-81 3l4 56h165l387 -544l-2 23v461l-81 2l3 58h234v-60l-77 -3v-593zM346 -289l-25 22c54 42 73 107 65 150c-8 1 -15 3 -21 8c-9 7 -13 17 -13 27s4 20 13 27c7 6 17 9 27 9s20 -3 28 -9
c2 -2 4 -4 5 -6c10 -13 15 -31 15 -52c0 -57 -36 -135 -94 -176z" />
    <glyph glyph-name="ncommaaccent" unicode="&#x146;" horiz-adv-x="607" 
d="M233 0h-192l-4 60l60 3v374l-59 3l3 60h127l7 -44c6 7 55 58 171 58c111 0 179 -45 179 -155v-300l59 -3l-3 -56h-137v344c0 73 -45 102 -125 102c-96 0 -142 -51 -142 -51v-336l60 -3zM279 -289l-25 22c54 42 73 107 65 150c-8 1 -15 3 -21 8c-9 7 -13 17 -13 27
s4 20 13 27c7 6 17 9 27 9s20 -3 28 -9c2 -2 4 -4 5 -6c10 -13 15 -31 15 -52c0 -57 -36 -135 -94 -176z" />
    <glyph glyph-name="Ncaron" unicode="&#x147;" horiz-adv-x="788" 
d="M674 -6h-88l-389 537h-1l4 -31v-440l81 -2l-4 -58h-231l-4 60l80 3v528l-81 3l4 56h165l387 -544l-2 23v461l-81 2l3 58h234v-60l-77 -3v-593zM576 808l-134 -100h-45l-133 100l26 48l129 -96l131 96z" />
    <glyph glyph-name="ncaron" unicode="&#x148;" horiz-adv-x="607" 
d="M233 0h-192l-4 60l60 3v374l-59 3l3 60h127l7 -44c6 7 55 58 171 58c111 0 179 -45 179 -155v-300l59 -3l-3 -56h-137v344c0 73 -45 102 -125 102c-96 0 -142 -51 -142 -51v-336l60 -3zM449 673l-134 -100h-45l-133 100l26 48l129 -96l131 96z" />
    <glyph glyph-name="Omacron" unicode="&#x14c;" horiz-adv-x="761" 
d="M707 334c0 -207 -122 -348 -327 -348s-325 141 -325 348c0 206 120 329 325 329s327 -123 327 -329zM620 334c0 166 -90 261 -240 261s-239 -95 -239 -261c0 -167 88 -280 239 -280s240 113 240 280zM490 768h-214v42h214v-42z" />
    <glyph glyph-name="omacron" unicode="&#x14d;" horiz-adv-x="573" 
d="M286 -14c-163 0 -248 105 -248 268s85 260 248 260c164 0 248 -97 248 -260s-88 -268 -248 -268zM286 45c115 0 165 81 165 208s-50 202 -165 202c-114 0 -165 -76 -165 -202c0 -127 51 -208 165 -208zM397 633h-214v42h214v-42z" />
    <glyph glyph-name="Ohungarumlaut" unicode="&#x150;" horiz-adv-x="761" 
d="M707 334c0 -207 -122 -348 -327 -348s-325 141 -325 348c0 206 120 329 325 329s327 -123 327 -329zM620 334c0 166 -90 261 -240 261s-239 -95 -239 -261c0 -167 88 -280 239 -280s240 113 240 280zM333 731l-59 6l65 145l48 -18zM483 731l-59 6l64 145l48 -18z" />
    <glyph glyph-name="ohungarumlaut" unicode="&#x151;" horiz-adv-x="573" 
d="M286 -14c-163 0 -248 105 -248 268s85 260 248 260c164 0 248 -97 248 -260s-88 -268 -248 -268zM286 45c115 0 165 81 165 208s-50 202 -165 202c-114 0 -165 -76 -165 -202c0 -127 51 -208 165 -208zM239 596l-59 6l65 145l48 -18zM389 596l-59 6l64 145l48 -18z" />
    <glyph glyph-name="OE" unicode="&#x152;" horiz-adv-x="1100" 
d="M1031 505h-65l-4 80h-257v-206c0 -7 1 -13 1 -20l295 1v-63h-296v-232h283l8 90l62 -4l-4 -151h-433v83c-56 -62 -138 -97 -241 -97c-205 0 -325 141 -325 348c0 206 120 329 325 329c103 0 185 -31 241 -88v75h338l72 4v-149zM620 334c0 166 -90 261 -240 261
s-239 -95 -239 -261c0 -167 88 -280 239 -280s240 113 240 280z" />
    <glyph glyph-name="oe" unicode="&#x153;" horiz-adv-x="932" 
d="M888 235h-355v-13c9 -118 74 -175 174 -175c101 0 150 66 150 66l38 -41s-55 -86 -190 -86c-96 0 -170 35 -212 103c-41 -66 -111 -103 -207 -103c-163 0 -248 105 -248 268s85 260 248 260c98 0 168 -35 208 -99c41 64 110 99 197 99c134 0 209 -71 209 -217
c0 -35 -12 -62 -12 -62zM286 45c115 0 165 81 165 208s-50 202 -165 202c-114 0 -165 -76 -165 -202c0 -127 51 -208 165 -208zM692 455c-98 0 -150 -61 -159 -165h293s1 13 1 23c0 94 -45 142 -135 142z" />
    <glyph glyph-name="Racute" unicode="&#x154;" horiz-adv-x="628" 
d="M642 0h-143l-33 33l-144 199h-122v-177l73 -3l-4 -52h-223l-4 60l80 6v525l-81 3l4 56h254c153 0 243 -61 243 -192c0 -103 -61 -176 -138 -208l142 -189l100 -1zM285 589h-85v-294h109c80 0 147 59 147 159c0 94 -60 135 -171 135zM316 707l-57 4l95 143l77 -8z" />
    <glyph glyph-name="racute" unicode="&#x155;" horiz-adv-x="424" 
d="M241 0h-200l-4 60l60 3v374l-64 3l4 60h123l7 -77h1s46 91 142 91c50 0 88 -14 88 -14v-148h-58l-5 95c-12 1 -25 2 -41 2c-81 0 -117 -77 -117 -77v-313l68 -3zM226 572l-57 4l95 143l77 -8z" />
    <glyph glyph-name="Rcommaaccent" unicode="&#x156;" horiz-adv-x="628" 
d="M642 0h-143l-33 33l-144 199h-122v-177l73 -3l-4 -52h-223l-4 60l80 6v525l-81 3l4 56h254c153 0 243 -61 243 -192c0 -103 -61 -176 -138 -208l142 -189l100 -1zM285 589h-85v-294h109c80 0 147 59 147 159c0 94 -60 135 -171 135zM280 -289l-25 22c54 42 73 107 65 150
c-8 1 -15 3 -21 8c-9 7 -13 17 -13 27s4 20 13 27c7 6 17 9 27 9s20 -3 28 -9c2 -2 4 -4 5 -6c10 -13 15 -31 15 -52c0 -57 -36 -135 -94 -176z" />
    <glyph glyph-name="rcommaaccent" unicode="&#x157;" horiz-adv-x="424" 
d="M241 0h-200l-4 60l60 3v374l-64 3l4 60h123l7 -77h1s46 91 142 91c50 0 88 -14 88 -14v-148h-58l-5 95c-12 1 -25 2 -41 2c-81 0 -117 -77 -117 -77v-313l68 -3zM89 -289l-25 22c54 42 73 107 65 150c-8 1 -15 3 -21 8c-9 7 -13 17 -13 27s4 20 13 27c7 6 17 9 27 9
s20 -3 28 -9c2 -2 4 -4 5 -6c10 -13 15 -31 15 -52c0 -57 -36 -135 -94 -176z" />
    <glyph glyph-name="Rcaron" unicode="&#x158;" horiz-adv-x="628" 
d="M642 0h-143l-33 33l-144 199h-122v-177l73 -3l-4 -52h-223l-4 60l80 6v525l-81 3l4 56h254c153 0 243 -61 243 -192c0 -103 -61 -176 -138 -208l142 -189l100 -1zM285 589h-85v-294h109c80 0 147 59 147 159c0 94 -60 135 -171 135zM458 808l-134 -100h-45l-133 100
l26 48l129 -96l131 96z" />
    <glyph glyph-name="rcaron" unicode="&#x159;" horiz-adv-x="424" 
d="M241 0h-200l-4 60l60 3v374l-64 3l4 60h123l7 -77h1s46 91 142 91c50 0 88 -14 88 -14v-148h-58l-5 95c-12 1 -25 2 -41 2c-81 0 -117 -77 -117 -77v-313l68 -3zM368 673l-134 -100h-45l-133 100l26 48l129 -96l131 96z" />
    <glyph glyph-name="Sacute" unicode="&#x15a;" horiz-adv-x="580" 
d="M497 501h-65l-5 55c-17 15 -60 45 -121 45c-91 0 -142 -43 -142 -114c0 -165 365 -91 365 -304c0 -117 -84 -197 -236 -197c-144 0 -220 40 -220 40l-2 143l62 4l7 -101c32 -11 82 -24 145 -24c112 0 162 58 162 126c0 156 -366 79 -366 306c0 108 79 183 211 183
c60 0 111 -27 142 -49l13 40h50v-153zM325 707l-57 4l95 143l77 -8z" />
    <glyph glyph-name="sacute" unicode="&#x15b;" horiz-adv-x="469" 
d="M409 367h-54l-6 49c-15 13 -51 41 -105 41c-62 0 -105 -27 -105 -71c0 -123 297 -71 297 -242c0 -85 -60 -158 -215 -158c-105 0 -165 26 -165 26l-7 127l50 4l6 -83c27 -8 67 -17 114 -17c96 0 135 45 135 92c0 124 -295 63 -295 242c0 85 75 137 173 137
c55 0 99 -24 125 -43l11 34h41v-138zM261 572l-57 4l95 143l77 -8z" />
    <glyph glyph-name="Scedilla" unicode="&#x15e;" horiz-adv-x="580" 
d="M184 -215l12 31s31 -29 79 -29c50 0 72 24 72 61c0 54 -98 56 -98 62l11 77c-123 5 -187 39 -187 39l-2 143l62 4l7 -101c32 -11 82 -24 145 -24c112 0 162 58 162 126c0 156 -366 79 -366 306c0 108 79 183 211 183c60 0 111 -27 142 -49l13 40h50v-153h-65l-5 55
c-17 15 -60 45 -121 45c-91 0 -142 -43 -142 -114c0 -165 365 -91 365 -304c0 -115 -81 -194 -228 -197l-7 -54c0 -6 108 -8 108 -85c0 -60 -36 -98 -110 -98c-76 0 -108 36 -108 36z" />
    <glyph glyph-name="scedilla" unicode="&#x15f;" horiz-adv-x="469" 
d="M129 -215l12 31s31 -29 79 -29c50 0 72 24 72 61c0 54 -98 56 -98 62l11 76c-95 3 -149 26 -149 26l-7 127l50 4l6 -83c27 -8 67 -17 114 -17c96 0 135 45 135 92c0 124 -295 63 -295 242c0 85 75 137 173 137c55 0 99 -24 125 -43l11 34h41v-138h-54l-6 49
c-15 13 -51 41 -105 41c-62 0 -105 -27 -105 -71c0 -123 297 -71 297 -242c0 -80 -54 -150 -190 -157l-7 -55c0 -6 108 -8 108 -85c0 -60 -36 -98 -110 -98c-76 0 -108 36 -108 36z" />
    <glyph glyph-name="Scaron" unicode="&#x160;" horiz-adv-x="580" 
d="M497 501h-65l-5 55c-17 15 -60 45 -121 45c-91 0 -142 -43 -142 -114c0 -165 365 -91 365 -304c0 -117 -84 -197 -236 -197c-144 0 -220 40 -220 40l-2 143l62 4l7 -101c32 -11 82 -24 145 -24c112 0 162 58 162 126c0 156 -366 79 -366 306c0 108 79 183 211 183
c60 0 111 -27 142 -49l13 40h50v-153zM467 808l-134 -100h-45l-133 100l26 48l129 -96l131 96z" />
    <glyph glyph-name="scaron" unicode="&#x161;" horiz-adv-x="469" 
d="M409 367h-54l-6 49c-15 13 -51 41 -105 41c-62 0 -105 -27 -105 -71c0 -123 297 -71 297 -242c0 -85 -60 -158 -215 -158c-105 0 -165 26 -165 26l-7 127l50 4l6 -83c27 -8 67 -17 114 -17c96 0 135 45 135 92c0 124 -295 63 -295 242c0 85 75 137 173 137
c55 0 99 -24 125 -43l11 34h41v-138zM393 673l-134 -100h-45l-133 100l26 48l129 -96l131 96z" />
    <glyph glyph-name="Tcommaaccent" unicode="&#x162;" horiz-adv-x="540" 
d="M60 494h-62l4 160l72 -4h396l72 4v-160h-62l-6 91h-162v-523l80 -2l-4 -60h-236l-4 60l80 3v522h-160zM226 -289l-25 22c54 42 73 107 65 150c-8 1 -15 3 -21 8c-9 7 -13 17 -13 27s4 20 13 27c7 6 17 9 27 9s20 -3 28 -9c2 -2 4 -4 5 -6c10 -13 15 -31 15 -52
c0 -57 -36 -135 -94 -176z" />
    <glyph glyph-name="tcommaaccent" unicode="&#x163;" horiz-adv-x="366" 
d="M333 437h-152v-285c0 -68 19 -99 67 -99c30 0 77 8 77 8v-54s-44 -15 -102 -15c-82 0 -122 39 -122 142v303h-61v60l61 2l9 151h71v-150h152v-63zM143 -289l-25 22c54 42 73 107 65 150c-8 1 -15 3 -21 8c-9 7 -13 17 -13 27s4 20 13 27c7 6 17 9 27 9s20 -3 28 -9
c2 -2 4 -4 5 -6c10 -13 15 -31 15 -52c0 -57 -36 -135 -94 -176z" />
    <glyph glyph-name="Tcaron" unicode="&#x164;" horiz-adv-x="540" 
d="M60 494h-62l4 160l72 -4h396l72 4v-160h-62l-6 91h-162v-523l80 -2l-4 -60h-236l-4 60l80 3v522h-160zM426 808l-134 -100h-45l-133 100l26 48l129 -96l131 96z" />
    <glyph glyph-name="tcaron" unicode="&#x165;" horiz-adv-x="366" 
d="M333 437h-152v-285c0 -68 19 -99 67 -99c30 0 77 8 77 8v-54s-44 -15 -102 -15c-82 0 -122 39 -122 142v303h-61v60l61 2l9 151h71v-150h152v-63zM328 545l-48 7c22 45 40 129 36 182l6 35l55 -7c-3 -66 -25 -167 -49 -217z" />
    <glyph glyph-name="Umacron" unicode="&#x16a;" horiz-adv-x="742" 
d="M266 594l-78 -3v-352c0 -100 60 -180 184 -180c125 0 185 80 185 180v351l-82 2l3 58h237v-56l-77 -3v-369c0 -126 -82 -236 -267 -236c-184 0 -267 110 -267 236v369l-81 3l4 56h239v-56zM474 768h-214v42h214v-42z" />
    <glyph glyph-name="umacron" unicode="&#x16b;" horiz-adv-x="603" 
d="M430 105v332l-59 3l4 60h136v-441l59 -3l-3 -56h-127l-7 45c-6 -6 -54 -59 -172 -59c-110 0 -178 66 -178 175v276l-59 3l4 60h135v-324c0 -72 46 -121 126 -121c96 0 141 50 141 50zM408 633h-214v42h214v-42z" />
    <glyph glyph-name="Uring" unicode="&#x16e;" horiz-adv-x="742" 
d="M266 594l-78 -3v-352c0 -100 60 -180 184 -180c125 0 185 80 185 180v351l-82 2l3 58h237v-56l-77 -3v-369c0 -126 -82 -236 -267 -236c-184 0 -267 110 -267 236v369l-81 3l4 56h239v-56zM364 722c-61 0 -102 41 -102 103c0 61 44 104 102 104c56 0 101 -43 101 -104
c0 -62 -43 -103 -101 -103zM364 758c36 0 63 27 63 67c0 41 -29 68 -63 68c-36 0 -64 -27 -64 -68c0 -40 28 -67 64 -67z" />
    <glyph glyph-name="uring" unicode="&#x16f;" horiz-adv-x="603" 
d="M430 105v332l-59 3l4 60h136v-441l59 -3l-3 -56h-127l-7 45c-6 -6 -54 -59 -172 -59c-110 0 -178 66 -178 175v276l-59 3l4 60h135v-324c0 -72 46 -121 126 -121c96 0 141 50 141 50zM297 587c-61 0 -102 41 -102 103c0 61 44 104 102 104c56 0 101 -43 101 -104
c0 -62 -43 -103 -101 -103zM297 623c36 0 63 27 63 67c0 41 -29 68 -63 68c-36 0 -64 -27 -64 -68c0 -40 28 -67 64 -67z" />
    <glyph glyph-name="Uhungarumlaut" unicode="&#x170;" horiz-adv-x="742" 
d="M266 594l-78 -3v-352c0 -100 60 -180 184 -180c125 0 185 80 185 180v351l-82 2l3 58h237v-56l-77 -3v-369c0 -126 -82 -236 -267 -236c-184 0 -267 110 -267 236v369l-81 3l4 56h239v-56zM309 731l-59 6l65 145l48 -18zM459 731l-59 6l64 145l48 -18z" />
    <glyph glyph-name="uhungarumlaut" unicode="&#x171;" horiz-adv-x="603" 
d="M430 105v332l-59 3l4 60h136v-441l59 -3l-3 -56h-127l-7 45c-6 -6 -54 -59 -172 -59c-110 0 -178 66 -178 175v276l-59 3l4 60h135v-324c0 -72 46 -121 126 -121c96 0 141 50 141 50zM250 596l-59 6l65 145l48 -18zM400 596l-59 6l64 145l48 -18z" />
    <glyph glyph-name="Uogonek" unicode="&#x172;" horiz-adv-x="742" 
d="M479 -208v-42c-89 0 -184 20 -184 117c0 53 37 93 73 119c-182 1 -264 110 -264 236v369l-81 3l4 56h239v-56l-78 -3v-352c0 -100 60 -180 184 -180c125 0 185 80 185 180v351l-82 2l3 58h237v-56l-77 -3v-369c0 -109 -62 -207 -199 -230c-28 -16 -86 -56 -86 -124
c0 -64 63 -76 126 -76z" />
    <glyph glyph-name="uogonek" unicode="&#x173;" horiz-adv-x="603" 
d="M532 -208v-42c-89 0 -184 20 -184 117c0 63 53 108 94 133h-2l-7 45c-6 -6 -54 -59 -172 -59c-110 0 -178 66 -178 175v276l-59 3l4 60h135v-324c0 -72 46 -121 126 -121c96 0 141 50 141 50v332l-59 3l4 60h136v-441l59 -3l-3 -56h-58s-103 -44 -103 -132
c0 -64 63 -76 126 -76z" />
    <glyph glyph-name="Ydieresis" unicode="&#x178;" horiz-adv-x="637" 
d="M441 0h-236l-4 60l79 3v206l-220 322l-93 3l3 56h237v-56l-52 -2l170 -253l168 252l-51 1v58h228v-60l-92 -2l-213 -318v-208l80 -2zM457 749c-9 -7 -19 -10 -30 -10s-22 3 -30 10c-9 8 -13 19 -13 30s4 23 13 31c8 6 19 10 30 10s21 -4 30 -10c8 -8 13 -20 13 -31
s-5 -22 -13 -30zM279 749c-8 -7 -19 -10 -30 -10s-21 3 -29 10c-9 8 -13 19 -13 30s4 23 13 31c8 6 18 10 29 10s22 -4 30 -10c8 -8 13 -20 13 -31s-5 -22 -13 -30z" />
    <glyph glyph-name="Zacute" unicode="&#x179;" horiz-adv-x="608" 
d="M559 593l-407 -528h345l8 90l62 -4l-4 -151h-518v57l407 528h-331l-6 -80h-65l3 145v4l73 -4h433v-57zM336 707l-57 4l95 143l77 -8z" />
    <glyph glyph-name="zacute" unicode="&#x17a;" horiz-adv-x="482" 
d="M436 446l-297 -385h235l7 90l58 -4l-4 -147h-395v54l296 385h-213l-6 -80h-57l3 141v4l65 -4h308v-54zM274 572l-57 4l95 143l77 -8z" />
    <glyph glyph-name="Zdotaccent" unicode="&#x17b;" horiz-adv-x="608" 
d="M559 593l-407 -528h345l8 90l62 -4l-4 -151h-518v57l407 528h-331l-6 -80h-65l3 145v4l73 -4h433v-57zM349 744c-9 -7 -22 -10 -35 -10s-27 3 -36 11c-10 8 -14 21 -14 34s4 26 14 35c9 7 22 11 35 11s26 -4 36 -11c9 -9 14 -22 14 -35s-5 -26 -14 -35z" />
    <glyph glyph-name="zdotaccent" unicode="&#x17c;" horiz-adv-x="482" 
d="M436 446l-297 -385h235l7 90l58 -4l-4 -147h-395v54l296 385h-213l-6 -80h-57l3 141v4l65 -4h308v-54zM295 609c-9 -7 -22 -10 -35 -10s-27 3 -36 11c-10 8 -14 21 -14 34s4 26 14 35c9 7 22 11 35 11s26 -4 36 -11c9 -9 14 -22 14 -35s-5 -26 -14 -35z" />
    <glyph glyph-name="Zcaron" unicode="&#x17d;" horiz-adv-x="608" 
d="M559 593l-407 -528h345l8 90l62 -4l-4 -151h-518v57l407 528h-331l-6 -80h-65l3 145v4l73 -4h433v-57zM478 808l-134 -100h-45l-133 100l26 48l129 -96l131 96z" />
    <glyph glyph-name="zcaron" unicode="&#x17e;" horiz-adv-x="482" 
d="M436 446l-297 -385h235l7 90l58 -4l-4 -147h-395v54l296 385h-213l-6 -80h-57l3 141v4l65 -4h308v-54zM416 673l-134 -100h-45l-133 100l26 48l129 -96l131 96z" />
    <glyph glyph-name="longs" unicode="&#x17f;" horiz-adv-x="274" 
d="M387 614h-57l-5 56c-10 12 -33 33 -68 33c-62 0 -84 -30 -84 -130v-515l60 -2l-4 -56h-192l-4 60l60 3v518c0 125 46 182 142 182c40 0 74 -20 96 -37l9 28h47v-140z" />
    <glyph glyph-name="florin" unicode="&#x192;" horiz-adv-x="364" 
d="M397 614h-58l-5 63c-11 11 -30 26 -58 26c-60 0 -83 -30 -83 -130v-73h171v-63h-171v-482c0 -161 -81 -219 -157 -219c-70 0 -89 18 -89 18l21 64s23 -10 59 -10c43 0 86 41 86 147v482h-61v60l61 3v81c0 125 39 182 135 182c35 0 68 -19 90 -34l5 25h54v-140z" />
    <glyph glyph-name="dotlessj" unicode="&#x237;" horiz-adv-x="266" 
d="M-65 -246l21 64s23 -10 59 -10c43 0 86 51 86 157v472l-58 3l4 60h134v-535c0 -161 -81 -229 -157 -229c-70 0 -89 18 -89 18z" />
    <glyph glyph-name="circumflex" unicode="&#x2c6;" horiz-adv-x="388" 
d="M323 594l-130 95l-129 -95l-27 48l134 101h45l133 -101z" />
    <glyph glyph-name="caron" unicode="&#x2c7;" horiz-adv-x="388" 
d="M350 673l-134 -100h-45l-133 100l26 48l129 -96l131 96z" />
    <glyph glyph-name="breve" unicode="&#x2d8;" horiz-adv-x="408" 
d="M204 629c86 0 102 59 102 59l70 -10s-21 -102 -172 -102c-152 0 -172 102 -172 102l69 10s16 -59 103 -59z" />
    <glyph glyph-name="dotaccent" unicode="&#x2d9;" horiz-adv-x="420" 
d="M280 609c-9 -7 -22 -10 -35 -10s-27 3 -36 11c-10 8 -14 21 -14 34s4 26 14 35c9 7 22 11 35 11s26 -4 36 -11c9 -9 14 -22 14 -35s-5 -26 -14 -35z" />
    <glyph glyph-name="ring" unicode="&#x2da;" horiz-adv-x="475" 
d="M177 587c-61 0 -102 41 -102 103c0 61 44 104 102 104c56 0 101 -43 101 -104c0 -62 -43 -103 -101 -103zM177 623c36 0 63 27 63 67c0 41 -29 68 -63 68c-36 0 -64 -27 -64 -68c0 -40 28 -67 64 -67z" />
    <glyph glyph-name="ogonek" unicode="&#x2db;" horiz-adv-x="269" 
d="M222 -208v-42c-89 0 -184 20 -184 117c0 103 141 157 141 157l20 -24s-103 -44 -103 -132c0 -64 63 -76 126 -76z" />
    <glyph glyph-name="tilde" unicode="&#x2dc;" horiz-adv-x="458" 
d="M395 672l10 -42s-14 -38 -82 -38s-119 49 -182 49c-47 0 -78 -33 -78 -33l-10 47s22 47 94 47c73 0 122 -51 182 -51c44 0 66 21 66 21z" />
    <glyph glyph-name="hungarumlaut" unicode="&#x2dd;" horiz-adv-x="431" 
d="M130 596l-59 6l65 145l48 -18zM280 596l-59 6l64 145l48 -18z" />
    <glyph glyph-name="tonos" unicode="&#x384;" horiz-adv-x="237" 
d="M126 561l-40 12l64 188l53 -16z" />
    <glyph glyph-name="dieresistonos" unicode="&#x385;" horiz-adv-x="237" 
d="M255 615c-8 -7 -19 -10 -29 -10c-11 0 -21 3 -29 10c-9 8 -13 18 -13 29s4 22 13 30c8 6 18 10 29 10c10 0 21 -4 29 -10c8 -8 13 -19 13 -30s-5 -21 -13 -29zM30 615c-9 -7 -19 -10 -30 -10s-21 3 -29 10c-8 8 -12 18 -12 29s4 22 12 30c8 6 18 10 29 10s21 -4 30 -10
c8 -8 12 -19 12 -30s-4 -21 -12 -29zM110 561l-40 12l64 188l53 -16z" />
    <glyph glyph-name="Alphatonos" unicode="&#x386;" horiz-adv-x="770" 
d="M279 0h-217l-4 60l79 3l228 587h111l228 -591l79 -3l-4 -56h-225v48l66 2l-59 150h-290l-59 -148l71 -2zM416 583l-124 -328h247zM170 561l-40 12l64 188l53 -16z" />
    <glyph glyph-name="Epsilontonos" unicode="&#x388;" horiz-adv-x="671" 
d="M603 505h-66l-4 80h-257v-226l296 1v-63h-296v-232h284l8 90l62 -4l-4 -151h-510l-4 60l80 3v528l-81 3l4 56h416l72 4v-149zM48 561l-40 12l64 188l53 -16z" />
    <glyph glyph-name="Etatonos" unicode="&#x389;" horiz-adv-x="836" 
d="M352 0h-236l-4 60l80 3v528l-81 3l4 56h239v-60l-78 -3v-233h354v233l-81 3l3 60h239v-60l-77 -3v-528l80 -3l-4 -56h-236l-4 60l80 3v228h-354v-229l80 -2zM48 561l-40 12l64 188l53 -16z" />
    <glyph glyph-name="Iotatonos" unicode="&#x38a;" horiz-adv-x="399" 
d="M352 0h-236l-4 60l80 3v528l-81 3l4 56h239v-60l-78 -3v-528l80 -3zM48 561l-40 12l64 188l53 -16z" />
    <glyph glyph-name="Omicrontonos" unicode="&#x38c;" horiz-adv-x="831" 
d="M777 334c0 -207 -122 -348 -327 -348s-325 141 -325 348c0 206 120 329 325 329s327 -123 327 -329zM690 334c0 166 -90 261 -240 261s-239 -95 -239 -261c0 -167 88 -280 239 -280s240 113 240 280zM96 561l-40 12l64 188l53 -16z" />
    <glyph glyph-name="Upsilontonos" unicode="&#x38e;" horiz-adv-x="707" 
d="M511 0h-236l-4 60l79 3v206l-220 322l-93 3l3 56h237v-56l-52 -2l170 -253l168 252l-51 1v58h228v-60l-92 -2l-213 -318v-208l80 -2zM-7 561l-40 12l64 188l53 -16z" />
    <glyph glyph-name="Omegatonos" unicode="&#x38f;" horiz-adv-x="831" 
d="M393 0h-267l-4 106l44 4l7 -50h169l5 4c-68 26 -219 104 -219 301c0 175 112 298 323 298s322 -123 322 -298c0 -196 -151 -275 -219 -301l6 -4h168l7 50l45 -4l-4 -106h-267l-4 105s181 64 181 263c0 134 -78 227 -235 227s-236 -93 -236 -227c0 -199 182 -263 182 -263
zM98 561l-40 12l64 188l53 -16z" />
    <glyph glyph-name="iotadieresistonos" unicode="&#x390;" horiz-adv-x="270" 
d="M287 615c-9 -7 -19 -10 -30 -10s-21 3 -29 10c-8 8 -12 18 -12 29s4 22 12 30c8 6 18 10 29 10s21 -4 30 -10c8 -8 12 -19 12 -30s-4 -21 -12 -29zM61 615c-8 -7 -19 -10 -29 -10c-11 0 -21 3 -29 10c-9 8 -13 18 -13 29s4 22 13 30c8 6 18 10 29 10c10 0 21 -4 29 -10
c8 -8 13 -19 13 -30s-5 -21 -13 -29zM233 0h-192l-4 60l60 3v374l-59 3l3 60h136v-441l60 -3zM135 561l-40 12l64 188l53 -16z" />
    <glyph glyph-name="Alpha" unicode="&#x391;" horiz-adv-x="700" 
d="M209 0h-217l-4 60l79 3l228 587h111l228 -591l79 -3l-4 -56h-225v48l66 2l-59 150h-290l-59 -148l71 -2zM346 583l-124 -328h247z" />
    <glyph glyph-name="Beta" unicode="&#x392;" horiz-adv-x="631" 
d="M320 0h-274l-4 60l80 3v528l-81 3l4 56h273c153 0 222 -60 222 -155c0 -71 -43 -118 -87 -147c78 -21 124 -72 124 -151c0 -116 -73 -197 -257 -197zM356 308h-159v-247h118c129 0 181 50 181 136c0 80 -54 111 -140 111zM197 363h155c40 0 110 34 110 124
c0 76 -55 102 -148 102h-117v-226z" />
    <glyph glyph-name="Gamma" unicode="&#x393;" horiz-adv-x="486" 
d="M292 0h-246l-4 60l80 3v528l-81 3l4 56h374l72 4v-177h-65l-5 108h-215v-526l90 -3z" />
    <glyph glyph-name="Delta" unicode="&#x394;" horiz-adv-x="665" 
d="M631 0h-597v65l243 585h111l243 -585v-65zM330 588l-214 -521h429z" />
    <glyph glyph-name="Epsilon" unicode="&#x395;" horiz-adv-x="601" 
d="M533 505h-66l-4 80h-257v-226l296 1v-63h-296v-232h284l8 90l62 -4l-4 -151h-510l-4 60l80 3v528l-81 3l4 56h416l72 4v-149z" />
    <glyph glyph-name="Zeta" unicode="&#x396;" horiz-adv-x="608" 
d="M559 593l-407 -528h345l8 90l62 -4l-4 -151h-518v57l407 528h-331l-6 -80h-65l3 145v4l73 -4h433v-57z" />
    <glyph glyph-name="Eta" unicode="&#x397;" horiz-adv-x="766" 
d="M282 0h-236l-4 60l80 3v528l-81 3l4 56h239v-60l-78 -3v-233h354v233l-81 3l3 60h239v-60l-77 -3v-528l80 -3l-4 -56h-236l-4 60l80 3v228h-354v-229l80 -2z" />
    <glyph glyph-name="Theta" unicode="&#x398;" horiz-adv-x="761" 
d="M520 290h-279v63h279v-63zM707 334c0 -207 -122 -348 -327 -348s-325 141 -325 348c0 206 120 329 325 329s327 -123 327 -329zM620 334c0 166 -90 261 -240 261s-239 -95 -239 -261c0 -167 88 -280 239 -280s240 113 240 280z" />
    <glyph glyph-name="Iota" unicode="&#x399;" horiz-adv-x="329" 
d="M282 0h-236l-4 60l80 3v528l-81 3l4 56h239v-60l-78 -3v-528l80 -3z" />
    <glyph glyph-name="Kappa" unicode="&#x39a;" horiz-adv-x="713" 
d="M713 0h-153l-39 34l-221 254l-94 -64v-162l80 -2l-4 -60h-236l-4 60l80 3v528l-81 3l4 56h231v-52l-70 -3v-289l92 62l207 230l-44 2v50h229v-60l-107 -3l-220 -245l245 -281l109 -1z" />
    <glyph glyph-name="Lambda" unicode="&#x39b;" horiz-adv-x="681" 
d="M213 0h-221l-4 60l78 3l219 587h111l219 -591l78 -3l-4 -56h-225v52l65 6l-191 523l-193 -525l72 -2z" />
    <glyph glyph-name="Mu" unicode="&#x39c;" horiz-adv-x="1002" 
d="M269 0h-223l-4 60l80 3l1 528l-81 3l3 56h186l272 -564l269 564h185v-60l-78 -3l1 -525l80 -2l-4 -60h-225l-4 52l72 3v481h-1l-258 -536h-80l-259 536h-1v-483l73 -3z" />
    <glyph glyph-name="Nu" unicode="&#x39d;" horiz-adv-x="788" 
d="M674 -6h-88l-389 537h-1l4 -31v-440l81 -2l-4 -58h-231l-4 60l80 3v528l-81 3l4 56h165l387 -544l-2 23v461l-81 2l3 58h234v-60l-77 -3v-593z" />
    <glyph glyph-name="Xi" unicode="&#x39e;" horiz-adv-x="608" 
d="M563 0h-518l-4 151l60 4l6 -88h394l6 88l60 -4zM101 505h-60l4 145h521l1 -145h-60l-6 78h-394zM461 291h-314v63h314v-63z" />
    <glyph glyph-name="Omicron" unicode="&#x39f;" horiz-adv-x="761" 
d="M707 334c0 -207 -122 -348 -327 -348s-325 141 -325 348c0 206 120 329 325 329s327 -123 327 -329zM620 334c0 166 -90 261 -240 261s-239 -95 -239 -261c0 -167 88 -280 239 -280s240 113 240 280z" />
    <glyph glyph-name="Pi" unicode="&#x3a0;" horiz-adv-x="748" 
d="M282 0h-236l-4 60l80 3v528l-81 3l4 56h658v-56l-77 -3v-529l80 -2l-4 -60h-236l-4 60l80 3v522h-336v-523l80 -2z" />
    <glyph glyph-name="Rho" unicode="&#x3a1;" horiz-adv-x="580" 
d="M291 0h-245l-4 60l80 3v528l-81 3l4 56h254c152 0 243 -58 243 -196c0 -162 -126 -227 -242 -227h-100v-172l94 -3zM285 589h-85v-303h84c90 0 171 43 171 163c0 102 -68 140 -170 140z" />
    <glyph glyph-name="Sigma" unicode="&#x3a3;" horiz-adv-x="584" 
d="M542 501h-65l-4 84h-302l169 -258l-193 -260h344l6 88l64 -4l-5 -151h-511v62l200 264l-174 263v61h399l72 4v-153z" />
    <glyph glyph-name="Tau" unicode="&#x3a4;" horiz-adv-x="540" 
d="M60 494h-62l4 160l72 -4h396l72 4v-160h-62l-6 91h-162v-523l80 -2l-4 -60h-236l-4 60l80 3v522h-160z" />
    <glyph glyph-name="Upsilon" unicode="&#x3a5;" horiz-adv-x="637" 
d="M441 0h-236l-4 60l79 3v206l-220 322l-93 3l3 56h237v-56l-52 -2l170 -253l168 252l-51 1v58h228v-60l-92 -2l-213 -318v-208l80 -2z" />
    <glyph glyph-name="Phi" unicode="&#x3a6;" horiz-adv-x="803" 
d="M522 0h-242l-4 53l87 3v62c-199 1 -324 63 -324 224c0 163 124 209 324 210v62l-81 3l4 49h230v-49l-78 -3v-62c199 -1 326 -45 326 -208s-127 -225 -326 -226v-62l88 -3zM678 342c0 124 -82 156 -240 157v-327c158 1 240 46 240 170zM125 340c0 -122 80 -167 238 -168
v327c-158 -1 -238 -35 -238 -159z" />
    <glyph glyph-name="Chi" unicode="&#x3a7;" horiz-adv-x="696" 
d="M244 594l-47 -2l151 -208v-1l1 1l151 207l-48 1v58h235v-60l-98 -2l-191 -261l199 -266l101 -1l-3 -60h-240v56l45 1l-154 210l-154 -208l47 -1v-58h-237l-4 60l102 2l196 263l-195 266l-97 3l3 56h237v-56z" />
    <glyph glyph-name="Psi" unicode="&#x3a8;" horiz-adv-x="827" 
d="M530 0h-227l-4 60l79 3v133c-210 2 -307 108 -307 257v138l-81 3l3 56h162v-185c0 -123 78 -199 223 -201v339l-80 2l4 61h229v-61l-77 -2v-339c145 1 218 71 218 194v192h148v-56l-64 -3v-145c0 -149 -92 -249 -302 -250v-134l80 -2z" />
    <glyph glyph-name="Omega" unicode="&#x3a9;" horiz-adv-x="761" 
d="M323 0h-267l-4 106l44 4l7 -50h169l5 4c-68 26 -219 104 -219 301c0 175 112 298 323 298s322 -123 322 -298c0 -196 -151 -275 -219 -301l6 -4h168l7 50l45 -4l-4 -106h-267l-4 105s181 64 181 263c0 134 -78 227 -235 227s-236 -93 -236 -227c0 -199 182 -263 182 -263
z" />
    <glyph glyph-name="Iotadieresis" unicode="&#x3aa;" horiz-adv-x="329" 
d="M282 0h-236l-4 60l80 3v528l-81 3l4 56h239v-60l-78 -3v-528l80 -3zM283 764c-9 -7 -19 -10 -30 -10s-22 3 -30 10c-9 8 -13 19 -13 30s4 23 13 31c8 6 19 10 30 10s21 -4 30 -10c8 -8 13 -20 13 -31s-5 -22 -13 -30zM105 764c-8 -7 -19 -10 -30 -10s-21 3 -29 10
c-9 8 -13 19 -13 30s4 23 13 31c8 6 18 10 29 10s22 -4 30 -10c8 -8 13 -20 13 -31s-5 -22 -13 -30z" />
    <glyph glyph-name="Upsilondieresis" unicode="&#x3ab;" horiz-adv-x="637" 
d="M441 0h-236l-4 60l79 3v206l-220 322l-93 3l3 56h237v-56l-52 -2l170 -253l168 252l-51 1v58h228v-60l-92 -2l-213 -318v-208l80 -2zM457 749c-9 -7 -19 -10 -30 -10s-22 3 -30 10c-9 8 -13 19 -13 30s4 23 13 31c8 6 19 10 30 10s21 -4 30 -10c8 -8 13 -20 13 -31
s-5 -22 -13 -30zM279 749c-8 -7 -19 -10 -30 -10s-21 3 -29 10c-9 8 -13 19 -13 30s4 23 13 31c8 6 18 10 29 10s22 -4 30 -10c8 -8 13 -20 13 -31s-5 -22 -13 -30z" />
    <glyph glyph-name="alphatonos" unicode="&#x3ac;" horiz-adv-x="600" 
d="M564 0h-127l-8 59c-9 -14 -53 -73 -161 -73c-137 0 -230 103 -230 261c0 164 81 267 242 267c103 0 147 -57 147 -57h2l5 43h74v-441l59 -3zM291 48c99 0 137 76 137 76v271s-40 58 -127 58c-127 0 -180 -72 -180 -204c0 -130 62 -201 170 -201zM300 561l-40 12l64 188
l53 -16z" />
    <glyph glyph-name="epsilontonos" unicode="&#x3ad;" horiz-adv-x="472" 
d="M231 283h103v-52h-102c-69 0 -113 -26 -113 -79c0 -55 53 -108 149 -108c122 0 163 68 163 68l27 -40s-40 -86 -199 -86c-139 0 -219 75 -219 165c0 69 49 102 99 115c-38 20 -74 55 -74 115c0 81 74 133 174 133c59 0 101 -26 124 -46l9 37h50v-138h-61l-4 47
c-14 15 -46 43 -98 43c-74 0 -117 -36 -117 -86c0 -80 89 -88 89 -88zM239 561l-40 12l64 188l53 -16z" />
    <glyph glyph-name="etatonos" unicode="&#x3ae;" horiz-adv-x="599" 
d="M311 561l-40 12l64 188l53 -16zM233 0h-192l-4 60l60 3v374l-59 3l3 60h127l6 -45c5 6 54 59 172 59c111 0 179 -46 179 -155v-609h-81v594c0 72 -45 102 -125 102c-96 0 -142 -51 -142 -51v-336l60 -3z" />
    <glyph glyph-name="iotatonos" unicode="&#x3af;" horiz-adv-x="270" 
d="M233 0h-192l-4 60l60 3v374l-59 3l3 60h136v-441l60 -3zM152 561l-40 12l64 188l53 -16z" />
    <glyph glyph-name="upsilondieresistonos" unicode="&#x3b0;" horiz-adv-x="586" 
d="M451 614c-8 -7 -19 -10 -30 -10s-21 3 -29 10c-9 8 -13 19 -13 30s4 23 13 31c8 6 18 10 29 10s22 -4 30 -10c8 -8 13 -20 13 -31s-5 -22 -13 -30zM226 614c-9 -7 -19 -10 -30 -10s-22 3 -30 10c-8 8 -12 19 -12 30s4 23 12 31c8 6 19 10 30 10s21 -4 30 -10
c8 -8 13 -20 13 -31s-5 -22 -13 -30zM431 176v261l-60 3l4 60h136v-331c0 -110 -79 -183 -215 -183c-137 0 -213 73 -213 183v268l-59 3l4 60h135v-324c0 -75 53 -126 133 -126s135 51 135 126zM295 561l-40 12l64 188l53 -16z" />
    <glyph glyph-name="alpha" unicode="&#x3b1;" horiz-adv-x="600" 
d="M564 0h-127l-8 59c-9 -14 -53 -73 -161 -73c-137 0 -230 103 -230 261c0 164 81 267 242 267c103 0 147 -57 147 -57h2l5 43h74v-441l59 -3zM291 48c99 0 137 76 137 76v271s-40 58 -127 58c-127 0 -180 -72 -180 -204c0 -130 62 -201 170 -201z" />
    <glyph glyph-name="beta" unicode="&#x3b2;" horiz-adv-x="593" 
d="M165 -250h-80v801c0 144 73 212 209 212c124 0 199 -59 199 -163c0 -83 -53 -135 -102 -166c104 -22 164 -83 164 -198c0 -138 -91 -250 -234 -250c-117 0 -156 64 -156 64v-300zM472 240c0 110 -56 151 -196 151v58s137 27 137 143c0 72 -40 110 -119 110
c-95 0 -129 -61 -129 -161v-436c5 -9 42 -58 128 -58c113 0 179 87 179 193z" />
    <glyph glyph-name="gamma" unicode="&#x3b3;" horiz-adv-x="515" 
d="M300 -250h-81v250l-174 437l-71 3l4 60h131l150 -422l131 360l-46 5l4 57h190v-60l-69 -3l-169 -437v-250z" />
    <glyph glyph-name="delta" unicode="&#x3b4;" horiz-adv-x="573" 
d="M286 -14c-163 0 -248 105 -248 268c0 119 45 203 133 239c-37 27 -64 69 -64 131c0 96 97 139 198 139c71 0 124 -7 148 -11l30 3v-107h-56l-5 43c-29 3 -69 7 -114 7c-65 0 -131 -19 -131 -85c0 -67 43 -94 97 -99h12c164 0 248 -97 248 -260s-88 -268 -248 -268z
M286 45c115 0 165 81 165 208s-50 202 -165 202c-114 0 -165 -76 -165 -202c0 -127 51 -208 165 -208z" />
    <glyph glyph-name="epsilon" unicode="&#x3b5;" horiz-adv-x="472" 
d="M231 283h103v-52h-102c-69 0 -113 -26 -113 -79c0 -55 53 -108 149 -108c122 0 163 68 163 68l27 -40s-40 -86 -199 -86c-139 0 -219 75 -219 165c0 69 49 102 99 115c-38 20 -74 55 -74 115c0 81 74 133 174 133c59 0 101 -26 124 -46l9 37h50v-138h-61l-4 47
c-14 15 -46 43 -98 43c-74 0 -117 -36 -117 -86c0 -80 89 -88 89 -88z" />
    <glyph glyph-name="zeta" unicode="&#x3b6;" horiz-adv-x="451" 
d="M100 782l4 -32h341v-55c-127 -142 -306 -360 -306 -503c0 -110 115 -133 210 -133c80 0 115 -24 115 -83c0 -82 -33 -149 -33 -149l-63 8s27 61 27 115c0 40 -18 50 -83 50c-123 0 -256 32 -256 190c0 140 169 359 294 497h-237l-65 -4l-4 95z" />
    <glyph glyph-name="eta" unicode="&#x3b7;" horiz-adv-x="599" 
d="M233 0h-192l-4 60l60 3v374l-59 3l3 60h127l6 -45c5 6 54 59 172 59c111 0 179 -46 179 -155v-609h-81v594c0 72 -45 102 -125 102c-96 0 -142 -51 -142 -51v-336l60 -3z" />
    <glyph glyph-name="theta" unicode="&#x3b8;" horiz-adv-x="585" 
d="M293 -14c-165 0 -248 138 -248 396s83 381 248 381c164 0 247 -123 247 -381s-83 -396 -247 -396zM293 705c-113 0 -162 -87 -165 -298h330c-4 211 -53 298 -165 298zM293 44c110 0 159 96 164 298h-329c6 -202 55 -298 165 -298z" />
    <glyph glyph-name="iota" unicode="&#x3b9;" horiz-adv-x="270" 
d="M233 0h-192l-4 60l60 3v374l-59 3l3 60h136v-441l60 -3z" />
    <glyph glyph-name="kappa" unicode="&#x3ba;" horiz-adv-x="551" 
d="M226 0h-185l-4 60l60 3v374l-67 3l4 60h143v-224l73 34l105 134l-31 2l3 54h187v-60l-87 -8l-124 -149l159 -218l91 -1l-4 -64h-123l-39 42l-151 203l-59 -27v-163l52 -3z" />
    <glyph glyph-name="lambda" unicode="&#x3bb;" horiz-adv-x="544" 
d="M559 60v-60h-190l-4 57l58 5l-114 346h-1l-194 -408h-126l-4 60l75 2l218 436c-36 112 -66 202 -115 202c-13 0 -38 -8 -38 -8l1 57s31 14 60 14c76 0 120.413 -104.197 170 -251l152 -450z" />
    <glyph glyph-name="mu" unicode="&#x3bc;" horiz-adv-x="613" 
d="M440 105v332l-59 3l4 60h136v-441l59 -3l-3 -56h-127l-7 45c-6 -6 -54 -59 -172 -59c-39 0 -72 8 -99 23c0 -86 1 -173 1 -259h-81l1 533v154l-59 3l4 60h135v-324c0 -72 46 -121 126 -121c96 0 141 50 141 50z" />
    <glyph glyph-name="nu" unicode="&#x3bd;" horiz-adv-x="515" 
d="M301 0h-87l-170 437l-70 3l4 60h131l150 -417h1l131 357l-47 2v58h194v-60l-68 -3z" />
    <glyph glyph-name="xi" unicode="&#x3be;" horiz-adv-x="479" 
d="M409 387h-73c-157 0 -214 -50 -214 -162c0 -132 123 -166 236 -166c82 0 119 -24 119 -83c0 -82 -44 -149 -44 -149l-52 8s27 61 27 115c0 40 -18 50 -86 50c-116 0 -283 43 -283 224c0 108 50 169 151 196c-57 27 -111 78 -111 171c0 118 90 172 187 172
c52 0 93 -24 116 -43l11 34h51l-1 -145h-61l-5 56c-14 13 -47 38 -96 38c-71 0 -123 -37 -123 -120c0 -119 128 -138 174 -138h77v-58z" />
    <glyph glyph-name="omicron" unicode="&#x3bf;" horiz-adv-x="573" 
d="M286 -14c-163 0 -248 105 -248 268s85 260 248 260c164 0 248 -97 248 -260s-88 -268 -248 -268zM286 45c115 0 165 81 165 208s-50 202 -165 202c-114 0 -165 -76 -165 -202c0 -127 51 -208 165 -208z" />
    <glyph glyph-name="pi" unicode="&#x3c0;" horiz-adv-x="611" 
d="M571 0h-137v437h-257v-378l60 -3l-4 -56h-192l-4 60l60 3v374l-59 3l3 60h529v-60l-55 -3v-378l60 -3z" />
    <glyph glyph-name="rho" unicode="&#x3c1;" horiz-adv-x="582" 
d="M155 -250h-80v554c0 119 73 210 224 210c162 0 245 -83 245 -240c0 -164 -81 -287 -236 -287c-107 0 -153 59 -153 59v-296zM155 310v-206c7 -10 47 -59 126 -59c127 0 180 95 180 227c0 130 -56 183 -164 183c-100 0 -142 -67 -142 -145z" />
    <glyph glyph-name="sigma1" unicode="&#x3c2;" horiz-adv-x="488" 
d="M460 335h-62l-5 72c-15 15 -54 48 -106 48c-111 0 -166 -56 -166 -199c0 -144 71 -197 202 -197c70 0 107 -24 107 -83c0 -82 -44 -149 -44 -149l-52 8s28 61 28 115c0 40 -19 50 -75 50c-157 0 -249 82 -249 255c0 169 82 259 232 259c54 0 101 -28 128 -49l12 40h50
v-170z" />
    <glyph glyph-name="sigma" unicode="&#x3c3;" horiz-adv-x="597" 
d="M286 514c71 0 248 -14 291 -14v-61c-19 0 -53 2 -93 4c0 0 46 -95 46 -193c0 -153 -84 -264 -244 -264c-163 0 -248 111 -248 274s85 254 248 254zM413 448l-92 6l-35 1c-114 0 -165 -68 -165 -194c0 -128 51 -217 165 -217c115 0 165 89 165 216c0 92 -32 173 -38 188z
" />
    <glyph glyph-name="tau" unicode="&#x3c4;" horiz-adv-x="398" 
d="M377 436h-188v-284c0 -68 19 -101 66 -101c48 0 83 10 83 10v-54s-32 -21 -108 -21c-82 0 -121 45 -121 148v269l3 34h-85v60l82 3h268v-64z" />
    <glyph glyph-name="upsilon" unicode="&#x3c5;" horiz-adv-x="586" 
d="M431 176v261l-60 3l4 60h136v-331c0 -110 -79 -183 -215 -183c-137 0 -213 73 -213 183v268l-59 3l4 60h135v-324c0 -75 53 -126 133 -126s135 51 135 126z" />
    <glyph glyph-name="phi" unicode="&#x3c6;" horiz-adv-x="695" 
d="M386 -250h-77v236c-175 2 -271 110 -271 275c0 163 96 251 271 253v173l-59 3l4 60h132v-236c173 -2 271 -90 271 -254s-98 -272 -271 -274v-236zM578 260c0 136 -64 194 -192 195v-410c128 1 192 78 192 215zM117 261c0 -137 64 -215 192 -216v410
c-128 -1 -192 -58 -192 -194z" />
    <glyph glyph-name="chi" unicode="&#x3c7;" horiz-adv-x="573" 
d="M186 0h-184v60l86 2l145 193l-137 182l-88 3l4 60h129l146 -204h1l105 146l-30 1l4 57h187v-60l-79 -3l-136 -182l149 -197l86 -2l-3 -56h-122l-40 44l-124 168l-114 -154h19z" />
    <glyph glyph-name="psi" unicode="&#x3c8;" horiz-adv-x="746" 
d="M413 -250h-76v236c-146 1 -260 87 -260 221v230l-68 3l4 60h140v-279c0 -102 80 -171 184 -171v637l-60 3l4 60h132v-700c107 1 187 69 187 171v216l-60 7l3 56h134v-293c0 -134 -115 -220 -264 -221v-236z" />
    <glyph glyph-name="omega" unicode="&#x3c9;" horiz-adv-x="792" 
d="M359 202v160h74v-160c0 -86 13 -147 105 -147c84 0 129 79 129 205c0 164 -67 228 -68 228l65 20c1 0 80 -59 80 -246c0 -172 -67 -276 -200 -276c-77 0 -123 42 -149 92c-26 -50 -71 -92 -147 -92c-133 0 -200 104 -200 276c0 187 78 246 80 246l65 -20
c-1 0 -68 -64 -68 -228c0 -126 45 -205 128 -205c93 0 106 61 106 147z" />
    <glyph glyph-name="iotadieresis" unicode="&#x3ca;" horiz-adv-x="270" 
d="M233 0h-192l-4 60l60 3v374l-59 3l3 60h136v-441l60 -3zM255 614c-9 -7 -19 -10 -30 -10s-22 3 -30 10c-9 8 -13 19 -13 30s4 23 13 31c8 6 19 10 30 10s21 -4 30 -10c8 -8 13 -20 13 -31s-5 -22 -13 -30zM77 614c-8 -7 -19 -10 -30 -10s-21 3 -29 10c-9 8 -13 19 -13 30
s4 23 13 31c8 6 18 10 29 10s22 -4 30 -10c8 -8 13 -20 13 -31s-5 -22 -13 -30z" />
    <glyph glyph-name="upsilondieresis" unicode="&#x3cb;" horiz-adv-x="586" 
d="M431 176v261l-60 3l4 60h136v-331c0 -110 -79 -183 -215 -183c-137 0 -213 73 -213 183v268l-59 3l4 60h135v-324c0 -75 53 -126 133 -126s135 51 135 126zM411 614c-9 -7 -19 -10 -30 -10s-22 3 -30 10c-9 8 -13 19 -13 30s4 23 13 31c8 6 19 10 30 10s21 -4 30 -10
c8 -8 13 -20 13 -31s-5 -22 -13 -30zM233 614c-8 -7 -19 -10 -30 -10s-21 3 -29 10c-9 8 -13 19 -13 30s4 23 13 31c8 6 18 10 29 10s22 -4 30 -10c8 -8 13 -20 13 -31s-5 -22 -13 -30z" />
    <glyph glyph-name="omicrontonos" unicode="&#x3cc;" horiz-adv-x="573" 
d="M286 -14c-163 0 -248 105 -248 268s85 260 248 260c164 0 248 -97 248 -260s-88 -268 -248 -268zM286 45c115 0 165 81 165 208s-50 202 -165 202c-114 0 -165 -76 -165 -202c0 -127 51 -208 165 -208zM292 561l-40 12l64 188l53 -16z" />
    <glyph glyph-name="upsilontonos" unicode="&#x3cd;" horiz-adv-x="586" 
d="M431 176v261l-60 3l4 60h136v-331c0 -110 -79 -183 -215 -183c-137 0 -213 73 -213 183v268l-59 3l4 60h135v-324c0 -75 53 -126 133 -126s135 51 135 126zM299 561l-40 12l64 188l53 -16z" />
    <glyph glyph-name="omegatonos" unicode="&#x3ce;" horiz-adv-x="792" 
d="M359 202v160h74v-160c0 -86 13 -147 105 -147c84 0 129 79 129 205c0 164 -67 228 -68 228l65 20c1 0 80 -59 80 -246c0 -172 -67 -276 -200 -276c-77 0 -123 42 -149 92c-26 -50 -71 -92 -147 -92c-133 0 -200 104 -200 276c0 187 78 246 80 246l65 -20
c-1 0 -68 -64 -68 -228c0 -126 45 -205 128 -205c93 0 106 61 106 147zM402 561l-40 12l64 188l53 -16z" />
    <glyph glyph-name="uni0400" unicode="&#x400;" horiz-adv-x="601" 
d="M533 505h-66l-4 80h-257v-226l296 1v-63h-296v-232h284l8 90l62 -4l-4 -151h-510l-4 60l80 3v528l-81 3l4 56h416l72 4v-149zM365 712l-57 -5l-116 139l77 9z" />
    <glyph glyph-name="afii10023" unicode="&#x401;" horiz-adv-x="601" 
d="M533 505h-66l-4 80h-257v-226l296 1v-63h-296v-232h284l8 90l62 -4l-4 -151h-510l-4 60l80 3v528l-81 3l4 56h416l72 4v-149zM444 749c-9 -7 -19 -10 -30 -10s-22 3 -30 10c-9 8 -13 19 -13 30s4 23 13 31c8 6 19 10 30 10s21 -4 30 -10c8 -8 13 -20 13 -31
s-5 -22 -13 -30zM266 749c-8 -7 -19 -10 -30 -10s-21 3 -29 10c-9 8 -13 19 -13 30s4 23 13 31c8 6 18 10 29 10s22 -4 30 -10c8 -8 13 -20 13 -31s-5 -22 -13 -30z" />
    <glyph glyph-name="afii10051" unicode="&#x402;" horiz-adv-x="752" 
d="M690 187c0 -161 -77 -201 -156 -201s-115 45 -115 45l7 50c1 -1 29 -34 79 -34c41 0 98 18 101 116v55c0 85 -35 112 -130 112c-88 0 -153 -51 -168 -64v-207l72 -3l-4 -56h-228l-4 60l80 3v524h-155l-5 -76l-66 4l4 139l72 -4h384l72 4l4 -139l-66 -4l-6 76h-154v-259
c5 5 78 72 199 72c135 0 183 -55 183 -164v-49z" />
    <glyph glyph-name="afii10052" unicode="&#x403;" horiz-adv-x="486" 
d="M292 0h-246l-4 60l80 3v528l-81 3l4 56h374l72 4v-177h-65l-5 108h-215v-526l90 -3zM292 707l-57 4l95 143l77 -8z" />
    <glyph glyph-name="afii10053" unicode="&#x404;" horiz-adv-x="669" 
d="M532 284h-387c14 -153 106 -230 248 -230s217 95 217 95l33 -53s-85 -110 -255 -110c-208 0 -333 134 -333 340s135 337 321 337c67 0 122 -29 154 -51l12 42h51v-187h-62l-6 84c-22 16 -71 44 -140 44c-140 0 -234 -84 -242 -248h389v-63z" />
    <glyph glyph-name="afii10054" unicode="&#x405;" horiz-adv-x="580" 
d="M497 501h-65l-5 55c-17 15 -60 45 -121 45c-91 0 -142 -43 -142 -114c0 -165 365 -91 365 -304c0 -117 -84 -197 -236 -197c-144 0 -220 40 -220 40l-2 143l62 4l7 -101c32 -11 82 -24 145 -24c112 0 162 58 162 126c0 156 -366 79 -366 306c0 108 79 183 211 183
c60 0 111 -27 142 -49l13 40h50v-153z" />
    <glyph glyph-name="afii10055" unicode="&#x406;" horiz-adv-x="329" 
d="M282 0h-236l-4 60l80 3v528l-81 3l4 56h239v-60l-78 -3v-528l80 -3z" />
    <glyph glyph-name="afii10056" unicode="&#x407;" horiz-adv-x="329" 
d="M282 0h-236l-4 60l80 3v528l-81 3l4 56h239v-60l-78 -3v-528l80 -3zM283 749c-9 -7 -19 -10 -30 -10s-22 3 -30 10c-9 8 -13 19 -13 30s4 23 13 31c8 6 19 10 30 10s21 -4 30 -10c8 -8 13 -20 13 -31s-5 -22 -13 -30zM105 749c-8 -7 -19 -10 -30 -10s-21 3 -29 10
c-9 8 -13 19 -13 30s4 23 13 31c8 6 18 10 29 10s22 -4 30 -10c8 -8 13 -20 13 -31s-5 -22 -13 -30z" />
    <glyph glyph-name="afii10057" unicode="&#x408;" horiz-adv-x="449" 
d="M407 590l-63 -3v-400c0 -161 -77 -201 -178 -201c-95 0 -139 23 -139 23l-7 139l58 4l7 -92c17 -5 40 -10 72 -10c48 0 103 23 103 137v404l-95 3l4 56h238v-60z" />
    <glyph glyph-name="afii10058" unicode="&#x409;" horiz-adv-x="1016" 
d="M692 0h-261l-4 60l80 3v522h-216c-1 -402 -88 -596 -217 -596c-36 0 -53 11 -53 11l4 69s11 -5 31 -5c95 0 152 157 157 525l-89 3l3 58h542v-56l-78 -3v-202h94c172 0 277 -51 277 -178c0 -126 -89 -211 -270 -211zM685 330h-94v-269h96c127 0 194 53 194 146
c0 92 -73 123 -196 123z" />
    <glyph glyph-name="afii10059" unicode="&#x40a;" horiz-adv-x="1069" 
d="M745 0h-261l-4 60l80 3v228h-354v-229l80 -2l-4 -60h-236l-4 60l80 3v528l-81 3l4 56h239v-60l-78 -3v-233h354v237l-81 3l4 56h239v-56l-78 -3v-202h94c172 0 277 -51 277 -178c0 -126 -89 -211 -270 -211zM738 330h-94v-269h96c127 0 194 53 194 146
c0 92 -73 123 -196 123z" />
    <glyph glyph-name="afii10060" unicode="&#x40b;" horiz-adv-x="803" 
d="M534 515l-66 -4l-6 76h-154v-259c5 5 78 72 199 72c135 0 183 -55 183 -164v-177l80 -3l-4 -56h-232l-4 56l76 3v159c0 85 -35 112 -130 112c-88 0 -153 -51 -168 -64v-207l76 -3l-4 -56h-232l-4 60l80 3v524h-155l-5 -76l-66 4l4 139l72 -4h384l72 4z" />
    <glyph glyph-name="afii10061" unicode="&#x40c;" horiz-adv-x="713" 
d="M713 0h-153l-39 34l-221 254l-94 -64v-162l80 -2l-4 -60h-236l-4 60l80 3v528l-81 3l4 56h231v-52l-70 -3v-289l92 62l207 230l-44 2v50h229v-60l-107 -3l-220 -245l245 -281l109 -1zM343 707l-57 4l95 143l77 -8z" />
    <glyph glyph-name="uni040D" unicode="&#x40d;" horiz-adv-x="775" 
d="M729 0h-231l-4 56l79 3v436l4 35h-1l-372 -520l-4 -10h-154l-4 60l80 3v528l-81 3l4 56h235v-56l-78 -3v-440l-4 -31h1l372 520l4 10h155v-56l-77 -3v-532l80 -3zM431 712l-57 -5l-116 139l77 9z" />
    <glyph glyph-name="afii10062" unicode="&#x40e;" horiz-adv-x="663" 
d="M219 594l-58 -3l208 -359l153 359l-60 1l4 58h220v-56l-78 -2l-195 -426c-65 -142 -135 -179 -238 -179c-54 0 -88 19 -88 19h-1l-4 160l58 4l9 -114c12 -3 24 -4 37 -4c49 0 91 17 140 104l-259 435l-89 3l4 56h237v-56zM357 763c86 0 100 59 100 59v1l72 -10
s-20 -102 -172 -102s-172 102 -172 102l72 10v-1s14 -59 100 -59z" />
    <glyph glyph-name="afii10145" unicode="&#x40f;" horiz-adv-x="748" 
d="M409 -211h-70l-4 211h-289l-4 60l80 3v528l-81 3l4 56h235v-56l-74 -3v-526h336v526l-77 3l4 56h234v-56l-77 -3v-529l80 -2l-4 -60h-289z" />
    <glyph glyph-name="afii10017" unicode="&#x410;" horiz-adv-x="700" 
d="M209 0h-217l-4 60l79 3l228 587h111l228 -591l79 -3l-4 -56h-225v48l66 2l-59 150h-290l-59 -148l71 -2zM346 583l-124 -328h247z" />
    <glyph glyph-name="afii10018" unicode="&#x411;" horiz-adv-x="631" 
d="M511 499h-65l-4 86h-236v-200h94c172 0 277 -51 277 -178c0 -126 -89 -207 -271 -207h-260l-4 60l80 3v528l-81 3l4 56h394l72 4v-155zM300 326h-94v-265h96c127 0 194 49 194 142c0 92 -73 123 -196 123z" />
    <glyph glyph-name="afii10019" unicode="&#x412;" horiz-adv-x="631" 
d="M320 0h-274l-4 60l80 3v528l-81 3l4 56h273c153 0 222 -60 222 -155c0 -71 -43 -118 -87 -147c78 -21 124 -72 124 -151c0 -116 -73 -197 -257 -197zM356 308h-159v-247h118c129 0 181 50 181 136c0 80 -54 111 -140 111zM197 363h155c40 0 110 34 110 124
c0 76 -55 102 -148 102h-117v-226z" />
    <glyph glyph-name="afii10020" unicode="&#x413;" horiz-adv-x="486" 
d="M292 0h-246l-4 60l80 3v528l-81 3l4 56h374l72 4v-177h-65l-5 108h-215v-526l90 -3z" />
    <glyph glyph-name="afii10021" unicode="&#x414;" horiz-adv-x="720" 
d="M112 -162h-66l-4 227h59c53 96 92 233 96 524l-85 3l4 58h551v-60l-78 -3v-522h88l-8 -227h-70l-9 162h-467zM507 585h-234c-4 -283 -41 -421 -92 -520h326v520z" />
    <glyph glyph-name="afii10022" unicode="&#x415;" horiz-adv-x="601" 
d="M533 505h-66l-4 80h-257v-226l296 1v-63h-296v-232h284l8 90l62 -4l-4 -151h-510l-4 60l80 3v528l-81 3l4 56h416l72 4v-149z" />
    <glyph glyph-name="afii10024" unicode="&#x416;" horiz-adv-x="998" 
d="M236 592l-42 -1l140 -218h108v218l-73 3l4 56h219v-56l-70 -3v-218h103l158 218l-40 1v58h225v-56l-96 -2l-183 -240l212 -291l100 -1l-4 -60h-141l-38 42l-193 267h-103v-250l80 -3l-4 -56h-232l-3 56l79 3v249h-103l-160 -259l-40 -49h-141v60l91 1l183 278l-169 253
l-93 2l4 56h222v-58z" />
    <glyph glyph-name="afii10025" unicode="&#x417;" horiz-adv-x="557" 
d="M145 498h-62l4 156h50l8 -41c28 22 74 50 129 50c129 0 200 -59 200 -161c0 -78 -53 -133 -107 -163c79 -16 136 -58 136 -148c0 -116 -85 -205 -255 -205c-177 0 -224 100 -224 100l35 52s55 -85 183 -85c115 0 173 57 173 138c0 80 -58 106 -153 106h-110v66l115 -1
c53 1 124 51 124 132c0 70 -43 107 -131 107c-53 0 -94 -28 -112 -43z" />
    <glyph glyph-name="afii10026" unicode="&#x418;" horiz-adv-x="775" 
d="M729 0h-231l-4 56l79 3v436l4 35h-1l-372 -520l-4 -10h-154l-4 60l80 3v528l-81 3l4 56h235v-56l-78 -3v-440l-4 -31h1l372 520l4 10h155v-56l-77 -3v-532l80 -3z" />
    <glyph glyph-name="afii10027" unicode="&#x419;" horiz-adv-x="775" 
d="M392 763c87 0 101 59 101 59v1l71 -10s-20 -102 -172 -102c-151 0 -172 102 -172 102l72 10v-1s14 -59 100 -59zM729 0h-231l-4 56l79 3v436l4 35h-1l-372 -520l-4 -10h-154l-4 60l80 3v528l-81 3l4 56h235v-56l-78 -3v-440l-4 -31h1l372 520l4 10h155v-56l-77 -3v-532
l80 -3z" />
    <glyph glyph-name="afii10028" unicode="&#x41a;" horiz-adv-x="713" 
d="M713 0h-153l-39 34l-221 254l-94 -64v-162l80 -2l-4 -60h-236l-4 60l80 3v528l-81 3l4 56h231v-52l-70 -3v-289l92 62l207 230l-44 2v50h229v-60l-107 -3l-220 -245l245 -281l109 -1z" />
    <glyph glyph-name="afii10029" unicode="&#x41b;" horiz-adv-x="714" 
d="M21 0l4 69s11 -5 31 -5c95 0 152 157 157 525l-89 3l3 58h541v-60l-77 -3v-525l80 -2l-4 -60h-236l-4 60l80 3v522h-216c-1 -402 -88 -596 -217 -596c-36 0 -53 11 -53 11z" />
    <glyph glyph-name="afii10030" unicode="&#x41c;" horiz-adv-x="1002" 
d="M269 0h-223l-4 60l80 3l1 528l-81 3l3 56h186l272 -564l269 564h185v-60l-78 -3l1 -525l80 -2l-4 -60h-225l-4 52l72 3v481h-1l-258 -536h-80l-259 536h-1v-483l73 -3z" />
    <glyph glyph-name="afii10031" unicode="&#x41d;" horiz-adv-x="766" 
d="M282 0h-236l-4 60l80 3v528l-81 3l4 56h239v-60l-78 -3v-233h354v233l-81 3l3 60h239v-60l-77 -3v-528l80 -3l-4 -56h-236l-4 60l80 3v228h-354v-229l80 -2z" />
    <glyph glyph-name="afii10032" unicode="&#x41e;" horiz-adv-x="761" 
d="M707 334c0 -207 -122 -348 -327 -348s-325 141 -325 348c0 206 120 329 325 329s327 -123 327 -329zM620 334c0 166 -90 261 -240 261s-239 -95 -239 -261c0 -167 88 -280 239 -280s240 113 240 280z" />
    <glyph glyph-name="afii10033" unicode="&#x41f;" horiz-adv-x="748" 
d="M282 0h-236l-4 60l80 3v528l-81 3l4 56h658v-56l-77 -3v-529l80 -2l-4 -60h-236l-4 60l80 3v522h-336v-523l80 -2z" />
    <glyph glyph-name="afii10034" unicode="&#x420;" horiz-adv-x="580" 
d="M291 0h-245l-4 60l80 3v528l-81 3l4 56h254c152 0 243 -58 243 -196c0 -162 -126 -227 -242 -227h-100v-172l94 -3zM285 589h-85v-303h84c90 0 171 43 171 163c0 102 -68 140 -170 140z" />
    <glyph glyph-name="afii10035" unicode="&#x421;" horiz-adv-x="665" 
d="M593 429h-66l-6 121c-17 13 -63 45 -133 45c-142 0 -247 -95 -247 -265c0 -167 98 -276 253 -276c141 0 219 103 219 103l32 -54s-78 -117 -258 -117c-215 0 -332 139 -332 344c0 207 138 333 321 333c67 0 121 -28 152 -49l14 40h51v-225z" />
    <glyph glyph-name="afii10036" unicode="&#x422;" horiz-adv-x="540" 
d="M60 494h-62l4 160l72 -4h396l72 4v-160h-62l-6 91h-162v-523l80 -2l-4 -60h-236l-4 60l80 3v522h-160z" />
    <glyph glyph-name="afii10037" unicode="&#x423;" horiz-adv-x="663" 
d="M219 594l-58 -3l208 -359l153 359l-60 1l4 58h220v-56l-78 -2l-195 -426c-65 -142 -135 -179 -238 -179c-54 0 -88 19 -88 19h-1l-4 160l58 4l9 -114c12 -3 24 -4 37 -4c49 0 91 17 140 104l-259 435l-89 3l4 56h237v-56z" />
    <glyph glyph-name="afii10038" unicode="&#x424;" horiz-adv-x="803" 
d="M522 0h-242l-4 53l87 3v62c-199 1 -324 63 -324 224c0 163 124 209 324 210v62l-81 3l4 49h230v-49l-78 -3v-62c199 -1 326 -45 326 -208s-127 -225 -326 -226v-62l88 -3zM678 342c0 124 -82 156 -240 157v-327c158 1 240 46 240 170zM125 340c0 -122 80 -167 238 -168
v327c-158 -1 -238 -35 -238 -159z" />
    <glyph glyph-name="afii10039" unicode="&#x425;" horiz-adv-x="696" 
d="M244 594l-47 -2l151 -208v-1l1 1l151 207l-48 1v58h235v-60l-98 -2l-191 -261l199 -266l101 -1l-3 -60h-240v56l45 1l-154 210l-154 -208l47 -1v-58h-237l-4 60l102 2l196 263l-195 266l-97 3l3 56h237v-56z" />
    <glyph glyph-name="afii10040" unicode="&#x426;" horiz-adv-x="757" 
d="M703 594l-77 -3v-526h88l-9 -227h-73l-8 162h-578l-4 60l80 3v528l-81 3l4 56h238v-56l-77 -3v-526h336v526l-81 3l4 56h238v-56z" />
    <glyph glyph-name="afii10041" unicode="&#x427;" horiz-adv-x="681" 
d="M250 594l-74 -3v-173c0 -88 42 -124 135 -124c89 0 152 31 163 36v261l-77 3l4 56h235v-56l-78 -3v-529l80 -2l-4 -60h-244l-4 60l88 3v204c-6 -4 -73 -42 -194 -42c-135 0 -188 68 -188 179v187l-71 3l4 56h225v-56z" />
    <glyph glyph-name="afii10042" unicode="&#x428;" horiz-adv-x="1017" 
d="M614 594l-63 -3v-526h260v526l-67 3l4 56h225v-56l-78 -3v-529l80 -2l-3 -60h-926l-4 60l80 3v528l-81 3l4 56h224v-56l-63 -3v-526h261v526l-67 3l4 56h210v-56z" />
    <glyph glyph-name="afii10043" unicode="&#x429;" horiz-adv-x="1027" 
d="M973 594l-78 -3v-526h82l-8 -227h-73l-9 162h-841l-4 60l80 3v528l-81 3l4 56h224v-56l-63 -3v-526h261v526l-67 3l4 56h210v-56l-63 -3v-526h260v526l-67 3l4 56h225v-56z" />
    <glyph glyph-name="afii10044" unicode="&#x42a;" horiz-adv-x="729" 
d="M405 0h-261l-4 60l80 3v522h-152l-8 -91h-62l4 160l72 -4h308v-56l-78 -3v-202h94c172 0 277 -51 277 -178c0 -126 -89 -211 -270 -211zM398 330h-94v-269h96c127 0 194 53 194 146c0 92 -73 123 -196 123z" />
    <glyph glyph-name="afii10045" unicode="&#x42b;" horiz-adv-x="915" 
d="M307 0h-261l-4 60l80 3v528l-81 3l4 56h239v-56l-78 -3v-202h94c172 0 277 -51 277 -178c0 -126 -89 -211 -270 -211zM300 330h-94v-269h96c127 0 194 53 194 146c0 92 -73 123 -196 123zM869 0h-236l-4 60l80 3v528l-81 3l4 56h239v-60l-78 -3v-528l80 -3z" />
    <glyph glyph-name="afii10046" unicode="&#x42c;" horiz-adv-x="631" 
d="M307 0h-261l-4 60l80 3v528l-81 3l4 56h239v-56l-78 -3v-202h94c172 0 277 -51 277 -178c0 -126 -89 -211 -270 -211zM300 330h-94v-269h96c127 0 194 53 194 146c0 92 -73 123 -196 123z" />
    <glyph glyph-name="afii10047" unicode="&#x42d;" horiz-adv-x="654" 
d="M14 90l33 53s81 -88 219 -88s229 78 243 233h-380v62h381c-5 164 -81 247 -230 247c-70 0 -119 -30 -140 -46l-5 -53h-58l4 156h47l9 -41c34 21 89 50 155 50c204 0 307 -127 307 -333c0 -215 -125 -344 -330 -344c-181 0 -255 104 -255 104z" />
    <glyph glyph-name="afii10048" unicode="&#x42e;" horiz-adv-x="1059" 
d="M282 0h-236l-4 60l80 3v528l-81 3l4 56h239v-52l-78 -3v-241h143c8 194 130 309 329 309c205 0 327 -123 327 -329c0 -207 -122 -348 -327 -348c-191 0 -311 121 -327 305h-145v-232l80 -3zM678 54c151 0 240 113 240 280c0 166 -90 261 -240 261s-240 -95 -240 -261
c0 -167 88 -280 240 -280z" />
    <glyph glyph-name="afii10049" unicode="&#x42f;" horiz-adv-x="641" 
d="M146 0h-125l-4 60l87 2l107 198c-79 23 -148 92 -148 198c0 132 107 192 215 192h318v-60l-78 -3v-528l80 -3l-4 -56h-231l-4 52l80 3v196h-158l-106 -210zM144 460c0 -87 70 -144 132 -144h163v272h-155c-65 0 -140 -41 -140 -128z" />
    <glyph glyph-name="afii10065" unicode="&#x430;" horiz-adv-x="536" 
d="M146 348h-61l3 157h51l7 -37c26 19 72 46 135 46c112 0 172 -56 172 -182v-273l60 -3l-4 -56h-122l-12 64c-9 -16 -49 -78 -159 -78c-114 0 -176 53 -176 143c0 146 206 154 333 167v35c0 87 -30 124 -113 124c-57 0 -94 -27 -110 -42zM240 42c97 0 130 67 133 74v127
c-121 -9 -251 -15 -251 -106c0 -63 39 -95 118 -95z" />
    <glyph glyph-name="afii10066" unicode="&#x431;" horiz-adv-x="582" 
d="M487 676l-25 1l-114 -11c-177.983 -17.1738 -226 -91 -237 -250c36 58 99 97 192 97c156 0 240 -90 240 -253s-89 -274 -248 -274c-171 0 -249 114 -249 294c0 241 24 423 280 452l105 13l8 37l56 -3zM130 272v-11c0 -131 51 -216 165 -216c115 0 165 85 165 215
s-50 195 -165 195c-116 0 -165 -77 -165 -183z" />
    <glyph glyph-name="afii10067" unicode="&#x432;" horiz-adv-x="541" 
d="M284 0h-243l-4 60l60 3v374l-59 3l3 60h247c148 0 191 -46 191 -124c0 -60 -46 -94 -89 -113c59 -14 111 -47 111 -109c0 -85 -50 -154 -217 -154zM297 236h-124v-181h110c117 0 139 54 139 105c0 45 -36 76 -125 76zM173 277h131s98 10 98 89c0 50 -26 79 -115 79h-114
v-168z" />
    <glyph glyph-name="afii10068" unicode="&#x433;" horiz-adv-x="428" 
d="M237 0h-196l-4 60l60 3v374l-59 3l3 60h309l55 4l1 -172h-62l-5 105h-162v-378l64 -3z" />
    <glyph glyph-name="afii10069" unicode="&#x434;" horiz-adv-x="592" 
d="M74 -147h-55l-4 208h76c53 102 71 214 74 374l-83 3l3 62h414v-439h80l-5 -208h-62l-8 147h-423zM229 439c-2 -154 -18 -271 -66 -378h257v378h-191z" />
    <glyph glyph-name="afii10070" unicode="&#x435;" horiz-adv-x="518" 
d="M474 235h-356c6 -127 72 -188 175 -188c101 0 150 66 150 66l38 -41s-55 -86 -190 -86c-155 0 -253 93 -253 265c0 168 95 263 239 263c134 0 209 -71 209 -217c0 -35 -12 -62 -12 -62zM278 455c-98 0 -150 -61 -159 -165h293s1 13 1 23c0 94 -45 142 -135 142z" />
    <glyph glyph-name="afii10072" unicode="&#x436;" horiz-adv-x="793" 
d="M481 0h-172l-4 52l53 3v174h-73l-126 -191l-34 -38h-123v56l80 2l137 201l-110 179l-81 2l4 60h155v-55l89 -157h82v161l-54 3l4 48h128v-212h77l93 149l-27 1l5 62h180v-60l-73 -2l-114 -178l136 -202l82 -2l-4 -56h-123l-36 42l-121 187h-75v-178l49 -1z" />
    <glyph glyph-name="afii10073" unicode="&#x437;" horiz-adv-x="482" 
d="M116 360h-62l4 145h51l7 -33c28 19 72 42 125 42c107 0 171 -46 171 -124c0 -62 -38 -100 -77 -122c57 -13 107 -46 107 -116c0 -90 -80 -166 -216 -166c-171 0 -210 84 -210 84l31 47s43 -71 175 -71c90 0 142 53 142 105c0 51 -53 77 -122 77l-84 -1v53h88
c16 2 89 22 89 97c0 48 -31 78 -108 78c-56 0 -92 -24 -108 -37z" />
    <glyph glyph-name="afii10074" unicode="&#x438;" horiz-adv-x="632" 
d="M591 0h-193v52l56 6v337l-302 -395h-59v437l-59 3l3 60h136v-378l287 378h134v-60l-59 -3v-378l60 -3z" />
    <glyph glyph-name="afii10075" unicode="&#x439;" horiz-adv-x="632" 
d="M318 628c87 0 101 59 101 59v1l72 -10s-21 -102 -173 -102c-151 0 -172 102 -172 102l72 10v-1s14 -59 100 -59zM591 0h-193v52l56 6v337l-302 -395h-59v437l-59 3l3 60h136v-378l287 378h134v-60l-59 -3v-378l60 -3z" />
    <glyph glyph-name="afii10076" unicode="&#x43a;" horiz-adv-x="551" 
d="M226 0h-185l-4 60l60 3v374l-67 3l4 60h143v-224l73 34l105 134l-31 2l3 54h187v-60l-87 -8l-124 -149l159 -218l91 -1l-4 -64h-123l-39 42l-151 203l-59 -27v-163l52 -3z" />
    <glyph glyph-name="afii10077" unicode="&#x43b;" horiz-adv-x="565" 
d="M528 0h-193l-3 60l59 3v374h-165c-7 -323 -91 -456 -224 -437v57c90 -9 146 96 153 378l-83 3l4 62h396v-441l60 -3z" />
    <glyph glyph-name="afii10078" unicode="&#x43c;" horiz-adv-x="780" 
d="M108 437l-63 3l4 60h166l176 -431l179 431h164v-60l-58 -3l6 -379l60 -2l-3 -56h-128l-5 371v39h-1l-176 -410h-77l-182 409v-9l-8 -343l56 -3l-4 -54h-174l-4 60l58 2l16 377z" />
    <glyph glyph-name="afii10079" unicode="&#x43d;" horiz-adv-x="620" 
d="M226 0h-185l-4 60l60 3v374l-59 3l3 60h136v-213h266v162l-51 3v48h186v-60l-55 -3v-378l60 -3l-4 -56h-136v228h-266v-177l52 -2z" />
    <glyph glyph-name="afii10080" unicode="&#x43e;" horiz-adv-x="573" 
d="M286 -14c-163 0 -248 105 -248 268s85 260 248 260c164 0 248 -97 248 -260s-88 -268 -248 -268zM286 45c115 0 165 81 165 208s-50 202 -165 202c-114 0 -165 -76 -165 -202c0 -127 51 -208 165 -208z" />
    <glyph glyph-name="afii10081" unicode="&#x43f;" horiz-adv-x="611" 
d="M571 0h-137v437h-257v-378l60 -3l-4 -56h-192l-4 60l60 3v374l-59 3l3 60h529v-60l-55 -3v-378l60 -3z" />
    <glyph glyph-name="afii10082" unicode="&#x440;" horiz-adv-x="600" 
d="M229 -250h-192l-4 60l60 3v624l-59 3l3 60h126l7 -56c10 13 58 70 167 70c136 0 225 -83 225 -240c0 -164 -81 -288 -236 -288c-107 0 -153 48 -153 48v-225l60 -3zM309 452c-88 0 -129 -59 -136 -70v-290c7 -8 48 -45 126 -45c127 0 180 90 180 225
c0 134 -62 180 -170 180z" />
    <glyph glyph-name="afii10083" unicode="&#x441;" horiz-adv-x="487" 
d="M458 335h-62l-5 71c-13 14 -50 49 -108 49c-110 0 -162 -56 -162 -199c0 -144 67 -211 173 -211c93 0 145 60 145 60l36 -40s-52 -79 -188 -79c-161 0 -249 96 -249 269c0 169 82 259 233 259c53 0 98 -28 124 -49l11 40h52v-170z" />
    <glyph glyph-name="afii10084" unicode="&#x442;" horiz-adv-x="515" 
d="M492 332h-57l-3 105h-135v-378l60 -3l-3 -56h-193l-4 60l60 3v374h-132l-5 -105h-57l2 168v4l64 -4h341l64 4z" />
    <glyph glyph-name="afii10085" unicode="&#x443;" horiz-adv-x="527" 
d="M10 -243l8 55s35 -12 69 -12c55 0 103 88 145 200l-187 437l-71 3l4 60h130l166 -412h1l133 352l-53 2v58h193v-60l-66 -3l-175 -448c-56.2168 -143.915 -124 -253 -210 -253c-72 0 -87 21 -87 21z" />
    <glyph glyph-name="afii10086" unicode="&#x444;" horiz-adv-x="695" 
d="M442 -250h-189l-4 60l60 3v173c-175 2 -271 110 -271 275c0 163 96 251 271 253v173l-59 3l4 60h132v-236c173 -2 271 -90 271 -254s-98 -272 -271 -274v-177l59 -3zM578 260c0 135 -67 192 -192 195v-410c125 3 192 80 192 215zM117 261c0 -135 66 -213 192 -216v410
c-126 -3 -192 -59 -192 -194z" />
    <glyph glyph-name="afii10087" unicode="&#x445;" horiz-adv-x="573" 
d="M186 0h-184v60l86 2l145 193l-137 182l-88 3l4 60h129l146 -204h1l105 146l-30 1l4 57h187v-60l-79 -3l-136 -182l149 -197l86 -2l-3 -56h-122l-40 44l-124 168l-114 -154h19z" />
    <glyph glyph-name="afii10088" unicode="&#x446;" horiz-adv-x="608" 
d="M582 -147h-70l-1 147h-470l-4 60l60 3v374l-59 3l3 60h136v-437h257v374l-59 3l4 60h136v-437h71z" />
    <glyph glyph-name="afii10089" unicode="&#x447;" horiz-adv-x="542" 
d="M369 265v172l-59 3l4 60h136v-441l59 -3l-4 -56h-197l-3 56l64 2v157c-5 -2 -61 -29 -162 -29c-95 0 -151 51 -151 147v104l-59 3l3 60h138v-157c0 -60 30 -104 97 -104c81 0 134 26 134 26z" />
    <glyph glyph-name="afii10090" unicode="&#x448;" horiz-adv-x="839" 
d="M803 0h-762l-4 60l60 3v374l-59 3l3 60h133v-437h209v374l-58 3l4 60h131v-437h210v374l-58 3l4 60h131v-441l60 -3z" />
    <glyph glyph-name="afii10091" unicode="&#x449;" horiz-adv-x="840" 
d="M814 -147h-69l-1 147h-703l-4 60l60 3v374l-59 3l3 60h133v-437h209v374l-58 3l4 60h131v-437h210v374l-58 3l4 60h131v-437h72z" />
    <glyph glyph-name="afii10092" unicode="&#x44a;" horiz-adv-x="630" 
d="M142 0l-4 60l60 3v374h-111l-7 -101h-57l4 164v4l64 -4h244v-48l-57 -3v-134h95c126 0 228 -31 228 -143s-82 -172 -225 -172h-234zM372 261h-94v-206h96c90 0 144 38 144 115c0 78 -71 91 -146 91z" />
    <glyph glyph-name="afii10093" unicode="&#x44b;" horiz-adv-x="779" 
d="M738 0h-136v449l-51 3l3 48h183v-60l-55 -3v-378l60 -3zM41 0l-4 60l60 3v374l-59 3l3 60h136v-185h95c126 0 228 -31 228 -143s-82 -172 -225 -172h-234zM271 261h-94v-206h96c90 0 144 38 144 115c0 78 -71 91 -146 91z" />
    <glyph glyph-name="afii10094" unicode="&#x44c;" horiz-adv-x="529" 
d="M41 0l-4 60l60 3v374l-59 3l3 60h136v-185h95c126 0 228 -31 228 -143s-82 -172 -225 -172h-234zM271 261h-94v-206h96c90 0 144 38 144 115c0 78 -71 91 -146 91z" />
    <glyph glyph-name="afii10095" unicode="&#x44d;" horiz-adv-x="501" 
d="M23 59l29 44s44 -58 148 -58c110 0 171 66 183 177h-255v62h257c-5 124 -65 171 -157 171c-56 0 -92 -23 -108 -36l-4 -55h-61l3 141h47l10 -33c27 20 69 42 123 42c129 0 224 -85 224 -242c0 -178 -101 -286 -253 -286c-143 0 -186 73 -186 73z" />
    <glyph glyph-name="afii10096" unicode="&#x44e;" horiz-adv-x="791" 
d="M226 0h-185l-4 60l60 3v374l-59 3l3 60h136v-213h97c9 148 88 227 237 227c165 0 242 -90 242 -254s-77 -274 -242 -274c-145 0 -226 93 -236 242h-98v-177l52 -2zM512 45c118 0 161 90 161 215c0 126 -43 196 -161 196c-117 0 -160 -70 -160 -196
c0 -125 43 -215 160 -215z" />
    <glyph glyph-name="afii10097" unicode="&#x44f;" horiz-adv-x="543" 
d="M502 0h-136v192h-124l-81 -150l-32 -42h-112l-4 60l78 2l80 143c-71 24 -125 79 -125 149c0 99 71 146 211 146h244v-60l-55 -3v-378l60 -3zM124 352c0 -66 53 -107 128 -106h114v199h-101c-95 0 -141 -25 -141 -93z" />
    <glyph glyph-name="uni0450" unicode="&#x450;" horiz-adv-x="518" 
d="M474 235h-356c6 -127 72 -188 175 -188c101 0 150 66 150 66l38 -41s-55 -86 -190 -86c-155 0 -253 93 -253 265c0 168 95 263 239 263c134 0 209 -71 209 -217c0 -35 -12 -62 -12 -62zM278 455c-98 0 -150 -61 -159 -165h293s1 13 1 23c0 94 -45 142 -135 142zM320 577
l-57 -5l-116 139l77 9z" />
    <glyph glyph-name="afii10071" unicode="&#x451;" horiz-adv-x="518" 
d="M474 235h-356c6 -127 72 -188 175 -188c101 0 150 66 150 66l38 -41s-55 -86 -190 -86c-155 0 -253 93 -253 265c0 168 95 263 239 263c134 0 209 -71 209 -217c0 -35 -12 -62 -12 -62zM278 455c-98 0 -150 -61 -159 -165h293s1 13 1 23c0 94 -45 142 -135 142zM377 614
c-9 -7 -19 -10 -30 -10s-22 3 -30 10c-9 8 -13 19 -13 30s4 23 13 31c8 6 19 10 30 10s21 -4 30 -10c8 -8 13 -20 13 -31s-5 -22 -13 -30zM199 614c-8 -7 -19 -10 -30 -10s-21 3 -29 10c-9 8 -13 19 -13 30s4 23 13 31c8 6 18 10 29 10s22 -4 30 -10c8 -8 13 -20 13 -31
s-5 -22 -13 -30z" />
    <glyph glyph-name="afii10099" unicode="&#x452;" horiz-adv-x="599" 
d="M520 -43c0 -147 -78 -210 -156 -210c-25 0 -49 6 -71 18l21 63c11 -5 23 -8 35 -8c42 0 88 33 91 128v304c0 73 -52 112 -131 112c-100 0 -136 -56 -136 -56v-249l60 -3l-4 -56h-192l-4 60l60 3v489h-62v53l62 2v84l-59 3l3 56h86l-1 -1l51 1v-143h206v-55h-206v-178h1
c1 0 45 58 162 58c110 0 184 -55 184 -165v-310z" />
    <glyph glyph-name="afii10100" unicode="&#x453;" horiz-adv-x="428" 
d="M237 0h-196l-4 60l60 3v374l-59 3l3 60h309l55 4l1 -172h-62l-5 105h-162v-378l64 -3zM240 572l-57 4l95 143l77 -8z" />
    <glyph glyph-name="afii10101" unicode="&#x454;" horiz-adv-x="496" 
d="M456 368h-61l-5 48c-15 13 -51 38 -106 38c-110 0 -158 -50 -163 -177l254 1v-63l-252 1c11 -119 74 -169 172 -169c100 0 152 51 152 51l24 -45s-52 -67 -190 -67c-159 0 -243 97 -243 270c0 169 89 258 236 258c52 0 94 -22 122 -41l9 32h51v-137z" />
    <glyph glyph-name="afii10102" unicode="&#x455;" horiz-adv-x="469" 
d="M409 367h-54l-6 49c-15 13 -51 41 -105 41c-62 0 -105 -27 -105 -71c0 -123 297 -71 297 -242c0 -85 -60 -158 -215 -158c-105 0 -165 26 -165 26l-7 127l50 4l6 -83c27 -8 67 -17 114 -17c96 0 135 45 135 92c0 124 -295 63 -295 242c0 85 75 137 173 137
c55 0 99 -24 125 -43l11 34h41v-138z" />
    <glyph glyph-name="afii10103" unicode="&#x456;" horiz-adv-x="270" 
d="M233 0h-192l-4 60l60 3v374l-59 3l3 60h136v-441l60 -3zM172 609c-9 -7 -22 -10 -35 -10s-27 3 -36 11c-10 8 -14 21 -14 34s4 26 14 35c9 7 22 11 35 11s26 -4 36 -11c9 -9 14 -22 14 -35s-5 -26 -14 -35z" />
    <glyph glyph-name="afii10104" unicode="&#x457;" horiz-adv-x="270" 
d="M233 0h-192l-4 60l60 3v374l-59 3l3 60h136v-441l60 -3zM255 614c-9 -7 -19 -10 -30 -10s-22 3 -30 10c-9 8 -13 19 -13 30s4 23 13 31c8 6 19 10 30 10s21 -4 30 -10c8 -8 13 -20 13 -31s-5 -22 -13 -30zM77 614c-8 -7 -19 -10 -30 -10s-21 3 -29 10c-9 8 -13 19 -13 30
s4 23 13 31c8 6 18 10 29 10s22 -4 30 -10c8 -8 13 -20 13 -31s-5 -22 -13 -30z" />
    <glyph glyph-name="afii10105" unicode="&#x458;" horiz-adv-x="266" 
d="M-65 -246l21 64s23 -10 59 -10c43 0 86 51 86 157v472l-58 3l4 60h134v-535c0 -161 -81 -229 -157 -229c-70 0 -89 18 -89 18zM177 609c-9 -7 -22 -10 -35 -10s-27 3 -36 11c-10 8 -14 21 -14 34s4 26 14 35c9 7 22 11 35 11s26 -4 36 -11c9 -9 14 -22 14 -35
s-5 -26 -14 -35z" />
    <glyph glyph-name="afii10106" unicode="&#x459;" horiz-adv-x="824" 
d="M336 0l-4 60l59 3v374h-165c-7 -323 -91 -456 -224 -437v57c90 -9 146 96 153 378l-83 3l4 62h396v-185h95c126 0 228 -31 228 -143s-82 -172 -225 -172h-234zM566 261h-94v-206h96c90 0 144 38 144 115c0 78 -71 91 -146 91z" />
    <glyph glyph-name="afii10107" unicode="&#x45a;" horiz-adv-x="875" 
d="M578 452l-55 -3v-134h95c126 0 228 -31 228 -143s-82 -172 -225 -172h-178v228h-266v-177l52 -2l-3 -49h-185l-4 60l60 3v374l-59 3l3 60h136v-213h266v162l-51 3v48h186v-48zM617 261h-94v-206h96c90 0 144 38 144 115c0 78 -71 91 -146 91z" />
    <glyph glyph-name="afii10108" unicode="&#x45b;" horiz-adv-x="603" 
d="M229 0h-192l-4 60l60 3v489h-62v53l62 2v84l-59 3l3 56h86l-1 -1l51 1v-143h206v-55h-206v-178h1c1 0 45 58 162 58c110 0 184 -55 184 -165v-208l60 -3l-4 -56h-136v252c0 73 -52 112 -131 112c-100 0 -136 -56 -136 -56v-249l60 -3z" />
    <glyph glyph-name="afii10109" unicode="&#x45c;" horiz-adv-x="551" 
d="M226 0h-185l-4 60l60 3v374l-67 3l4 60h143v-224l73 34l105 134l-31 2l3 54h187v-60l-87 -8l-124 -149l159 -218l91 -1l-4 -64h-123l-39 42l-151 203l-59 -27v-163l52 -3zM305 572l-57 4l95 143l77 -8z" />
    <glyph glyph-name="uni045D" unicode="&#x45d;" horiz-adv-x="632" 
d="M591 0h-193v52l56 6v337l-302 -395h-59v437l-59 3l3 60h136v-378l287 378h134v-60l-59 -3v-378l60 -3zM349 577l-57 -5l-116 139l77 9z" />
    <glyph glyph-name="afii10110" unicode="&#x45e;" horiz-adv-x="527" 
d="M269 628c87 0 101 59 101 59v1l72 -10s-21 -102 -173 -102c-151 0 -172 102 -172 102l72 10v-1s14 -59 100 -59zM10 -243l8 55s35 -12 69 -12c55 0 103 88 145 200l-187 437l-71 3l4 60h130l166 -412h1l133 352l-53 2v58h193v-60l-66 -3l-175 -448
c-56.2168 -143.915 -124 -253 -210 -253c-72 0 -87 21 -87 21z" />
    <glyph glyph-name="afii10193" unicode="&#x45f;" horiz-adv-x="627" 
d="M352 -147h-70v147h-241l-4 60l60 3v374l-59 3l3 60h136v-437h277v386l-51 3l4 48h127v-441l60 -3l-4 -56h-235z" />
    <glyph glyph-name="afii10146" unicode="&#x462;" horiz-adv-x="701" 
d="M353 662l-78 -2v-49h1v-7h187l68 4v-135h-62l-3 66h-190v-150h93c173 0 277 -51 277 -178c0 -126 -88 -211 -270 -211h-261l-3 60l79 3v476h-124l-8 -82h-65l4 151l76 -4h117v56l-80 2l4 38h238v-38zM369 330h-93v-269h95c127 0 194 53 194 146c0 92 -73 123 -196 123z
" />
    <glyph glyph-name="afii10194" unicode="&#x463;" horiz-adv-x="609" 
d="M71 360h-50l4 140v4l56 -4h95v100h80v-100h146l60 4v-113h-53l-4 56h-148v-10h-1v-122h95c126 0 228 -31 228 -143s-82 -172 -225 -172h-234l-4 60l60 3v374h-100zM350 261h-94v-206h96c90 0 145 37 145 115c0 77 -72 91 -147 91z" />
    <glyph glyph-name="afii10050" unicode="&#x490;" horiz-adv-x="460" 
d="M292 0h-246l-4 60l80 3v528l-81 3l4 56h344l1 100h64l4 -165h-252v-526l90 -3z" />
    <glyph glyph-name="afii10098" unicode="&#x491;" horiz-adv-x="393" 
d="M233 0h-192l-4 60l60 3v374l-59 3l3 60h286v128h62l4 -191h-216v-378l60 -3z" />
    <glyph glyph-name="uni1E9E" unicode="&#x1e9e;" horiz-adv-x="737" 
d="M421 304l-65 24l133 253h-126c-118 -3 -175 -59 -175 -156v-425h-161l-4 56l81 3v379c0 126 83 212 267 212h205l3 -45l-120 -228c9 1 18 2 29 2c122 0 194 -65 194 -176c0 -129 -101 -217 -242 -217c-118 0 -145 20 -145 20l-4 124l54 4l7 -73c18 -4 42 -7 82 -7
c103 0 166 64 166 149c0 73 -38 118 -126 118c-35 0 -50 -13 -53 -16v-1z" />
    <glyph glyph-name="uni2002" unicode="&#x2002;" horiz-adv-x="497" 
 />
    <glyph glyph-name="uni2003" unicode="&#x2003;" horiz-adv-x="995" 
 />
    <glyph glyph-name="uni2004" unicode="&#x2004;" horiz-adv-x="331" 
 />
    <glyph glyph-name="uni2005" unicode="&#x2005;" horiz-adv-x="249" 
 />
    <glyph glyph-name="uni2009" unicode="&#x2009;" horiz-adv-x="199" 
 />
    <glyph glyph-name="uni200A" unicode="&#x200a;" horiz-adv-x="40" 
 />
    <glyph glyph-name="uni2011" unicode="&#x2011;" horiz-adv-x="341" 
d="M303 247h-264v61h264v-61z" />
    <glyph glyph-name="endash" unicode="&#x2013;" horiz-adv-x="543" 
d="M504 247h-465v61h465v-61z" />
    <glyph glyph-name="emdash" unicode="&#x2014;" horiz-adv-x="722" 
d="M684 247h-645v61h645v-61z" />
    <glyph glyph-name="afii00208" unicode="&#x2015;" horiz-adv-x="722" 
d="M684 247h-645v61h645v-61z" />
    <glyph glyph-name="quoteleft" unicode="&#x2018;" horiz-adv-x="164" 
d="M126 758l28 -26c-51 -40 -78 -109 -76 -155c10 0 19 -4 27 -10c9 -8 13 -19 13 -30s-4 -21 -13 -29c-9 -7 -20 -11 -31 -11s-22 4 -30 11l-6 6c-2 3 -4 6 -5 9c-6 11 -8 25 -8 41c0 62 41 152 101 194z" />
    <glyph glyph-name="quoteright" unicode="&#x2019;" horiz-adv-x="171" 
d="M34 492l-29 26c52 39 78 108 76 154c-10 1 -20 4 -27 11c-9 8 -14 18 -14 29s5 22 14 30c8 7 19 10 30 10s22 -3 31 -10c2 -2 4 -4 5 -6c10 -12 14 -30 14 -51c0 -63 -41 -152 -100 -193z" />
    <glyph glyph-name="quotesinglbase" unicode="&#x201a;" horiz-adv-x="171" 
d="M34 -163l-29 26c52 40 78 108 76 154c-10 1 -20 4 -27 11c-9 8 -14 18 -14 29s5 22 14 30c8 7 19 10 30 10s22 -3 31 -10c2 -2 4 -4 5 -6c10 -12 14 -30 14 -50c0 -63 -41 -152 -100 -194z" />
    <glyph glyph-name="quotedblleft" unicode="&#x201c;" horiz-adv-x="335" 
d="M126 758l28 -26c-51 -40 -78 -109 -76 -155c10 0 19 -4 27 -10c9 -8 13 -19 13 -30s-4 -21 -13 -29c-9 -7 -20 -11 -31 -11s-22 4 -30 11l-6 6c-2 3 -4 6 -5 9c-6 11 -8 25 -8 41c0 62 41 152 101 194zM297 758l28 -26c-51 -40 -78 -109 -76 -155c10 0 19 -4 27 -10
c9 -8 13 -19 13 -30s-4 -21 -13 -29c-9 -7 -20 -11 -31 -11s-22 4 -30 11l-6 6c-2 3 -4 6 -5 9c-6 11 -8 25 -8 41c0 62 41 152 101 194z" />
    <glyph glyph-name="quotedblright" unicode="&#x201d;" horiz-adv-x="342" 
d="M34 492l-29 26c52 39 78 108 76 154c-10 1 -20 4 -27 11c-9 8 -14 18 -14 29s5 22 14 30c8 7 19 10 30 10s22 -3 31 -10c2 -2 4 -4 5 -6c10 -12 14 -30 14 -51c0 -63 -41 -152 -100 -193zM205 492l-29 26c52 39 78 108 76 154c-10 1 -20 4 -27 11c-9 8 -14 18 -14 29
s5 22 14 30c8 7 19 10 30 10s22 -3 31 -10c2 -2 4 -4 5 -6c10 -12 14 -30 14 -51c0 -63 -41 -152 -100 -193z" />
    <glyph glyph-name="quotedblbase" unicode="&#x201e;" horiz-adv-x="342" 
d="M34 -163l-29 26c52 40 78 108 76 154c-10 1 -20 4 -27 11c-9 8 -14 18 -14 29s5 22 14 30c8 7 19 10 30 10s22 -3 31 -10c2 -2 4 -4 5 -6c10 -12 14 -30 14 -50c0 -63 -41 -152 -100 -194zM205 -163l-29 26c52 40 78 108 76 154c-10 1 -20 4 -27 11c-9 8 -14 18 -14 29
s5 22 14 30c8 7 19 10 30 10s22 -3 31 -10c2 -2 4 -4 5 -6c10 -12 14 -30 14 -50c0 -63 -41 -152 -100 -194z" />
    <glyph glyph-name="dagger" unicode="&#x2020;" horiz-adv-x="516" 
d="M454 371h-157v-621h-78l1 621h-160v61h166l-1 218h66l-1 -218h164v-61z" />
    <glyph glyph-name="daggerdbl" unicode="&#x2021;" horiz-adv-x="516" 
d="M454 418h-164l-1 -218v-218h165v-61h-165l1 -171h-65v171h-165v61h166l-1 218v218h-165v61h163v171h68l-1 -171h164v-61z" />
    <glyph glyph-name="bullet" unicode="&#x2022;" horiz-adv-x="341" 
d="M226 263c-17 -14 -39 -20 -61 -20s-43 6 -60 20c-18 15 -26 36 -26 58s8 44 26 59c17 13 38 20 60 20s44 -7 61 -20c17 -15 25 -37 25 -59s-8 -43 -25 -58z" />
    <glyph glyph-name="ellipsis" unicode="&#x2026;" horiz-adv-x="762" 
d="M172 3c-10 -8 -22 -12 -35 -12s-26 4 -35 12c-11 9 -16 21 -16 34c0 12 5 25 16 34c9 8 22 12 35 12s25 -4 35 -12c10 -9 16 -22 16 -34c0 -13 -6 -25 -16 -34zM414 3c-10 -8 -22 -12 -35 -12s-26 4 -35 12c-11 9 -16 21 -16 34c0 12 5 25 16 34c9 8 22 12 35 12
s25 -4 35 -12c10 -9 16 -22 16 -34c0 -13 -6 -25 -16 -34zM657 3c-10 -8 -22 -12 -35 -12s-26 4 -35 12c-11 9 -16 21 -16 34c0 12 5 25 16 34c9 8 22 12 35 12s25 -4 35 -12c10 -9 16 -22 16 -34c0 -13 -6 -25 -16 -34z" />
    <glyph glyph-name="perthousand" unicode="&#x2030;" horiz-adv-x="1357" 
d="M328 2l-62 10l330 629l62 -10zM237 286c-118 0 -182 75 -182 188s68 189 182 189c112 0 183 -76 183 -189s-67 -188 -183 -188zM237 343c75 0 117 53 117 132s-42 131 -117 131s-116 -52 -116 -131s40 -132 116 -132zM693 -14c-118 0 -182 75 -182 188s68 189 182 189
c112 0 183 -76 183 -189s-67 -188 -183 -188zM693 43c75 0 117 53 117 132s-42 131 -117 131s-116 -52 -116 -131s40 -132 116 -132zM1119 -14c-118 0 -182 75 -182 188s68 189 182 189c112 0 183 -76 183 -189s-67 -188 -183 -188zM1119 43c75 0 117 53 117 132
s-42 131 -117 131s-116 -52 -116 -131s40 -132 116 -132z" />
    <glyph glyph-name="guilsinglleft" unicode="&#x2039;" horiz-adv-x="372" 
d="M302 384l-133 -135l133 -137l-34 -38l-172 176l172 171z" />
    <glyph glyph-name="guilsinglright" unicode="&#x203a;" horiz-adv-x="372" 
d="M275 244l-172 -170l-34 37l133 133l-132 138l33 39z" />
    <glyph glyph-name="fraction" unicode="&#x2044;" horiz-adv-x="450" 
d="M121 -4l-50 28l352 561l50 -27z" />
    <glyph glyph-name="zerosuperior" unicode="&#x2070;" 
d="M233 219c-132 0 -192 104 -192 270s60 272 192 272c133 0 193 -106 193 -272s-60 -270 -193 -270zM233 275c79 0 118 71 118 214s-39 216 -118 216c-78 0 -117 -73 -117 -216s39 -214 117 -214z" />
    <glyph glyph-name="foursuperior" unicode="&#x2074;" 
d="M406 230h-165l-3 51l52 2v90h-250l-5 45c44 80 102 212 137 340l70 -8c-36 -124 -86 -237 -129 -321h177v161l11 84h63v-245h63v-52l-63 -4v-89l45 -3z" />
    <glyph glyph-name="fivesuperior" unicode="&#x2075;" 
d="M67 243l-4 104l50 3l7 -63c18 -6 43 -11 83 -11c86 0 138 49 138 117c0 59 -50 106 -128 106c-48 0 -78 -16 -82 -20l-37 5l27 266h216l5 28l50 -3l-3 -90l-62 3h-151l-15 -142c16 3 34 6 54 6c120 0 197 -63 197 -160c0 -113 -93 -174 -214 -174c-102 0 -131 25 -131 25
z" />
    <glyph glyph-name="sixsuperior" unicode="&#x2076;" 
d="M373 633h-52l-4 43c-11 11 -33 29 -71 29c-73 0 -117 -58 -123 -186c28 20 68 40 124 40c107 0 175 -63 175 -161c0 -99 -61 -179 -181 -179c-118 0 -189 75 -189 213c0 19 2 51 3 62c12 183 84 267 181 267c37 0 67 -18 86 -32l8 24h43v-120zM238 510
c-59 0 -91 -30 -104 -50c-3 -8 -8 -29 -8 -49c0 -87 38 -140 115 -140c78 0 108 65 108 128c0 59 -36 111 -111 111z" />
    <glyph glyph-name="sevensuperior" unicode="&#x2077;" horiz-adv-x="468" 
d="M426 690c-79 -122 -167 -301 -210 -460h-84c43 157 129 325 207 455h-228l-5 -62h-52l3 130l60 -3h309v-60z" />
    <glyph glyph-name="eightsuperior" unicode="&#x2078;" 
d="M408 621c0 -71 -50 -107 -98 -125c49 -14 109 -49 109 -133c0 -102 -73 -144 -186 -144s-186 43 -186 146c0 72 54 110 105 130c-44 16 -94 51 -94 128c0 86 70 138 175 138s175 -52 175 -140zM342 367c0 81 -78 100 -114 104c-32 -5 -104 -25 -104 -103
c0 -68 45 -101 109 -101c66 0 109 33 109 100zM132 619c0 -82 74 -99 107 -102c32 5 96 23 96 101c0 60 -39 94 -102 94s-101 -35 -101 -93z" />
    <glyph glyph-name="ninesuperior" unicode="&#x2079;" 
d="M203 275c76 0 135 65 141 187c-18 -21 -56 -51 -124 -51c-108 0 -175 60 -175 162c0 99 67 188 186 188c120 0 183 -76 183 -214c0 -18 -1 -49 -1 -58c-10 -183 -97 -270 -210 -270c-79 0 -123 15 -123 15l-4 113l49 3l8 -69c18 -4 41 -6 70 -6zM229 461
c59 0 92 32 106 50c3 9 6 37 6 58c0 86 -32 139 -110 139c-77 0 -113 -69 -113 -132c0 -59 35 -115 111 -115z" />
    <glyph glyph-name="zerosub" unicode="&#x2080;" 
d="M233 -276c-132 0 -192 104 -192 270s60 272 192 272c133 0 193 -106 193 -272s-60 -270 -193 -270zM233 -220c79 0 118 71 118 214s-39 216 -118 216c-78 0 -117 -73 -117 -216s39 -214 117 -214z" />
    <glyph glyph-name="onesub" unicode="&#x2081;" 
d="M236 255h62v-463l95 -2l-3 -55h-270l-4 55l109 5v389l-114 -55l-22 53z" />
    <glyph glyph-name="twosub" unicode="&#x2082;" 
d="M115 129h-53l4 129h43l8 -35c24 19 63 43 115 43c115 0 165 -66 165 -152c0 -120 -158 -249 -252 -316h212l7 60l52 -4l-4 -119h-361v61c4 2 265 188 265 312c0 63 -27 98 -104 98c-50 0 -82 -28 -94 -41z" />
    <glyph glyph-name="threesub" unicode="&#x2083;" 
d="M389 212l-154 -176c4 1 8 1 12 1c95 0 163 -60 163 -150c0 -105 -93 -164 -219 -164c-92 0 -128 25 -128 25l-3 104l50 3l7 -64c18 -5 43 -10 78 -10c92 0 143 44 143 107c0 55 -38 96 -108 96c-36 0 -57 -18 -57 -18l-33 36l164 192h-180l-6 -64h-51l3 128l60 -3h259
v-43z" />
    <glyph glyph-name="foursub" unicode="&#x2084;" 
d="M406 -265h-165l-3 51l52 2v90h-250l-5 45c44 80 102 212 137 340l70 -8c-36 -124 -86 -237 -129 -321h177v161l11 84h63v-245h63v-52l-63 -4v-89l45 -3z" />
    <glyph glyph-name="fivesub" unicode="&#x2085;" 
d="M67 -252l-4 104l50 3l7 -63c18 -6 43 -11 83 -11c86 0 138 49 138 117c0 59 -50 106 -128 106c-48 0 -78 -16 -82 -20l-37 5l27 266h216l5 28l50 -3l-3 -90l-62 3h-151l-15 -142c16 3 34 6 54 6c120 0 197 -63 197 -160c0 -113 -93 -174 -214 -174
c-102 0 -131 25 -131 25z" />
    <glyph glyph-name="sixsub" unicode="&#x2086;" 
d="M373 138h-52l-4 43c-11 11 -33 29 -71 29c-73 0 -117 -58 -123 -186c28 20 68 40 124 40c107 0 175 -63 175 -161c0 -99 -61 -179 -181 -179c-118 0 -189 75 -189 213c0 19 2 51 3 62c12 183 84 267 181 267c37 0 67 -18 86 -32l8 24h43v-120zM238 15
c-59 0 -91 -30 -104 -50c-3 -8 -8 -29 -8 -49c0 -87 38 -140 115 -140c78 0 108 65 108 128c0 59 -36 111 -111 111z" />
    <glyph glyph-name="sevensub" unicode="&#x2087;" horiz-adv-x="468" 
d="M426 195c-79 -122 -167 -301 -210 -460h-84c43 158 129 325 207 455h-228l-5 -62h-52l3 130l60 -3h309v-60z" />
    <glyph glyph-name="eightsub" unicode="&#x2088;" 
d="M408 126c0 -71 -50 -107 -98 -125c49 -14 109 -49 109 -133c0 -102 -73 -144 -186 -144s-186 43 -186 146c0 72 54 111 105 130c-44 16 -94 51 -94 128c0 86 70 138 175 138s175 -52 175 -140zM342 -128c0 82 -78 100 -114 104c-32 -5 -104 -24 -104 -103
c0 -68 45 -101 109 -101c66 0 109 33 109 100zM132 124c0 -82 74 -99 107 -102c32 5 96 23 96 101c0 60 -39 94 -102 94s-101 -35 -101 -93z" />
    <glyph glyph-name="ninesub" unicode="&#x2089;" 
d="M203 -220c76 0 135 65 141 188c-18 -22 -56 -52 -124 -52c-108 0 -175 60 -175 162c0 99 67 188 186 188c120 0 183 -76 183 -214c0 -18 -1 -49 -1 -58c-10 -183 -97 -270 -210 -270c-79 0 -123 15 -123 15l-4 113l49 3l8 -68c18 -4 41 -7 70 -7zM229 -34
c59 0 92 33 106 50c3 9 6 37 6 58c0 86 -32 139 -110 139c-77 0 -113 -69 -113 -132c0 -59 35 -115 111 -115z" />
    <glyph glyph-name="Euro" unicode="&#x20ac;" horiz-adv-x="663" 
d="M498 217h-287c25 -113 95 -170 219 -170s191 80 191 80l26 -44s-68 -97 -228 -97c-173 0 -263 88 -292 232l-74 2v51h66c-1 19 -2 38 -2 59v31l-64 2v52h70c23 156 114 248 265 248c72 0 123 -29 151 -50l10 42h47v-142h-58l-4 39c-16 16 -58 50 -134 50
c-111 0 -176 -59 -195 -187h293v-55h-298v-30c0 -21 0 -41 2 -59h296v-54z" />
    <glyph glyph-name="uni20B4" unicode="&#x20b4;" horiz-adv-x="551" 
d="M490 235h-278c-21 -25 -34 -52 -34 -84c0 -60 33 -102 123 -102c51 0 85 7 108 15l6 95l57 -4l-4 -133s-45 -36 -173 -36c-130 0 -191 54 -191 150c0 38 14 70 37 99l-71 4v43h115c37 32 81 62 119 92h-234v47h284c21 24 35 50 35 80c0 57 -28 99 -111 99
c-56 0 -88 -30 -102 -47l-4 -50h-54l3 151h47l5 -42c25 23 67 51 124 51c117 0 165 -69 165 -145c0 -38 -14 -71 -36 -99l64 -3v-42h-108c-38 -33 -83 -62 -121 -92h229v-47z" />
    <glyph glyph-name="afii61352" unicode="&#x2116;" horiz-adv-x="1272" 
d="M674 -6h-88l-389 537h-1l4 -31v-440l81 -2l-4 -58h-231l-4 60l80 3v528l-81 3l4 56h165l387 -544l-2 23v461l-81 2l3 58h234v-60l-77 -3v-593zM1017 310c-134 0 -200 71 -200 185s66 185 200 185c135 0 201 -71 201 -185s-69 -185 -201 -185zM1017 355
c88 0 126 51 126 140c0 88 -38 138 -126 138c-87 0 -126 -50 -126 -138s39 -140 126 -140zM1148 119h-264v61h264v-61z" />
    <glyph glyph-name="trademark" unicode="&#x2122;" horiz-adv-x="873" 
d="M465 400h-48l22 350h54l119 -300l134 300h49l12 -350h-48l-10 261l-117 -261h-43l-115 272zM245 400h-50v304h-129v46h327v-46h-148v-304z" />
    <glyph glyph-name="onethird" unicode="&#x2153;" horiz-adv-x="968" 
d="M236 750h62v-463l95 -2l-3 -55h-270l-4 55l109 5v389l-114 -55l-22 53zM358 -4l-50 28l352 561l50 -27zM891 212l-154 -176c4 1 8 1 12 1c95 0 163 -60 163 -150c0 -105 -93 -164 -219 -164c-92 0 -128 25 -128 25l-3 104l50 3l7 -64c18 -5 43 -10 78 -10
c92 0 143 44 143 107c0 55 -38 96 -108 96c-36 0 -57 -18 -57 -18l-33 36l164 192h-180l-6 -64h-51l3 128l60 -3h259v-43z" />
    <glyph glyph-name="twothirds" unicode="&#x2154;" horiz-adv-x="993" 
d="M115 624h-53l4 129h43l8 -35c24 19 63 43 115 43c115 0 165 -66 165 -152c0 -120 -158 -250 -252 -316h212l7 60l52 -4l-4 -119h-361v61c4 2 265 188 265 312c0 63 -27 98 -104 98c-50 0 -82 -28 -94 -41zM384 -4l-50 28l352 561l50 -27zM915 212l-154 -176c4 1 8 1 12 1
c95 0 163 -60 163 -150c0 -105 -93 -164 -219 -164c-92 0 -128 25 -128 25l-3 104l50 3l7 -64c18 -5 43 -10 78 -10c92 0 143 44 143 107c0 55 -38 96 -108 96c-36 0 -57 -18 -57 -18l-33 36l164 192h-180l-6 -64h-51l3 128l60 -3h259v-43z" />
    <glyph glyph-name="oneeighth" unicode="&#x215b;" horiz-adv-x="968" 
d="M236 750h62v-463l95 -2l-3 -55h-270l-4 55l109 5v389l-114 -55l-22 53zM358 -4l-50 28l352 561l50 -27zM910 126c0 -71 -50 -107 -98 -125c49 -14 109 -49 109 -133c0 -102 -73 -144 -186 -144s-186 43 -186 146c0 72 54 111 105 130c-44 16 -94 51 -94 128
c0 86 70 138 175 138s175 -52 175 -140zM844 -128c0 82 -78 100 -114 104c-32 -5 -104 -24 -104 -103c0 -68 45 -101 109 -101c66 0 109 33 109 100zM634 124c0 -82 74 -99 107 -102c32 5 96 23 96 101c0 60 -39 94 -102 94s-101 -35 -101 -93z" />
    <glyph glyph-name="threeeighths" unicode="&#x215c;" horiz-adv-x="969" 
d="M389 707l-154 -176c4 1 8 1 12 1c95 0 163 -60 163 -150c0 -105 -93 -164 -219 -164c-92 0 -128 25 -128 25l-3 104l50 3l7 -64c18 -6 43 -10 78 -10c92 0 143 44 143 107c0 55 -38 96 -108 96c-36 0 -57 -18 -57 -18l-33 36l164 192h-180l-6 -64h-51l3 128l60 -3h259
v-43zM360 -4l-50 28l352 561l50 -27zM910 126c0 -71 -50 -107 -98 -125c49 -14 109 -49 109 -133c0 -102 -73 -144 -186 -144s-186 43 -186 146c0 72 54 111 105 130c-44 16 -94 51 -94 128c0 86 70 138 175 138s175 -52 175 -140zM844 -128c0 82 -78 100 -114 104
c-32 -5 -104 -24 -104 -103c0 -68 45 -101 109 -101c66 0 109 33 109 100zM634 124c0 -82 74 -99 107 -102c32 5 96 23 96 101c0 60 -39 94 -102 94s-101 -35 -101 -93z" />
    <glyph glyph-name="fiveeighths" unicode="&#x215d;" horiz-adv-x="958" 
d="M67 243l-4 104l50 3l7 -63c18 -6 43 -11 83 -11c86 0 138 49 138 117c0 59 -50 106 -128 106c-48 0 -78 -16 -82 -20l-37 5l27 266h216l5 28l50 -3l-3 -90l-62 3h-151l-15 -142c16 3 34 6 54 6c120 0 197 -63 197 -160c0 -113 -93 -174 -214 -174c-102 0 -131 25 -131 25
zM349 -4l-50 28l352 561l50 -27zM900 126c0 -71 -50 -107 -98 -125c49 -14 109 -49 109 -133c0 -102 -73 -144 -186 -144s-186 43 -186 146c0 72 54 111 105 130c-44 16 -94 51 -94 128c0 86 70 138 175 138s175 -52 175 -140zM834 -128c0 82 -78 100 -114 104
c-32 -5 -104 -24 -104 -103c0 -68 45 -101 109 -101c66 0 109 33 109 100zM624 124c0 -82 74 -99 107 -102c32 5 96 23 96 101c0 60 -39 94 -102 94s-101 -35 -101 -93z" />
    <glyph glyph-name="seveneighths" unicode="&#x215e;" horiz-adv-x="879" 
d="M426 690c-79 -122 -167 -301 -210 -460h-84c43 157 129 325 207 455h-228l-5 -62h-52l3 130l60 -3h309v-60zM270 -4l-50 28l352 561l50 -27zM820 126c0 -71 -50 -107 -98 -125c49 -14 109 -49 109 -133c0 -102 -73 -144 -186 -144s-186 43 -186 146c0 72 54 111 105 130
c-44 16 -94 51 -94 128c0 86 70 138 175 138s175 -52 175 -140zM754 -128c0 82 -78 100 -114 104c-32 -5 -104 -24 -104 -103c0 -68 45 -101 109 -101c66 0 109 33 109 100zM544 124c0 -82 74 -99 107 -102c32 5 96 23 96 101c0 60 -39 94 -102 94s-101 -35 -101 -93z" />
    <glyph glyph-name="arrowup" unicode="&#x2191;" horiz-adv-x="673" 
d="M572 309l-44 -35l-164 167l2 -451h-58l1 451l-163 -167l-44 35l235 236z" />
    <glyph glyph-name="arrowdown" unicode="&#x2193;" horiz-adv-x="710" 
d="M368 -9l-235 236l44 36l164 -168l-2 452h58l-1 -452l163 168l44 -36z" />
    <glyph glyph-name="arrowupleft" unicode="&#x2196;" horiz-adv-x="574" 
d="M437 385l-224 18l307 -311l-46 -42l-306 314l19 -230l-51 -7l-27 336l336 -27z" />
    <glyph glyph-name="arrowupright" unicode="&#x2197;" horiz-adv-x="574" 
d="M99 50l-46 42l308 311l-224 -18l-8 51l336 27l-28 -336l-50 7l18 229z" />
    <glyph glyph-name="arrowdownright" unicode="&#x2198;" horiz-adv-x="574" 
d="M494 52l-335 27l8 51l224 -19l-308 312l46 42l306 -313l-18 229l50 7z" />
    <glyph glyph-name="arrowdownleft" unicode="&#x2199;" horiz-adv-x="574" 
d="M415 79l-336 -27l28 336l50 -7l-18 -229l306 313l46 -42l-308 -312l224 19z" />
    <glyph glyph-name="minus" unicode="&#x2212;" horiz-adv-x="543" 
d="M504 247h-465v61h465v-61z" />
    <glyph glyph-name="uni2731" unicode="&#x2731;" horiz-adv-x="1590" 
d="M973 91l1 -2s-10 -7 -10 -21c0 -30 26 -42 52 -42c31 0 53 28 53 58c0 39 -26 86 -92 86c-35 0 -72 -6 -132 -44c-62 -81 -165 -140 -302 -140c-135 0 -300 78 -300 305c0 68 19 135 56 191c-38 -45 -75 -63 -122 -63c-59 0 -127 34 -127 126s62 111 105 111
c59 0 65 -51 106 -51c32 0 73 18 90 58l4 -3c-5 -51 -50 -93 -100 -93c-40 0 -60 19 -91 19c-24 0 -40 -5 -40 -33c0 -51 42 -72 84 -72c45 0 81 12 137 58c71 71 179 117 320 117c127 0 245 -38 353 -94l1 3c-5 4 -19 19 -19 42c0 26 21 56 60 56c35 0 71 -21 71 -63
c0 -31 -23 -45 -47 -45c-22 0 -32 18 -28 27l3 2s6 -18 22 -18c14 0 19 16 19 32s-16 37 -42 37c-25 0 -37 -22 -37 -39c0 -20 10 -37 17 -44c71 -39 138 -85 200 -132l11 9l18 -18l-10 -8l34 -33l13 10l17 -19l-13 -9c83 -86 181 -216 232 -350h-92
c-39 117 -108 235 -189 318l-50 -33c79 -98 120 -193 148 -287h-93c-25 91 -55 177 -110 250l-12 -7l-15 22l12 7l-19 26l-11 -9l-16 20l13 10c-83 106 -216 274 -457 274c-189 0 -338 -106 -338 -299c0 -198 153 -246 235 -246c175 0 311 140 311 275
c0 82 -67 119 -125 119c-21 0 -37 -10 -58 -28c21 -44 102 -82 133 -62l1 -1s-7 -33 -43 -33c-34 0 -84 40 -99 89c-9 -9 -12 -22 -12 -22c31 -28 44 -84 44 -116c0 -35 -26 -49 -51 -49v-12c0 -64 -37 -83 -62 -83c-32 0 -47 26 -47 26s-30 -22 -64 -22
c-32 0 -48 21 -48 55c0 22 3 40 3 40h-7c-17 0 -52 7 -52 49c0 55 71 76 81 79c-2 1 -17 14 -17 31c0 37 67 49 111 49c9 0 19 2 31 2c10 0 22 -1 37 -6c3 2 8 10 15 17c-41 -1 -103 15 -103 62c0 33 45 40 45 40l1 -1c-6 -5 -10 -16 -7 -29c8 -29 41 -57 75 -60
c28 20 54 38 92 38c88 0 184 -52 184 -173c0 -55 -16 -111 -46 -162c56 41 94 49 132 49c72 0 128 -47 128 -109c0 -60 -50 -105 -110 -105c-42 0 -70 24 -70 60c0 15 7 29 24 36zM1152 351l38 38c-104 81 -182 130 -274 167l-3 -3c100 -55 164 -119 239 -202zM554 294
l-17 55l-53 -17l15 -54zM573 238l-16 50l-55 -17l17 -52zM612 313l-19 53l-50 -14l18 -55zM632 259l-17 46l-51 -15l17 -49zM619 315l38 12c0 15 -6 37 -19 53l-38 -12zM511 216l-16 53l-41 -14c1 -9 8 -35 20 -51zM1242 338l-33 34l-40 -39l23 -26zM587 192l-12 39l-53 -19
l9 -34c18 0 41 6 56 14zM590 372l-11 32c-17 0 -34 -2 -50 -10l11 -35zM493 276l-17 54l-10 -4c-5 -10 -15 -39 -13 -63zM638 243l-3 9l-53 -18l12 -38c16 11 35 31 44 47zM534 356l-13 35c-13 -5 -37 -27 -41 -46l1 -5zM639 262l6 2c8 14 13 36 13 55l-36 -12zM524 178
l-10 32l-35 -12c0 -1 19 -20 45 -20zM597 375l37 11c-12 11 -29 17 -47 19z" />
    <glyph glyph-name="uni2732" unicode="&#x2732;" horiz-adv-x="1590" 
d="M615 89l2 2c17 -7 24 -21 24 -36c0 -36 -29 -60 -70 -60c-61 0 -111 45 -111 105c0 62 57 109 129 109c38 0 74 -8 131 -49c-31 52 -46 109 -46 162c0 121 97 173 184 173c38 0 66 -17 93 -38c35 4 68 31 75 60c3 13 -1 25 -7 29l1 1s45 -7 45 -40
c0 -47 -62 -63 -102 -61l14 -18c14 5 26 6 36 6c13 0 23 -2 33 -2c43 0 111 -12 111 -49c0 -17 -16 -30 -20 -31c12 -3 84 -24 84 -79c0 -41 -35 -49 -53 -49h-6s2 -17 2 -40c0 -34 -15 -54 -47 -54c-34 0 -65 22 -65 22s-15 -26 -46 -26c-25 0 -62 18 -62 82v13
c-26 0 -52 13 -52 48c0 32 13 89 45 116c0 0 -4 13 -12 22c-16 -48 -66 -94 -100 -94c-36 0 -43 33 -43 33l2 1c30 -19 112 23 133 68c-21 17 -38 27 -60 27c-57 0 -124 -37 -124 -119c0 -135 136 -275 311 -275c82 0 234 48 234 246c0 193 -149 299 -337 299
c-242 0 -375 -168 -458 -274l14 -10l-16 -20l-12 9l-19 -26l12 -7l-14 -22l-13 7c-54 -73 -84 -159 -110 -250h-93c29 94 70 189 149 287l-50 33c-81 -83 -150 -201 -190 -318h-91c50 134 149 264 231 350l-13 9l18 19l12 -10l34 33l-9 8l18 18l10 -9c62 47 128 93 200 132
c7 7 17 24 17 44c0 17 -12 39 -37 39c-26 0 -41 -21 -41 -37s5 -32 19 -32c16 0 21 18 21 18l4 -2c4 -9 -6 -27 -29 -27c-24 0 -46 14 -46 45c0 42 36 63 71 63c38 0 60 -30 60 -56c0 -23 -14 -38 -19 -42v-3c108 56 226 94 354 94c143 0 249 -48 319 -118
c56 -45 92 -57 138 -57c41 0 84 21 84 72c0 28 -17 33 -40 33c-31 0 -52 -19 -91 -19c-50 0 -95 42 -101 93l5 3c17 -40 57 -58 90 -58c40 0 46 51 105 51c44 0 106 -19 106 -111s-68 -126 -127 -126c-50 0 -88 20 -127 70c41 -60 61 -130 61 -198
c0 -227 -166 -305 -301 -305c-141 0 -243 61 -304 141c-59 37 -95 43 -130 43c-65 0 -92 -47 -92 -86c0 -30 23 -58 53 -58c26 0 53 12 53 42c0 14 -11 21 -11 21zM399 389l38 -38c76 83 139 147 239 202l-2 3c-93 -37 -170 -86 -275 -167zM1054 350l-18 -55l55 -16l16 54z
M1033 288l-15 -50l54 -19l16 53zM997 366l-19 -53l51 -16l18 55zM975 305l-17 -46l52 -17l17 48zM933 327l39 -12l18 53l-38 12c-13 -16 -19 -38 -19 -53zM1095 269l-16 -53l38 -11c12 15 19 42 20 50zM381 372l-33 -34l49 -31l24 26zM1016 232l-13 -39c15 -9 39 -15 56 -15
l10 34zM1011 405l-11 -32l50 -13l11 34c-16 8 -33 11 -50 11zM1114 331l-16 -55l39 -13c2 25 -7 54 -13 63zM956 252l-4 -9c9 -16 29 -36 44 -47l12 39zM1069 391l-13 -35l53 -15l2 5c-5 18 -29 40 -42 45zM946 264l6 -2l17 46l-37 11c0 -18 5 -40 14 -55zM1076 210l-10 -32
c26 0 46 20 46 20zM956 386l37 -11l10 30c-18 -2 -35 -7 -47 -19z" />
    <glyph glyph-name="uni2733" unicode="&#x2733;" horiz-adv-x="1263" 
d="M621 34l-20 18s-11 -58 -43 -86c-5 27 -16 51 -14 79c-12 -14 -38 -12 -59 -17c11 24 23 36 23 65c0 28 -38 40 -76 45c-69 -41 -159 -77 -272 -83l-1 40c35 2 70 7 102 15c2 3 3 9 3 16c0 21 -44 50 -49 53c8 1 21 8 35 5l-35 48c11 2 27 12 45 4c0 0 -6 28 -14 39
c13 -1 26 5 47 5c41 0 60 -25 60 -57c0 -33 -21 -72 -59 -97l-13 -11c113 32 204 92 255 141l-213 105l-4 -8c-10 -17 -31 -4 -23 11l4 8l-3 1c-27 -26 -62 -37 -99 -37c-76 0 -141 63 -141 136c0 10 1 20 3 31l-9 4c-4 2 -6 10 -2 18l28 56c4 9 10 12 14 10l10 -5
c28 32 68 46 109 46c82 0 145 -66 139 -154l2 -2l4 8c7 15 30 6 23 -10l-4 -8l228 -112c27 30 50 74 76 116c-2 34 -14 61 -37 61c-5 -99 -99 -97 -99 -97l-6 32l-55 -9s-1 33 -1 36c-27 -1 -38 13 -66 14c0 0 21 29 31 49c-32 20 -52 59 -52 59c20 1 47 19 100 25
c-1 14 -12 29 -17 34c13 2 29 16 61 16c47 0 121 -19 112 -128c25 -1 44 -29 51 -57c38 59 84 108 151 108c72 0 110 -67 180 -67c15 0 31 3 49 10c2 29 22 54 53 58c33 4 63 -19 67 -52c3 -31 -15 -58 -44 -65c22 -7 39 -26 42 -50c4 -34 -19 -62 -52 -67
c-19 -2 -36 3 -49 14c5 -7 7.95508 -15.0049 9 -24c3.83594 -33.0195 -20 -62 -53 -66c-17 -2 -31 2 -43 11c-7 -4 -15 -7 -24 -8c-24 -3 -44 9 -54 28c-9 -16 -26 -28 -46 -30c-34 -5 -62 17 -66 51c-2 10 0 21 3 30c-8 -6 -18.0029 -10.9678 -29 -12
c-31.0088 -2.91016 -57 18 -61 49c-3 30 18.0049 57.9502 49 61c20.0029 1.96777 39 -6 50 -22c35 16 62 61 73 98c-20 9 -39 16 -59 16c-97 0 -141 -161 -214 -237l172 -84l4 8c6 12 29 4 23 -10l-4 -9l253 -124l8 17c7.04785 14.9775 34 2 26 -13l-68 -137
c-7 -15 -34 -6 -26 12l8 16l-252 124l-4 -7c-8 -15 -31 -5 -23 11l4 8l-185 90c-23 -21 -52 -47 -89 -73c19 6 39 9 58 9c55 0 102 -26 102 -85c0 -24 -14 -48 -18 -58zM288 421c21 70 -65 126 -130 126c-23 0 -44 -7 -56 -23c-6 -10 -11 -24 -11 -41
c0 -59 48 -110 108 -109c31 -1 70 14 89 47zM762 170l23 45l-428 209l-22 -44zM1019 44l23 44l-234 116l-24 -45zM1039 423c18 2 36 -4 48 -16c-4 7 -7 15 -8 25s0 20 3 28c-28 15 -73 37 -109 60c24 -37 53 -77 63 -98c1 0 2 1 3 1zM843 435c1 -9 0 -18 -3 -26
c8 7 19 12 31 14c9 1 18 0 26 -3c9 23 16 65 19 104c-19 -37 -45 -63 -77 -74c2 -5 3 -10 4 -15zM911 414c9 -6 16 -14 21 -24c7 12 17 21 30 25c-1 26 -18 77 -29 113c-3 -44 -11 -94 -22 -114zM1083 536c-27 -12 -51 -15 -73 -14c30 -17 62 -32 83 -43c8 9 17 15 29 18
c-19 5 -33 20 -39 39zM980 417c10 0 20 -2 28 -7l8 6c-10 21 -35 54 -58 92c10 -32 21 -68 22 -91z" />
    <glyph glyph-name="uni2736" unicode="&#x2736;" horiz-adv-x="498" 
d="M428 143l-179 -71l-179 71v357h358v-357zM359 199v197l-52 -71l28 -53l-75 -45l25 106l-36 118l-36 -118l25 -106l-76 45l29 53l-52 71v-197h75l35 -64l35 64h75z" />
    <glyph glyph-name="uni2737" unicode="&#x2737;" horiz-adv-x="885" 
d="M620 0h-355l9 77c-6 -17 -32 -46 -80 -46c-69 0 -102 48 -102 86c0 32 13 48 29 56c-72 13 -73 70 -75 106l49 -6c5 26 17 74 59 73c-4 5 -11 15 -11 25c0 17 14 34 36 34c11 0 19 -5 25 -17v49l139 145h74c-9 6 -17 26 -17 40c0 29 18 42 42 48c24 -6 43 -19 43 -48
c0 -14 -8 -34 -17 -40h74l139 -145v-49c6 12 14 17 25 17c22 0 35 -17 35 -34c0 -10 -7 -20 -10 -25c42 1 53 -47 58 -73l50 6c-2 -36 -3 -93 -75 -106c16 -8 28 -24 28 -56c0 -38 -32 -86 -101 -86c-48 0 -74 29 -81 46zM346 99h193l120 136v193l-126 132h-181l-126 -132
v-193zM510 162h-135l-91 97v145l91 97h135l91 -97v-145zM442 181c7 29 38 65 66 65c20 0 42 -7 42 -7s-3 65 -3 91c0 43 6 87 6 87c-50 -13 -62 -27 -62 -52c0 -30 -7 -38 -7 -38c4 0 44 10 44 -32c0 -22 -25 -33 -44 -33c-12 0 -29 7 -29 35c0 76 1 114 35 114h2v6
c0 16 -31 25 -50 65c-18 -40 -49 -49 -49 -65v-6h1c35 0 36 -38 36 -114c0 -28 -17 -35 -29 -35c-19 0 -44 11 -44 33c0 42 39 32 44 32c0 0 -7 8 -7 38c0 25 -12 39 -63 52c0 0 7 -44 7 -87c0 -26 -4 -91 -4 -91s22 7 42 7c28 0 59 -36 66 -65zM695 105c-6 8 -1 23 8 23
c8 0 17 -5 17 -17c0 -13 -14 -20 -25 -20c-19 0 -32 17 -32 39c0 28 17 56 53 56h25c54 2 70 45 70 75c-65 -17 -88 10 -142 -44c-41 -41 -55 -69 -55 -82c0 -55 38 -81 75 -81c49 0 81 32 81 66s-19 52 -51 52c-31 0 -44 -18 -44 -41c0 -13 7 -28 20 -26zM74 261
c0 -30 15 -73 70 -75h25c36 0 53 -28 53 -56c0 -22 -13 -39 -32 -39c-11 0 -24 5 -24 19c0 11 8 17 16 17c9 0 14 -16 8 -23c12 -2 20 13 20 26c0 23 -14 40 -45 40s-49 -19 -49 -50c0 -36 30 -66 79 -66c37 0 76 26 76 81c0 13 -14 41 -55 82c-55 54 -77 27 -142 44z
M590 22l-9 95l-42 -42h-193l-42 42l-9 -95h295zM678 242l7 2c22 29 39 36 82 33c-3 21 -18 50 -42 50c-31 0 -47 -24 -47 -68v-17zM200 244l6 -2v17c0 44 -15 68 -46 68c-25 0 -39 -29 -42 -50c43 3 59 -4 82 -33zM417 622c0 -12 11 -33 25 -40c15 7 26 28 26 40
c0 18 -12 26 -26 29c-14 -3 -25 -11 -25 -29zM205 330c0 46 -9 59 -26 59c-11 0 -20 -8 -20 -18c0 -18 20 -33 46 -41zM680 330c26 8 45 23 45 41c0 10 -8 18 -19 18c-17 0 -26 -13 -26 -59z" />
    <glyph glyph-name="uni2766" unicode="&#x2766;" horiz-adv-x="954" 
d="M549 305c13 -28 -1 -60 -30 -73c-28 -12 -59 0 -71 29c-13 28 -1 61 27 73c19 8 40 5 55 -6c30 27 51 86 48 126c-19 9 -59 24 -113 24c-18 0 -38 -2 -59 -6c7 -19 10 -39 10 -60c0 -87 -57 -182 -167 -221c31 -87 120 -133 203 -133c64 0 124 27 153 84l26 -15
c-33 -70 -105 -103 -181 -103c-99 0 -204.591 56.125 -237 162c-8.8877 29.0342 -13 57 -13 83c0 110 74 192 163 222c-12 17 -28 32 -49 42c-21 -68 -80 -90 -132 -90c-33 0 -62 9 -80 20c8 17 17 43 25 52c-70 13 -85 39 -98 45c8 3 11 35 32 45c-40 51 -31 75 -41 86
c19 -5 40 17 89 17c16 0 34 -2 56 -8c-11 24 -7 45 -6 62c53 10 179 -36 179 -141c0 -18 -3 -38 -12 -59c30 -15 53 -37 68 -63c23 5 46 7 67 7c64 0 116 -18 142 -26c19 -5 40 -9 64 -9c29 0 61 6 94 25c-3 26 10.0254 50.9453 36 63c30.0293 13.9365 65 0 79 -30
c13 -30 3 -62 -24 -77c19 -4 35 -16 44 -34c14 -31 0 -65 -31 -80c-10 -4 -19 -6 -28 -5l5 -9c13 -30 -1 -65 -32 -78c-15 -7 -31 -7 -45 -2c-2 -19 -14 -35 -33 -43c-25 -11 -54 -3 -69 17c-6 -12 -16 -22 -29 -28c-31 -14 -65 -1 -79 30c-14 30 -1 66 30 79c8 4 16 5 25 5
c3 27 -2 76 -10 119c-8 -45 -31 -83 -59 -105c3 -4 6 -8 8 -13zM242 216c96 36 145 119 145 193c0 20 -3 39 -10 56c-81 -25 -142 -96 -142 -191c0 -18 2 -38 7 -58zM626 302c13 -3 25 -12 34 -24c5 9 13 17 23 22c-11 38 -43 92 -66 128c9 -44 14 -98 9 -126zM698 305
c10 2 20 2 28 0c1 13 6 26 16 36c-19 20 -64 52 -104 86c22 -37 51 -86 60 -122zM768 475c-26 -15 -56 -24 -85 -29c37 -12 77 -23 103 -28c4 11 12 20 23 26c-17 4 -32 14 -41 31zM762 356c9 4 19 5 29 4l-4 8c-5 9 -7 19 -6 29c-29 5 -77 19 -118 33c36 -29 79 -59 95 -76
z" />
    <glyph glyph-name="uni2767" unicode="&#x2767;" horiz-adv-x="653" 
d="M230 178c5 -28 -12 -52 -39 -58c-27 -5 -51 11 -56 38c-6 27 10 53 37 58c18 4 36 -3 47 -16c35 22 65 68 62 106c-18 9 -67 23 -116 23c-61 0 -95 -22 -122 -48l-33 14c30 28 61 67 149 67c10 0 20 -1 30 -2c40 9 79 28 100 64c-45 23 -60 58 -60 94c0 47 26 94 48 113
c14 -14 38 -28 45 -38c28 59 52 74 58 84c1 -7 31 -25 34 -47c48 26 71 9 80 18c-4 -11 0 -23 0 -43s-5 -47 -28 -86c24 5 42 -6 56 -7c4 -41 -51 -139 -135 -139c-24 0 -50 8 -78 27c-14 -23 -34 -39 -58 -50c20 -5 38 -12 54 -18c49 -20 143 -81 186 -94c8 12 20 21 36 24
c29 6 57 -13 63 -42c6 -30 -14 -57 -43 -63c-17 -3 -32 1 -43 9c7 -7 12 -16 14 -26c5 -30 -15 -56 -43 -62c-24 -4 -46 6 -56 25c1 -25 -16 -46 -40 -50c-26 -6 -52 10 -58 35c-7 -16 -22 -28 -40 -31c-30 -6 -55.9004 12.0205 -62 42c-5.9043 29.0195 13 58 42 62
c6 1 12 1 17 1c8 23 19 68 19 109c-10 -40 -41 -71 -69 -86zM375 149c16 -2 29 -11 37 -24c-2 19 5 37 19 48c-15 25 -54 73 -94 109c17 -38 36 -94 38 -133zM296 156c13 -6 23 -18 27 -33c6 12 18 21 32 25c-1 40 -22 98 -39 134c2 -45 -10 -102 -20 -126zM455 184
c15 2 29 -2 41 -10c-6 7 -10 15 -11 25c-2 7 -2 13 -1 20c-23 6 -63 27 -104 49c30 -31 58 -66 70 -85c1 0 3 0 5 1z" />
    <glyph glyph-name="st" unicode="&#xfb06;" horiz-adv-x="824" 
d="M409 367h-54l-6 49l-10 8l-20 13c-19 10 -44 20 -75 20c-62 0 -105 -27 -105 -71c0 -123 297 -71 297 -242c0 -85 -60 -158 -215 -158c-105 0 -165 26 -165 26l-7 127l50 4l6 -83c27 -8 67 -17 114 -17c96 0 135 45 135 92c0 124 -295 63 -295 242c0 85 75 137 173 137
c6 0 12 0 17 -1c-13 25 -21 52 -21 88c0 77 59 149 173 149h238v-250h152v-63h-152v-285c0 -67 19 -98 66 -98c31 0 78 8 78 8v-55s-44 -14 -102 -14c-83 0 -122 38 -122 141v515l11 52h-167c-78 0 -123 -42 -123 -110c0 -41 17 -73 36 -96c16 -8 30 -16 41 -24l11 34h41
v-138z" />
    <glyph glyph-name="halfcaron" horiz-adv-x="388" 
d="M236 545l-48 7c22 45 40 129 36 182l6 35l55 -7c-3 -66 -25 -167 -49 -217z" />
    <glyph glyph-name="commaaccent" horiz-adv-x="237" 
d="M49 -289l-25 22c54 42 73 107 65 150c-8 1 -15 3 -21 8c-9 7 -13 17 -13 27s4 20 13 27c7 6 17 9 27 9s20 -3 28 -9c2 -2 4 -4 5 -6c10 -13 15 -31 15 -52c0 -57 -36 -135 -94 -176z" />
    <glyph glyph-name="zero.onum" horiz-adv-x="678" 
d="M339 -14c-185 0 -274 116 -274 273s89 255 274 255c184 0 274 -98 274 -255s-90 -273 -274 -273zM339 49c131 0 192 90 192 210s-61 192 -192 192c-130 0 -192 -72 -192 -192s60 -210 192 -210z" />
    <glyph glyph-name="one.onum" horiz-adv-x="426" 
d="M234 500h64v-441l60 -3l-4 -56h-226l-3 60l93 3v371c-56 -14 -141 -36 -146 -36l-8 58c8 0 170 44 170 44z" />
    <glyph glyph-name="two.onum" horiz-adv-x="553" 
d="M123 348h-58l4 156h47l6 -39c28 21 76 49 141 49c131 0 196 -59 196 -150c0 -141 -186 -248 -288 -296h266l9 77l56 -4l-4 -141h-453v55l16 3c41 20 310 153 310 293c0 64 -43 97 -131 97c-63 0 -99 -32 -113 -47z" />
    <glyph glyph-name="three.onum" horiz-adv-x="532" 
d="M448 453l-201 -229c7 0 14 1 22 1c122 0 206 -65 206 -175c0 -129 -114 -214 -272 -214c-118 0 -159 30 -159 30l-4 125l54 4l8 -82c22 -7 54 -13 102 -13c119 0 189 65 189 150c0 72 -52 118 -146 118c-42 0 -68 -22 -68 -22l-37 39l208 248h-237l-7 -81h-56l4 152
l65 -4h329v-47z" />
    <glyph glyph-name="four.onum" horiz-adv-x="562" 
d="M449 -150h-80v150h-330l-5 53c58 102 152 289 211 453l76 -6c-55 -163 -143 -329 -204 -439h252v242l11 102h69v-344h84v-57l-84 -4v-150z" />
    <glyph glyph-name="five.onum" horiz-adv-x="523" 
d="M48 -134l-4 125l54 3l8 -80c21 -8 54 -14 105 -14c112 0 180 72 180 162c0 77 -66 130 -167 130c-61 0 -96 -21 -99 -25l-42 5l33 328h270l6 36l56 -4l-4 -103l-68 4h-199l-20 -192c21 5 46 9 74 9c147 0 242 -69 242 -188c0 -137 -112 -226 -264 -226
c-126 0 -161 30 -161 30z" />
    <glyph glyph-name="six.onum" horiz-adv-x="601" 
d="M481 509h-58l-4 51c-15 14 -49 41 -102 41c-103 0 -165 -82 -175 -248c37 30 92 60 174 60c144 0 230 -71 230 -193c0 -120 -76 -234 -234 -234s-247 106 -247 274c0 22 2 52 3 63c16 231 107 340 241 340c49 0 90 -24 115 -43l10 34h47v-145zM307 359
c-99 0 -145 -57 -156 -81c-3 -9 -4 -23 -4 -41c0 -112 52 -193 165 -193c111 0 152 95 152 177c0 75 -48 138 -157 138z" />
    <glyph glyph-name="seven.onum" horiz-adv-x="488" 
d="M467 434c-93 -154 -199 -384 -247 -584h-93c50 200 154 415 247 579h-276l-6 -81h-56l4 156l64 -4h363v-66z" />
    <glyph glyph-name="eight.onum" horiz-adv-x="582" 
d="M513 497c0 -94 -71 -140 -134 -163c64 -17 149 -61 149 -169c0 -125 -94 -179 -237 -179s-236 54 -236 182c0 94 77 142 144 165c-58 20 -129 65 -129 166c0 105 86 164 221 164s222 -59 222 -166zM440 170c0 106 -105 130 -152 135c-41 -5 -145 -30 -145 -134
c0 -89 57 -131 148 -131c92 0 149 43 149 130zM153 495c0 -106 97 -131 141 -137c38 6 135 32 135 136c0 77 -48 115 -138 115s-138 -39 -138 -114z" />
    <glyph glyph-name="nine.onum" horiz-adv-x="601" 
d="M261 -101c108 0 188 86 197 245c-25 -27 -76 -69 -173 -69c-144 0 -230 93 -230 215c0 120 84 224 242 224s239 -86 239 -254c0 -22 -2 -72 -3 -82c-10 -228 -121 -341 -272 -341c-104 0 -159 20 -159 20l-4 134l54 4l8 -86c24 -5 57 -10 101 -10zM294 129
c94 0 140 51 154 73c3 15 6 56 6 78c0 112 -45 176 -157 176s-160 -85 -160 -166c0 -76 48 -161 157 -161z" />
    <glyph glyph-name="dollar.onum" horiz-adv-x="469" 
d="M268 -117h-60l-5 103c-94 3 -147 26 -147 26l-7 127l50 4l6 -83c27 -8 67 -17 114 -17c96 0 135 45 135 92c0 124 -295 63 -295 242c0 76 60 126 143 135l2 121h60l4 -123c38 -7 69 -25 89 -39l11 34h41v-138h-54l-6 49c-15 13 -51 41 -105 41c-62 0 -105 -27 -105 -71
c0 -123 297 -71 297 -242c0 -76 -48 -142 -167 -155z" />
    <glyph glyph-name="cent.onum" horiz-adv-x="487" 
d="M304 -119h-60l-5 108c-130 17 -201 111 -201 266c0 156 70 245 201 257l1 119h60l4 -121c39 -8 70 -29 91 -45l11 40h52v-170h-62l-5 71c-13 14 -50 49 -108 49c-110 0 -162 -56 -162 -199c0 -144 67 -211 173 -211c93 0 145 60 145 60l36 -40s-48 -72 -170 -78z" />
    <glyph glyph-name="sterling.onum" horiz-adv-x="548" 
d="M524 0h-471v60h86c16 19 21 45 21 80c0 23 -2 49 -4 79l-103 1v54h100v43c0 109 57 198 179 198c47 0 85 -22 108 -39l8 29h51v-137h-62l-4 48c-16 13 -45 32 -83 32c-82 0 -117 -58 -117 -128v-46h226v-55h-223c1 -22 2 -42 2 -60c0 -39 -4 -72 -19 -99h243l9 79l57 -4z
" />
    <glyph glyph-name="yen.onum" horiz-adv-x="563" 
d="M180 495l-33 -2l141 -202l138 201l-33 2v56h205v-58l-91 -3l-168 -245h154v-61h-167v-122l70 -2l-4 -59h-213l-4 59l69 2v122h-171v61h156l-171 248l-94 3l4 55h212v-55z" />
    <glyph glyph-name="Euro.onum" horiz-adv-x="567" 
d="M511 363h-61l-5 49c-14 16 -47 43 -103 43c-109 0 -163 -52 -168 -182h336v-55h-335c11 -118 77 -173 173 -173c93 0 143 53 143 53l37 -37s-48 -75 -188 -75c-146 0 -232 82 -244 232l-60 1v54h59c5 157 86 241 227 241c60 0 103 -26 128 -46l10 37h51v-142z" />
    <glyph glyph-name="uni20B4.onum" horiz-adv-x="501" 
d="M151 374h-50l3 131h42l6 -32c23 18 61 41 112 41c98 0 156 -52 156 -126c0 -51 -32 -86 -66 -110h87v-55h-211c-25 -10 -72 -36 -72 -92s46 -86 119 -86c40 0 70 5 90 10l5 72l50 -4l-3 -117s-41 -20 -156 -20c-116 0 -179 50 -179 127c0 52 31 87 64 110l-94 1v54h215
c30 12 78 39 78 95c0 51 -39 82 -104 82c-46 0 -75 -25 -87 -38z" />
    <glyph glyph-name="afii61352.onum" horiz-adv-x="1163" 
d="M597 -5h-83l-335 438h-2l4 -17v-360l71 -4l-4 -52h-207l-4 59l70 2v431l-71 3l3 55h151l334 -444l-2 16v369l-70 3l3 56h210v-55l-68 -2v-498zM907 190c-134 0 -200 71 -200 185s66 185 200 185c135 0 201 -71 201 -185s-69 -185 -201 -185zM907 235c88 0 126 51 126 140
c0 88 -38 138 -126 138c-87 0 -126 -50 -126 -138s39 -140 126 -140zM1039 0h-264v61h264v-61z" />
    <glyph glyph-name="onefifth" horiz-adv-x="948" 
d="M236 750h62v-463l95 -2l-3 -55h-270l-4 55l109 5v389l-114 -55l-22 53zM362 -4l-50 28l352 561l50 -27zM564 -252l-4 104l50 3l7 -63c18 -6 43 -11 83 -11c86 0 138 49 138 117c0 59 -50 106 -128 106c-48 0 -78 -16 -82 -20l-37 5l27 266h216l5 28l50 -3l-3 -90l-62 3
h-151l-15 -142c16 3 34 6 54 6c120 0 197 -63 197 -160c0 -113 -93 -174 -214 -174c-102 0 -131 25 -131 25z" />
    <glyph glyph-name="twofifths" horiz-adv-x="954" 
d="M115 624h-53l4 129h43l8 -35c24 19 63 43 115 43c115 0 165 -66 165 -152c0 -120 -158 -250 -252 -316h212l7 60l52 -4l-4 -119h-361v61c4 2 265 188 265 312c0 63 -27 98 -104 98c-50 0 -82 -28 -94 -41zM368 -4l-50 28l352 561l50 -27zM569 -252l-4 104l50 3l7 -63
c18 -6 43 -11 83 -11c86 0 138 49 138 117c0 59 -50 106 -128 106c-48 0 -78 -16 -82 -20l-37 5l27 266h216l5 28l50 -3l-3 -90l-62 3h-151l-15 -142c16 3 34 6 54 6c120 0 197 -63 197 -160c0 -113 -93 -174 -214 -174c-102 0 -131 25 -131 25z" />
    <glyph glyph-name="threefifths" horiz-adv-x="953" 
d="M389 707l-154 -176c4 1 8 1 12 1c95 0 163 -60 163 -150c0 -105 -93 -164 -219 -164c-92 0 -128 25 -128 25l-3 104l50 3l7 -64c18 -6 43 -10 78 -10c92 0 143 44 143 107c0 55 -38 96 -108 96c-36 0 -57 -18 -57 -18l-33 36l164 192h-180l-6 -64h-51l3 128l60 -3h259
v-43zM368 -4l-50 28l352 561l50 -27zM569 -252l-4 104l50 3l7 -63c18 -6 43 -11 83 -11c86 0 138 49 138 117c0 59 -50 106 -128 106c-48 0 -78 -16 -82 -20l-37 5l27 266h216l5 28l50 -3l-3 -90l-62 3h-151l-15 -142c16 3 34 6 54 6c120 0 197 -63 197 -160
c0 -113 -93 -174 -214 -174c-102 0 -131 25 -131 25z" />
    <glyph glyph-name="fourfifths" horiz-adv-x="953" 
d="M368 230h-165l-3 51l52 2v90h-250l-5 45c44 80 102 212 137 340l70 -8c-36 -124 -86 -237 -129 -321h177v161l11 84h63v-245h63v-52l-63 -4v-89l45 -3zM368 -4l-50 28l352 561l50 -27zM569 -252l-4 104l50 3l7 -63c18 -6 43 -11 83 -11c86 0 138 49 138 117
c0 59 -50 106 -128 106c-48 0 -78 -16 -82 -20l-37 5l27 266h216l5 28l50 -3l-3 -90l-62 3h-151l-15 -142c16 3 34 6 54 6c120 0 197 -63 197 -160c0 -113 -93 -174 -214 -174c-102 0 -131 25 -131 25z" />
    <glyph glyph-name="ct" horiz-adv-x="881" 
d="M458 335h-62l-5 71c-13 14 -50 49 -108 49c-110 0 -162 -56 -162 -199c0 -144 67 -211 173 -211c93 0 145 60 145 60l36 -40s-52 -79 -188 -79c-161 0 -249 96 -249 269c0 169 82 259 233 259h7c-17 26 -28 56 -28 93c0 77 70 143 184 143h262v-250h152v-63h-152v-285
c0 -67 19 -98 66 -98c31 0 78 8 78 8v-55s-44 -14 -102 -14c-83 0 -122 38 -122 141v515l11 52h-191c-79 0 -135 -36 -135 -104c0 -44 24 -78 50 -104c18 -9 32 -19 44 -28l11 40h52v-170z" />
    <glyph glyph-name="a.alt" horiz-adv-x="600" 
d="M564 0h-127l-8 59c-9 -14 -53 -73 -161 -73c-137 0 -230 103 -230 261c0 164 81 267 242 267c103 0 147 -57 147 -57h2l5 43h74v-441l59 -3zM291 48c99 0 137 76 137 76v271s-40 58 -127 58c-127 0 -180 -72 -180 -204c0 -130 62 -201 170 -201z" />
    <glyph glyph-name="aring.alt" horiz-adv-x="600" 
d="M564 0h-127l-8 59c-9 -14 -53 -73 -161 -73c-137 0 -230 103 -230 261c0 164 81 267 242 267c103 0 147 -57 147 -57h2l5 43h74v-441l59 -3zM291 48c99 0 137 76 137 76v271s-40 58 -127 58c-127 0 -180 -72 -180 -204c0 -130 62 -201 170 -201zM313 587
c-61 0 -102 41 -102 103c0 61 44 104 102 104c56 0 101 -43 101 -104c0 -62 -43 -103 -101 -103zM313 623c36 0 63 27 63 67c0 41 -29 68 -63 68c-36 0 -64 -27 -64 -68c0 -40 28 -67 64 -67z" />
    <glyph glyph-name="agrave.alt" horiz-adv-x="600" 
d="M564 0h-127l-8 59c-9 -14 -53 -73 -161 -73c-137 0 -230 103 -230 261c0 164 81 267 242 267c103 0 147 -57 147 -57h2l5 43h74v-441l59 -3zM291 48c99 0 137 76 137 76v271s-40 58 -127 58c-127 0 -180 -72 -180 -204c0 -130 62 -201 170 -201zM351 577l-57 -5l-116 139
l77 9z" />
    <glyph glyph-name="adieresis.alt" horiz-adv-x="600" 
d="M564 0h-127l-8 59c-9 -14 -53 -73 -161 -73c-137 0 -230 103 -230 261c0 164 81 267 242 267c103 0 147 -57 147 -57h2l5 43h74v-441l59 -3zM291 48c99 0 137 76 137 76v271s-40 58 -127 58c-127 0 -180 -72 -180 -204c0 -130 62 -201 170 -201zM431 614
c-9 -7 -19 -10 -30 -10s-22 3 -30 10c-9 8 -13 19 -13 30s4 23 13 31c8 6 19 10 30 10s21 -4 30 -10c8 -8 13 -20 13 -31s-5 -22 -13 -30zM253 614c-8 -7 -19 -10 -30 -10s-21 3 -29 10c-9 8 -13 19 -13 30s4 23 13 31c8 6 18 10 29 10s22 -4 30 -10c8 -8 13 -20 13 -31
s-5 -22 -13 -30z" />
    <glyph glyph-name="aogonek.alt" horiz-adv-x="600" 
d="M528 -208v-42c-89 0 -184 20 -184 117c0 63 53 108 94 133h-1l-8 59c-9 -14 -53 -73 -161 -73c-137 0 -230 103 -230 261c0 164 81 267 242 267c103 0 147 -57 147 -57h2l5 43h74v-441l59 -3l-3 -56h-59s-103 -44 -103 -132c0 -64 63 -76 126 -76zM291 48
c99 0 137 76 137 76v271s-40 58 -127 58c-127 0 -180 -72 -180 -204c0 -130 62 -201 170 -201z" />
    <glyph glyph-name="abreve.alt" horiz-adv-x="600" 
d="M564 0h-127l-8 59c-9 -14 -53 -73 -161 -73c-137 0 -230 103 -230 261c0 164 81 267 242 267c103 0 147 -57 147 -57h2l5 43h74v-441l59 -3zM291 48c99 0 137 76 137 76v271s-40 58 -127 58c-127 0 -180 -72 -180 -204c0 -130 62 -201 170 -201zM313 629
c86 0 102 59 102 59l70 -10s-21 -102 -172 -102c-152 0 -172 102 -172 102l69 10s16 -59 103 -59z" />
    <glyph glyph-name="aacute.alt" horiz-adv-x="600" 
d="M564 0h-127l-8 59c-9 -14 -53 -73 -161 -73c-137 0 -230 103 -230 261c0 164 81 267 242 267c103 0 147 -57 147 -57h2l5 43h74v-441l59 -3zM291 48c99 0 137 76 137 76v271s-40 58 -127 58c-127 0 -180 -72 -180 -204c0 -130 62 -201 170 -201zM327 572l-57 4l95 143
l77 -8z" />
    <glyph glyph-name="amacron.alt" horiz-adv-x="600" 
d="M564 0h-127l-8 59c-9 -14 -53 -73 -161 -73c-137 0 -230 103 -230 261c0 164 81 267 242 267c103 0 147 -57 147 -57h2l5 43h74v-441l59 -3zM291 48c99 0 137 76 137 76v271s-40 58 -127 58c-127 0 -180 -72 -180 -204c0 -130 62 -201 170 -201zM420 633h-214v42h214v-42
z" />
    <glyph glyph-name="acircumflex.alt" horiz-adv-x="600" 
d="M564 0h-127l-8 59c-9 -14 -53 -73 -161 -73c-137 0 -230 103 -230 261c0 164 81 267 242 267c103 0 147 -57 147 -57h2l5 43h74v-441l59 -3zM291 48c99 0 137 76 137 76v271s-40 58 -127 58c-127 0 -180 -72 -180 -204c0 -130 62 -201 170 -201zM442 594l-130 95
l-129 -95l-27 48l134 101h45l133 -101z" />
    <glyph glyph-name="atilde.alt" horiz-adv-x="600" 
d="M564 0h-127l-8 59c-9 -14 -53 -73 -161 -73c-137 0 -230 103 -230 261c0 164 81 267 242 267c103 0 147 -57 147 -57h2l5 43h74v-441l59 -3zM291 48c99 0 137 76 137 76v271s-40 58 -127 58c-127 0 -180 -72 -180 -204c0 -130 62 -201 170 -201zM481 672l10 -42
s-14 -38 -82 -38s-119 49 -182 49c-47 0 -78 -33 -78 -33l-10 47s22 47 94 47c73 0 122 -51 182 -51c44 0 66 21 66 21z" />
    <glyph glyph-name="g.alt" horiz-adv-x="592" 
d="M507 -22c0 -178 -117 -242 -261 -242c-124 0 -160 24 -160 24l-3 143l53 3l9 -99c23 -7 55 -14 101 -14c114 0 181 58 181 195v46s-49 -48 -153 -48c-155 0 -236 114 -236 278c0 157 93 250 230 250c122 0 161 -72 161 -72l8 58h70v-522zM301 45c76 0 117 35 126 44v297
c-6 9 -46 68 -136 68c-108 0 -170 -58 -170 -188c0 -135 53 -221 180 -221z" />
    <glyph glyph-name="gcommaaccent.alt" horiz-adv-x="592" 
d="M507 -22c0 -178 -117 -242 -261 -242c-124 0 -160 24 -160 24l-3 143l53 3l9 -99c23 -7 55 -14 101 -14c114 0 181 58 181 195v46s-49 -48 -153 -48c-155 0 -236 114 -236 278c0 157 93 250 230 250c122 0 161 -72 161 -72l8 58h70v-522zM301 45c76 0 117 35 126 44v297
c-6 9 -46 68 -136 68c-108 0 -170 -58 -170 -188c0 -135 53 -221 180 -221zM322 819l25 -22c-54 -42 -73 -107 -65 -150c8 -1 15 -3 21 -8c9 -7 13 -17 13 -27s-4 -20 -13 -27c-7 -6 -17 -9 -27 -9s-20 3 -28 9c-2 2 -4 4 -5 6c-10 13 -15 31 -15 52c0 57 36 135 94 176z
" />
    <glyph glyph-name="gbreve.alt" horiz-adv-x="592" 
d="M507 -22c0 -178 -117 -242 -261 -242c-124 0 -160 24 -160 24l-3 143l53 3l9 -99c23 -7 55 -14 101 -14c114 0 181 58 181 195v46s-49 -48 -153 -48c-155 0 -236 114 -236 278c0 157 93 250 230 250c122 0 161 -72 161 -72l8 58h70v-522zM301 45c76 0 117 35 126 44v297
c-6 9 -46 68 -136 68c-108 0 -170 -58 -170 -188c0 -135 53 -221 180 -221zM318 629c86 0 102 59 102 59l70 -10s-21 -102 -172 -102c-152 0 -172 102 -172 102l69 10s16 -59 103 -59z" />
    <glyph glyph-name="y.alt" horiz-adv-x="595" 
d="M430 110v327l-59 3l4 60h136v-522c0 -178 -118 -242 -262 -242c-124 0 -160 24 -160 24l-4 143l54 3l9 -99c23 -7 55 -14 101 -14c114 0 181 58 181 195v57c-13 -15 -56 -59 -162 -59c-111 0 -185 46 -185 155v296l-59 3l4 60h135v-344c0 -72 52 -102 132 -102
c100 0 135 56 135 56z" />
    <glyph glyph-name="yacute.alt" horiz-adv-x="595" 
d="M430 110v327l-59 3l4 60h136v-522c0 -178 -118 -242 -262 -242c-124 0 -160 24 -160 24l-4 143l54 3l9 -99c23 -7 55 -14 101 -14c114 0 181 58 181 195v57c-13 -15 -56 -59 -162 -59c-111 0 -185 46 -185 155v296l-59 3l4 60h135v-344c0 -72 52 -102 132 -102
c100 0 135 56 135 56zM320 572l-57 4l95 143l77 -8z" />
    <glyph glyph-name="ydieresis.alt" horiz-adv-x="595" 
d="M430 110v327l-59 3l4 60h136v-522c0 -178 -118 -242 -262 -242c-124 0 -160 24 -160 24l-4 143l54 3l9 -99c23 -7 55 -14 101 -14c114 0 181 58 181 195v57c-13 -15 -56 -59 -162 -59c-111 0 -185 46 -185 155v296l-59 3l4 60h135v-344c0 -72 52 -102 132 -102
c100 0 135 56 135 56zM423 614c-9 -7 -19 -10 -30 -10s-22 3 -30 10c-9 8 -13 19 -13 30s4 23 13 31c8 6 19 10 30 10s21 -4 30 -10c8 -8 13 -20 13 -31s-5 -22 -13 -30zM245 614c-8 -7 -19 -10 -30 -10s-21 3 -29 10c-9 8 -13 19 -13 30s4 23 13 31c8 6 18 10 29 10
s22 -4 30 -10c8 -8 13 -20 13 -31s-5 -22 -13 -30z" />
    <glyph glyph-name="afii10065.alt" horiz-adv-x="600" 
d="M564 0h-127l-8 59c-9 -14 -53 -73 -161 -73c-137 0 -230 103 -230 261c0 164 81 267 242 267c103 0 147 -57 147 -57h2l5 43h74v-441l59 -3zM291 48c99 0 137 76 137 76v271s-40 58 -127 58c-127 0 -180 -72 -180 -204c0 -130 62 -201 170 -201z" />
    <glyph glyph-name="afii10066.alt" horiz-adv-x="573" 
d="M286 -14c-163 0 -248 105 -248 268c0 115 42 197 124 235c-48 24 -85 65 -85 129c0 89 78 141 184 141c56 0 106 -13 144 -13c53 0 65 17 65 17l44 -9s-11 -80 -104 -80c-45 0 -90 18 -141 18c-59 0 -120 -19 -120 -86c0 -62 55 -87 113 -93c8 1 16 1 24 1
c164 0 248 -97 248 -260s-88 -268 -248 -268zM286 45c115 0 165 81 165 208s-50 202 -165 202c-114 0 -165 -76 -165 -202c0 -127 51 -208 165 -208z" />
    <glyph glyph-name="afii10069.alt" horiz-adv-x="592" 
d="M507 -22c0 -178 -117 -242 -261 -242c-124 0 -160 24 -160 24l-3 143l53 3l9 -99c23 -7 55 -14 101 -14c114 0 181 58 181 195v46s-49 -48 -153 -48c-155 0 -236 114 -236 278c0 157 93 250 230 250c122 0 161 -72 161 -72l8 58h70v-522zM301 45c76 0 117 35 126 44v297
c-6 9 -46 68 -136 68c-108 0 -170 -58 -170 -188c0 -135 53 -221 180 -221z" />
    <glyph glyph-name="afii10085.alt" horiz-adv-x="595" 
d="M430 110v327l-59 3l4 60h136v-522c0 -178 -118 -242 -262 -242c-124 0 -160 24 -160 24l-4 143l54 3l9 -99c23 -7 55 -14 101 -14c114 0 181 58 181 195v57c-13 -15 -56 -59 -162 -59c-111 0 -185 46 -185 155v296l-59 3l4 60h135v-344c0 -72 52 -102 132 -102
c100 0 135 56 135 56z" />
    <glyph glyph-name="afii10110.alt" horiz-adv-x="595" 
d="M430 110v327l-59 3l4 60h136v-522c0 -178 -118 -242 -262 -242c-124 0 -160 24 -160 24l-4 143l54 3l9 -99c23 -7 55 -14 101 -14c114 0 181 58 181 195v57c-13 -15 -56 -59 -162 -59c-111 0 -185 46 -185 155v296l-59 3l4 60h135v-344c0 -72 52 -102 132 -102
c100 0 135 56 135 56zM306 629c86 0 102 59 102 59l70 -10s-21 -102 -172 -102c-152 0 -172 102 -172 102l69 10s16 -59 103 -59z" />
    <glyph glyph-name="Epsilon.alt" horiz-adv-x="669" 
d="M532 284h-387c14 -153 106 -230 248 -230s217 95 217 95l33 -53s-85 -110 -255 -110c-208 0 -333 134 -333 340s135 337 321 337c67 0 122 -29 154 -51l12 42h51v-187h-62l-6 84c-22 16 -71 44 -140 44c-140 0 -234 -84 -242 -248h389v-63z" />
    <glyph glyph-name="Epsilontonos.alt" horiz-adv-x="699" 
d="M56 561l-40 12l64 188l53 -16zM562 284h-387c14 -153 106 -230 248 -230s217 95 217 95l33 -53s-85 -110 -255 -110c-208 0 -333 134 -333 340s135 337 321 337c67 0 122 -29 154 -51l12 42h51v-187h-62l-6 84c-22 16 -71 44 -140 44c-140 0 -234 -84 -242 -248h389v-63z
" />
    <glyph glyph-name="epsilon.alt" horiz-adv-x="496" 
d="M456 368h-61l-5 48c-15 13 -51 38 -106 38c-110 0 -158 -50 -163 -177l254 1v-63l-252 1c11 -119 74 -169 172 -169c100 0 152 51 152 51l24 -45s-52 -67 -190 -67c-159 0 -243 97 -243 270c0 169 89 258 236 258c52 0 94 -22 122 -41l9 32h51v-137z" />
    <glyph glyph-name="epsilontonos.alt" horiz-adv-x="496" 
d="M456 368h-61l-5 48c-15 13 -51 38 -106 38c-110 0 -158 -50 -163 -177l254 1v-63l-252 1c11 -119 74 -169 172 -169c100 0 152 51 152 51l24 -45s-52 -67 -190 -67c-159 0 -243 97 -243 270c0 169 89 258 236 258c52 0 94 -22 122 -41l9 32h51v-137zM304 561l-40 12
l64 188l53 -16z" />
    <glyph glyph-name="AndrijType" horiz-adv-x="1851" 
d="M828 323c2 0 3 -1 3 -1c-32 -111 -20 -110 -44 -113c-2 0 -5 0 -8 -1c-1 0 -16 -3 -22 -3c-2 0 -3 0 -3 1c33 112 19 110 44 114c2 0 5 0 8 1c1 0 15 2 22 2zM276 332c-15 4 -60 13 -75 13c-8 0 -15.9756 -2.0166 -20 -8c-18.8848 -28.0771 -25 -67 -27 -111
c45 32 85 68 122 106zM541 356c9 0 11 -2 11 -4c0 -14 -38 -65 -38 -147c-1 -5 -20 -8 -34 -8c-7 0 -12 1 -13 2c0 58 12 77 28 115c-22 0 -68 -62 -88 -106c-3 -8 -46 -9 -46 -9c12 58 27 122 46 154c4 6 20 6 32 6h8c3 0 5 1 6 1c-17 -27 -30 -80 -37 -108
c34 48 74 104 125 104zM868 353c1 8 32 9 48 9c-10 -82 -33 -164 -86 -229c-38 -46 -109 -78 -153 -78c4 43 53 83 89 105l3 -3c-25 -20 -43 -46 -50 -81c122 58 137.508 185.061 149 277zM819 385c12 0 27 -19 29 -28c-33 0 -82 -11 -94 -20c-28 -20 -28 -97 -37 -129
c-3 -10 -48 -6 -49 -8l3 12c0 2 1 3 1 5c12 42 27 97 61 122c32 21 60 38 86 46zM100 195c0 119 24 160 120 160c26 0 53 -3 72 -6c12 11 34 33 48 41c5 3 40 10 42 10l-4 -11c-28 -72 -56 -146 -58 -224c0 -6 -28 -12 -42 -12c-3 0 -6 1 -7 1c2 65 22 125 45 189
c-46 -50 -128 -117 -171 -145c-3 -2 -32 -8 -42 -8c-1 0 -2 0 -3 1v4zM990 451c4 0 7 0 7 -1c0 -4 -16 -1 -39 -20l-3 -3c-9 -9 -19 -18 -51 -18c-4 0 -9 0 -9 1c0 0 39 41 95 41zM598 213c17 10 44 84 44 121c0 53 -46 103 -134 133c10 3 26 19 42 20
c13 0 128 -41 128 -144c0 -57 -54 -149 -107 -149c-12 0 -21 7 -21 26c0 42 24 86 41 111c3 4 7 6 13 6c8 0 18 -5 27 -5c-20 -26 -35 -65 -35 -107c0 -4 1 -8 2 -12zM967 260c4 7 37 10 42 10c2 0 7 0 7 -1c0 -5 -29 -30 -31 -32c-3 -3 -27 -8 -42 -8c-3 0 -6 0 -6 1
c0 2 22 16 30 30zM1645 330c-7 0 -28 -21 -36 -42l15 -2c14 10 26 28 26 38c0 4 -1 6 -5 6zM1659 213c0 -9 -44 -43 -74 -43c-27 0 -30 20 -30 40c0 66 52 137 119 137c14 0 21 -8 21 -19c0 -16 -14 -40 -32 -46c6 -1 12 -1 18 -1c35 0 67 11 81 47c4 -2 10 -2 14 -2h13
c6 0 11 0 15 -4c-18 -42 -87 -54 -145 -54c-22 0 -43 1 -58 4c-5 -8 -8 -26 -8 -43c0 -20 3 -38 10 -38c18 0 46 26 52 26c2 0 4 -2 4 -4zM1560 324c0 -25 -48 -121 -92 -121c-13 0 -23 9 -33 9c40 26 62 67 79 110c-34 -13 -86 -57 -105 -114c-6 -19 -19 -89 -19 -115
l-3 -5c-6 0 -19 -2 -29 -2c-9 0 -16 1 -16 5c15 64 31 172 63 258c14 5 27 11 41 11c3 0 7 -1 10 -2c-26 -43 -35 -84 -38 -94c20 26 71 79 118 79c14 0 24 -5 24 -19zM1228 359c42 0 33 12 60 12c7 0 12 -1 12 -5c0 -7 -15 -12 -22 -14c-15 -25 -27 -76 -33 -102
c32 46 81 83 115 83v-4c0 -31 -48 -265 -241 -283c4 43 53 84 89 106l2 -4c-25 -20 -41 -46 -48 -81c100 32 137 149 147 221c-25 -15 -49 -37 -72 -81c-3 -8 -46 -8 -46 -8c6 50 13 103 41 146c-17 0 -53 2 -69 5c-22 -61 -40 -127 -48 -171c-2 -6 -34 -10 -45 -10
c-2 0 -4 1 -4 1c0 23 32 121 55 185c-23 2 -50 10 -73 10s-43 -7 -55 -33h-5c-14 0 -27 7 -28 16c12 28 37 36 67 36c33 0 71 -10 99 -15c22 2 25 12 51 16l-9 -20c16 -3 40 -6 60 -6z" />
    <glyph glyph-name="ampersand.alt" horiz-adv-x="728" 
d="M669 331l-83 -1c3 -21 5 -42 5 -63c0 -70 -20 -136 -60 -186c33 -21 64 -33 93 -33c27 0 53 11 61 15l10 -58c-8 -4 -52 -19 -85 -19c-44 0 -89 17 -133 46c-43 -29 -100 -46 -169 -46c-174 0 -254 97 -254 212c0 111 97 164 164 183c-16 43 -24 85 -24 120
c0 98 72 162 189 162c59 0 102 -28 126 -47l10 38h47v-145h-61l-3 46c-8 11 -42 46 -102 46c-83 0 -128 -41 -128 -107c0 -102 96 -269 201 -367c28 39 42 89 42 143c0 38 -7 78 -21 118v7h175v-64zM420 77c-72 65 -137 157 -178 245c-42 -11 -106 -44 -106 -124
c0 -85 50 -150 169 -150c45 0 84 11 115 29z" />
    <glyph glyph-name="afii10086.hist" horiz-adv-x="405" 
d="M407 614h-57l-5 61c-11 11 -35 28 -65 28c-60 0 -86 -35 -86 -140v-85h170v-63h-170v-78h170v-63h-170v-216l59 -2l-3 -56h-193l-4 60l60 3v211h-61v60l61 2v79h-61v60l61 2v94c0 133 53 192 148 192c35 0 69 -19 90 -34l9 25h47v-140z" />
    <glyph glyph-name="afii10097.hist" horiz-adv-x="612" 
d="M575 0h-126l-9 62c-13 -16 -67 -76 -187 -76c-132 0 -213 69 -213 159c0 67 46 101 95 116c-37 21 -70 56 -70 114c0 81 88 139 203 139c102 0 159 -42 173 -54l8 40h70v-441l60 -3zM276 46c111 0 157 66 163 75v282s-41 52 -150 52c-89 0 -147 -44 -147 -95
c0 -57 44 -78 70 -86h116v-44h-96c-69 0 -113 -29 -113 -83c0 -51 54 -101 157 -101z" />
    <glyph glyph-name="a.sc" horiz-adv-x="619" 
d="M189 0h-203l-3 59l78 2l196 489h107l194 -489l78 -2l-3 -59h-210v44l58 2l-52 128h-248l-51 -127l63 -2zM306 483l-105 -261h209z" />
    <glyph glyph-name="b.sc" horiz-adv-x="557" 
d="M285 0h-244l-4 59l70 2v431l-71 3l3 55h244c137 0 197 -54 197 -133c0 -60 -37 -98 -77 -121c68 -18 108 -63 108 -129c0 -98 -63 -167 -226 -167zM315 259h-136v-199h101c114 0 154 39 154 110c0 63 -45 89 -119 89zM179 306h137c36 2 89 30 89 101c0 59 -46 83 -126 83
h-100v-184z" />
    <glyph glyph-name="c.sc" horiz-adv-x="585" 
d="M527 356h-63l-3 93c-16 14 -60 47 -118 47c-126 0 -214 -72 -214 -216c0 -139 85 -225 217 -225c123 0 192 84 192 84l31 -51s-68 -102 -232 -102c-180 0 -291 113 -291 291c0 180 122 287 283 287c59 0 108 -31 137 -54l13 44h48v-198z" />
    <glyph glyph-name="d.sc" horiz-adv-x="661" 
d="M41 0l-4 59l70 2v431l-71 3l3 55h275c190 0 301 -89 301 -268s-107 -282 -301 -282h-273zM314 484h-127v-418h128c141 0 217 75 217 216c0 139 -77 202 -218 202z" />
    <glyph glyph-name="e.sc" horiz-adv-x="531" 
d="M472 426h-63l-4 68h-218v-190h257v-54h-257v-194h241l8 76l59 -4l-4 -128h-450l-4 59l70 2v431l-71 3l3 55h364l70 3z" />
    <glyph glyph-name="f.sc" horiz-adv-x="487" 
d="M271 0h-230l-4 59l70 2v431l-71 3l3 55h373l69 3v-131h-63l-3 64h-228v-181h248v-57h-248v-191l88 -2z" />
    <glyph glyph-name="g.sc" horiz-adv-x="635" 
d="M523 384h-63l-2 79c-17 13 -58 38 -112 38c-146 0 -217 -78 -217 -218c0 -147 81 -232 205 -232c114 0 148 63 156 84v92h-135v49h203v-278h-47l-12 63c-31 -38 -86 -75 -182 -75c-174 0 -271 114 -271 297c0 179 112 281 283 281c63 0 109 -26 135 -46l11 36h48v-170z
" />
    <glyph glyph-name="h.sc" horiz-adv-x="677" 
d="M253 0h-212l-4 59l70 2v431l-71 3l3 55h215v-55l-67 -3v-190h303v190l-70 3l3 55h215v-59l-67 -2v-428l70 -2l-4 -59h-213l-3 55l69 3v186h-303v-187l70 -2z" />
    <glyph glyph-name="i.sc" horiz-adv-x="294" 
d="M254 0h-213l-4 59l70 2v431l-71 3l3 55h215v-55l-67 -2v-436l71 -2z" />
    <glyph glyph-name="j.sc" horiz-adv-x="398" 
d="M362 491l-54 -2v-330c0 -137 -68 -173 -160 -173c-84 0 -124 21 -124 21l-8 122l56 4l7 -76c14 -5 33 -8 60 -8c42 0 88 20 88 110v333l-84 3l4 55h215v-59z" />
    <glyph glyph-name="k.sc" horiz-adv-x="637" 
d="M253 0h-212l-4 59l70 2v431l-71 3l3 55h208v-51l-60 -3v-241l82 61l169 183l-34 1v50h213v-59l-104 -2l-178 -196l201 -233l103 -1l-4 -59h-143l-51 49l-168 193l-86 -54v-138l66 -2v-48z" />
    <glyph glyph-name="l.sc" horiz-adv-x="493" 
d="M483 0h-442l-4 59l70 2v431l-71 3l3 55h215v-59l-67 -2v-426h234l7 77l59 -4z" />
    <glyph glyph-name="m.sc" horiz-adv-x="887" 
d="M241 0h-200l-4 59l70 2v431l-71 3l4 55h94l-1 -1l78 1l233 -465h2l230 465h171v-59l-68 -2l1 -432l70 -2l-4 -55h-203l-4 48l63 2v387h-1l-221 -437h-76l-222 437l-1 -389l63 -3z" />
    <glyph glyph-name="n.sc" horiz-adv-x="697" 
d="M597 -5h-83l-335 438h-2l4 -17v-360l71 -4l-4 -52h-207l-4 59l70 2v431l-71 3l3 55h151l334 -444l-2 16v369l-70 3l3 56h210v-55l-68 -2v-498z" />
    <glyph glyph-name="o.sc" horiz-adv-x="670" 
d="M624 284c0 -181 -108 -298 -289 -298c-182 0 -289 117 -289 298c0 178 107 280 289 280c181 0 289 -102 289 -280zM541 284c0 139 -78 213 -206 213c-129 0 -206 -74 -206 -213c0 -141 76 -229 206 -229c129 0 206 88 206 229z" />
    <glyph glyph-name="p.sc" horiz-adv-x="516" 
d="M261 0h-220l-4 59l70 2v431l-71 3l3 55h228c135 0 215 -50 215 -168c0 -139 -112 -188 -215 -188h-85v-144l83 -2zM253 489h-71v-244h71c77 0 147 35 147 132c0 83 -59 112 -147 112z" />
    <glyph glyph-name="q.sc" horiz-adv-x="670" 
d="M575 -62l8 -64c-20 -7 -42 -11 -64 -11c-77 0 -161 44 -210 124c-166 11 -263 124 -263 297c0 178 107 280 289 280c181 0 289 -102 289 -280c0 -162 -87 -273 -234 -294c38 -36 86 -60 136 -60c16 0 32 2 49 8zM335 54c129 0 206 89 206 230c0 139 -78 213 -206 213
c-129 0 -206 -74 -206 -213c0 -141 76 -230 206 -230z" />
    <glyph glyph-name="r.sc" horiz-adv-x="557" 
d="M573 0h-132l-40 45l-111 154h-108v-153l62 -2l-4 -44h-199l-4 59l70 2v431l-71 3l3 55h228c136 0 216 -54 216 -164c0 -86 -52 -141 -115 -168l114 -158l94 -1zM254 489h-72v-235h94c55 0 124 36 124 128c0 75 -52 107 -146 107z" />
    <glyph glyph-name="s.sc" horiz-adv-x="511" 
d="M439 423h-62l-4 35c-12 13 -48 45 -104 45c-76 0 -120 -34 -120 -93c0 -139 319 -67 319 -251c0 -105 -75 -173 -209 -173c-128 0 -195 33 -195 33l-2 124l47 4l9 -77c27 -10 72 -21 134 -21c91 0 137 45 137 100c0 128 -319 57 -319 254c0 95 67 161 187 161
c52 0 96 -25 121 -44l9 34h52v-131z" />
    <glyph glyph-name="t.sc" horiz-adv-x="474" 
d="M57 414h-63l4 139l69 -3h343l70 3l-1 -139h-62l-4 72h-136v-425l70 -2l-4 -59h-213l-4 59l70 2v425h-134z" />
    <glyph glyph-name="u.sc" horiz-adv-x="654" 
d="M238 495l-67 -2v-287c0 -83 50 -149 157 -149c108 0 159 66 159 149v285l-72 3l3 56h213v-55l-67 -3v-303c0 -108 -71 -203 -237 -203c-165 0 -237 95 -237 203v303l-71 3l4 55h215v-55z" />
    <glyph glyph-name="v.sc" horiz-adv-x="593" 
d="M352 0h-106l-193 488l-75 3l4 59h207v-55l-55 -3l167 -430l165 429l-59 3v56h209v-59l-73 -2z" />
    <glyph glyph-name="w.sc" horiz-adv-x="904" 
d="M189 495l-55 -3l128 -402l153 460h85l156 -457l124 397l-61 4l4 56h204v-59l-68 -2l-160 -489h-86l-157 450h-1l-155 -450h-86l-161 485l-74 2l4 63h206v-55z" />
    <glyph glyph-name="x.sc" horiz-adv-x="616" 
d="M217 499l-35 -2l127 -166l125 165l-35 1v53h213v-59l-94 -2l-162 -214l167 -214l100 -2l-4 -59h-217v51l32 1l-128 166l-125 -161l32 -1v-56h-216l-4 59l99 2l166 213l-165 218l-94 3l3 55h215v-51z" />
    <glyph glyph-name="y.sc" horiz-adv-x="563" 
d="M180 495l-33 -2l141 -202l138 201l-33 2v56h205v-58l-91 -3l-181 -265v-163l70 -2l-4 -59h-213l-4 59l69 2v162l-186 269l-94 3l4 55h212v-55z" />
    <glyph glyph-name="z.sc" horiz-adv-x="539" 
d="M495 494l-351 -431h292l7 76l59 -3l-4 -136h-458v56l350 430h-278l-5 -68h-62l3 132v3l69 -3h378v-56z" />
    <glyph glyph-name="agrave.sc" horiz-adv-x="619" 
d="M353 637l-57 -5l-116 139l77 9zM189 0h-203l-3 59l78 2l196 489h107l194 -489l78 -2l-3 -59h-210v44l58 2l-52 128h-248l-51 -127l63 -2zM306 483l-105 -261h209z" />
    <glyph glyph-name="aacute.sc" horiz-adv-x="619" 
d="M320 632l-57 4l95 143l77 -8zM189 0h-203l-3 59l78 2l196 489h107l194 -489l78 -2l-3 -59h-210v44l58 2l-52 128h-248l-51 -127l63 -2zM306 483l-105 -261h209z" />
    <glyph glyph-name="acircumflex.sc" horiz-adv-x="619" 
d="M439 658l-130 95l-129 -95l-27 48l134 101h45l133 -101zM189 0h-203l-3 59l78 2l196 489h107l194 -489l78 -2l-3 -59h-210v44l58 2l-52 128h-248l-51 -127l63 -2zM306 483l-105 -261h209z" />
    <glyph glyph-name="atilde.sc" horiz-adv-x="619" 
d="M477 733l10 -42s-14 -38 -82 -38s-119 49 -182 49c-47 0 -78 -33 -78 -33l-10 47s22 47 94 47c73 0 122 -51 182 -51c44 0 66 21 66 21zM189 0h-203l-3 59l78 2l196 489h107l194 -489l78 -2l-3 -59h-210v44l58 2l-52 128h-248l-51 -127l63 -2zM306 483l-105 -261h209z
" />
    <glyph glyph-name="adieresis.sc" horiz-adv-x="619" 
d="M427 667c-9 -7 -19 -10 -30 -10s-22 3 -30 10c-9 8 -13 19 -13 30s4 23 13 31c8 6 19 10 30 10s21 -4 30 -10c8 -8 13 -20 13 -31s-5 -22 -13 -30zM249 667c-8 -7 -19 -10 -30 -10s-21 3 -29 10c-9 8 -13 19 -13 30s4 23 13 31c8 6 18 10 29 10s22 -4 30 -10
c8 -8 13 -20 13 -31s-5 -22 -13 -30zM189 0h-203l-3 59l78 2l196 489h107l194 -489l78 -2l-3 -59h-210v44l58 2l-52 128h-248l-51 -127l63 -2zM306 483l-105 -261h209z" />
    <glyph glyph-name="aring.sc" horiz-adv-x="619" 
d="M309 650c-61 0 -102 41 -102 103c0 61 44 104 102 104c56 0 101 -43 101 -104c0 -62 -43 -103 -101 -103zM309 686c36 0 63 27 63 67c0 41 -29 68 -63 68c-36 0 -64 -27 -64 -68c0 -40 28 -67 64 -67zM189 0h-203l-3 59l78 2l196 489h107l194 -489l78 -2l-3 -59h-210v44
l58 2l-52 128h-248l-51 -127l63 -2zM306 483l-105 -261h209z" />
    <glyph glyph-name="ae.sc" horiz-adv-x="811" 
d="M757 422h-62l-4 64h-220v-182h258v-54h-258v-187h242l8 73l59 -4l-4 -132h-452l-2 40l69 3v131h-207l-86 -131l53 -2l-4 -41h-203l-4 59l87 2l292 430l-68 3l3 56h434l69 3v-131zM381 486l-166 -264h176v264h-10z" />
    <glyph glyph-name="ccedilla.sc" horiz-adv-x="585" 
d="M527 356h-63l-3 93c-16 14 -60 47 -118 47c-126 0 -214 -72 -214 -216c0 -139 85 -225 217 -225c123 0 192 84 192 84l31 -51s-61 -90 -205 -101l-7 -55c0 -6 108 -8 108 -85c0 -60 -36 -98 -110 -98c-76 0 -108 36 -108 36l12 31s31 -29 79 -29c50 0 72 24 72 61
c0 54 -98 56 -98 62l11 76c-172 6 -277 117 -277 291c0 180 122 287 283 287c59 0 108 -31 137 -54l13 44h48v-198z" />
    <glyph glyph-name="egrave.sc" horiz-adv-x="531" 
d="M332 637l-57 -5l-116 139l77 9zM472 426h-63l-4 68h-218v-190h257v-54h-257v-194h241l8 76l59 -4l-4 -128h-450l-4 59l70 2v431l-71 3l3 55h364l70 3z" />
    <glyph glyph-name="eacute.sc" horiz-adv-x="531" 
d="M297 632l-57 4l95 143l77 -8zM472 426h-63l-4 68h-218v-190h257v-54h-257v-194h241l8 76l59 -4l-4 -128h-450l-4 59l70 2v431l-71 3l3 55h364l70 3z" />
    <glyph glyph-name="ecircumflex.sc" horiz-adv-x="531" 
d="M418 658l-130 95l-129 -95l-27 48l134 101h45l133 -101zM472 426h-63l-4 68h-218v-190h257v-54h-257v-194h241l8 76l59 -4l-4 -128h-450l-4 59l70 2v431l-71 3l3 55h364l70 3z" />
    <glyph glyph-name="edieresis.sc" horiz-adv-x="531" 
d="M404 677c-9 -7 -19 -10 -30 -10s-22 3 -30 10c-9 8 -13 19 -13 30s4 23 13 31c8 6 19 10 30 10s21 -4 30 -10c8 -8 13 -20 13 -31s-5 -22 -13 -30zM226 677c-8 -7 -19 -10 -30 -10s-21 3 -29 10c-9 8 -13 19 -13 30s4 23 13 31c8 6 18 10 29 10s22 -4 30 -10
c8 -8 13 -20 13 -31s-5 -22 -13 -30zM472 426h-63l-4 68h-218v-190h257v-54h-257v-194h241l8 76l59 -4l-4 -128h-450l-4 59l70 2v431l-71 3l3 55h364l70 3z" />
    <glyph glyph-name="igrave.sc" horiz-adv-x="294" 
d="M191 637l-57 -5l-116 139l77 9zM254 0h-213l-4 59l70 2v431l-71 3l3 55h215v-55l-67 -2v-436l71 -2z" />
    <glyph glyph-name="iacute.sc" horiz-adv-x="294" 
d="M156 632l-57 4l95 143l77 -8zM254 0h-213l-4 59l70 2v431l-71 3l3 55h215v-55l-67 -2v-436l71 -2z" />
    <glyph glyph-name="icircumflex.sc" horiz-adv-x="294" 
d="M276 658l-130 95l-129 -95l-27 48l134 101h45l133 -101zM254 0h-213l-4 59l70 2v431l-71 3l3 55h215v-55l-67 -2v-436l71 -2z" />
    <glyph glyph-name="idieresis.sc" horiz-adv-x="294" 
d="M264 677c-9 -7 -19 -10 -30 -10s-22 3 -30 10c-9 8 -13 19 -13 30s4 23 13 31c8 6 19 10 30 10s21 -4 30 -10c8 -8 13 -20 13 -31s-5 -22 -13 -30zM86 677c-8 -7 -19 -10 -30 -10s-21 3 -29 10c-9 8 -13 19 -13 30s4 23 13 31c8 6 18 10 29 10s22 -4 30 -10
c8 -8 13 -20 13 -31s-5 -22 -13 -30zM254 0h-213l-4 59l70 2v431l-71 3l3 55h215v-55l-67 -2v-436l71 -2z" />
    </font>
</defs>
</svg>
